<svg width="84" height="84" viewBox="0 0 84 84" fill="none" xmlns="http://www.w3.org/2000/svg">
<path d="M17.9593 24.756L21.093 22.9479L17.6919 24.9595L21.9826 22.4828L17.1628 25.3025L21.5174 22.7851L16.6453 25.7269L22.7674 22.1921L16.1221 26.1223L23.3314 21.9595L15.8198 26.3665L23.9884 21.6456L16.0872 26.3316L24.4535 21.5002L15.8721 26.5409L24.4477 21.5874L15.6163 26.8258L24.8198 21.5118L14.9186 27.3549L25.5058 21.2386L15.3953 27.1863L25.9477 21.0932L14.6512 27.6979L25.6802 21.3316L14.1977 28.0932L26.6744 20.8956L14.3372 28.07L26.5349 21.0293L14.7035 27.9304L26.5291 21.1049L14.7326 27.9653L26.6337 21.099L14.4419 28.2095L26.8779 21.0293L14.3023 28.413L27.6744 20.6979L13.814 28.7269L27.7849 20.663L14.093 28.5816L28.093 20.5002L14.0174 28.7386L27.7035 20.8316L14.1977 28.7502L28.0291 20.7618L14.1744 28.8258L28.1395 20.7618L13.7558 29.1514L28.7151 20.5118L13.4477 29.3374L28.8023 20.4769L13.686 29.2328L28.9186 20.4363L13.9709 29.0874L28.6686 20.599L13.7733 29.2444L28.8198 20.5583L13.7267 29.3549L28.9012 20.5932L13.0349 29.8665L29.4128 20.413L13.936 29.3607L28.9477 20.6979L13.8895 29.5002L29.2326 20.6397L13.6337 29.7386L29.6279 20.5002L13.1105 30.1107L29.8372 20.4537L13.3779 29.9828L30.186 20.2793L13.1163 30.1456L30.4535 20.1397L13.4128 30.0932L30.1279 20.4421L12.7326 30.599L30.186 20.5235L13.0407 30.4944L30.3488 20.5002L13.0698 30.5467L30.3721 20.5583L12.8779 30.7269L31.1279 20.1863L12.9419 30.82L31.5581 20.07L12.8547 30.9246L31.1919 20.3374L13.3081 30.7793L31.7384 20.1339L13.3721 30.7676L32.1163 19.9479L12.9012 31.1514L32.1163 20.0525L12.4128 31.5176L32.0291 20.1863L12.9012 31.2851L31.9012 20.32L13.093 31.2502L32.2965 20.163L12.5465 31.6456L32.5872 20.0758L12.5116 31.6863L32.7965 19.9769L12.2384 31.9653L32.2791 20.3956L12.9709 31.6572L32.8314 20.1863L12.8488 31.756L33.186 20.0118L12.4128 32.1107L32.8198 20.3316L12.7907 31.9711L33.2384 20.163L12.7326 32.0409L33.4419 20.0874L12.436 32.2967L33.1163 20.3549L12.2733 32.4304L33.1802 20.3607L12.5174 32.3665L33.7791 20.0932L12.314 32.5758L34.1279 19.9828L12.1453 32.7676L33.9651 20.1688L12.75 32.4886L34.6163 19.8607L12.2093 32.9014L34.5233 20.0176L12.8895 32.6165L34.7965 19.9653L12.4012 33.006L35.0291 19.9421L12.2733 33.2095L34.5116 20.3665L12.4186 33.1746L34.7384 20.2851L13.0058 32.9072L35.5233 19.9072L12.4826 33.3316L35.6628 19.9421L12.2442 33.4711L35.5233 20.0351L12.8023 33.2095L35.5988 20.0467L12.343 33.5176L35.1628 20.3432L12.157 33.663L35.5349 20.163L12.0523 33.7735L35.3256 20.3374L12 33.8956L35.7965 20.163L12.7616 33.4711L35.9767 20.0642L12.3372 33.8025L36.0058 20.1397L12.8372 33.6456L36.1221 20.2037L12.814 33.6921L36.686 19.9072L12.0058 34.1804L36.4651 20.0642L12.6628 33.9304L36.814 19.9828L12.8198 33.8781L36.9128 19.9653L12.7326 34.0642L37.2558 19.9072L12.936 34.0176L37.3488 19.9246L12.314 34.5002L37.1221 20.1804L12.657 34.32L37.7151 19.849L12.4767 34.4653L36.9419 20.3432L12.1453 34.7909L37.9419 19.9014L12.936 34.4421L37.5058 20.256L12.9942 34.4944L37.5349 20.3316L12.8547 34.6223L38.436 19.849L12.436 34.9072L38.2326 20.0176L12.3256 35.0583L37.8023 20.349L12.6453 34.8839L38.2035 20.1281L12.2209 35.2037L38.5872 19.9828L12.686 34.9769L38.5756 20.0293L12.3779 35.1862L38.843 19.913L12.5698 35.2037L38.3663 20.3083L12.2558 35.4537L38.7616 20.1514L12.4942 35.349L39.3488 19.8432L12.186 35.6572L39.3895 19.9537L12.907 35.2502L39.6221 19.8258L13.1279 35.1572L38.9709 20.2386L12.4942 35.6223L39.436 20.07L12.6279 35.6863L39.5465 20.1456L12.4826 35.8025L39.4535 20.2328L12.657 35.756L40.2384 19.8316L12.3081 36.0874L40.1163 20.0351L12.4302 36.0816L40.2267 20.0351L12.8895 35.9537L40.0058 20.2967L12.8023 36.0642L40.2326 20.2211L13.2965 35.7967L40.843 19.8956L13.2326 35.8839L40.9884 19.8607L12.4942 36.4014L40.9942 19.9479L12.8605 36.2502L41.2849 19.8374L13.157 36.1049L40.907 20.0816L13.2674 36.1746L40.8663 20.2386L13.0349 36.32L41.0698 20.1339L13.1221 36.2851L40.7326 20.349L13.3256 36.2618L41.3023 20.1107L13.2326 36.4188L41.1047 20.3316L13.1977 36.5816L41.9535 19.9769L12.6977 36.9014L41.7035 20.1514L13.0523 36.7502L42.4012 19.8025L13.3953 36.5874L41.7849 20.1921L13.2674 36.7676L42.4477 19.9188L13.436 36.7211L42.4012 20.0002L13.5349 36.7618L42.8663 19.8258L13 37.1572L42.9651 19.8607L13.0233 37.2618L42.9128 20.006L13.4709 37.07L43.3663 19.8142L12.8372 37.4711L43.3837 19.8316L13.0814 37.4188L42.7209 20.3083L13.4302 37.2386L42.8256 20.2618L13.0349 37.5467L43.7151 19.8316L13.8314 37.1339L43.7035 19.8897L13.186 37.5235L43.4128 20.07L13.7093 37.2502L43.7267 19.9188L13.1221 37.6049L43.1105 20.2909L13.0465 37.7851L43.8314 20.0118L14.0058 37.3723L43.8663 20.1339L13.8605 37.4828L44.1105 20.0176L13.4709 37.8374L44.5581 19.8897L13.7209 37.7676L44.6221 19.9246L13.4302 37.9595L44.7674 19.8607L13.2907 38.1688L45 19.8665L13.9477 37.9072L44.7674 20.1107L13.2733 38.3258L44.4186 20.3432L13.5174 38.256L44.9244 20.1223L14.2674 37.8723L45.3081 19.9537L13.4535 38.4304L45.4128 19.9828L13.6977 38.3083L44.9419 20.2676L14.0814 38.1281L44.8837 20.3432L14.0291 38.2793L45.6744 20.006L14.0058 38.4304L46.2035 19.8432L13.5116 38.7735L46.3721 19.8025L14.4186 38.3025L46.3081 19.8897L13.8663 38.7269L45.814 20.2851L13.8663 38.8607L46.5174 20.006L14.7093 38.4537L46.6512 20.0118L13.814 39.0642L47.0988 19.849L14.3721 38.7851L47.1512 19.8607L14.7558 38.7037L47.0872 20.0351L14.2558 39.0874L47.2442 20.0409L14.5523 39.0351L47.8605 19.8025L14.8081 39.0176L47.5872 20.0932L14.9128 39.0002L47.564 20.1514L14.6395 39.1688L47.9709 19.9246L14.5116 39.2676L48.1919 19.82L14.5291 39.3839L47.8488 20.1456L14.407 39.4653L47.686 20.2502L14.5116 39.4421L48.2035 19.9886L15.1221 39.1339L47.814 20.256L14.7791 39.3432L48.2849 20.0002L14.907 39.3142L48.3547 20.006L14.8488 39.4421L48.6977 19.8956L15.0814 39.3316L48.9012 19.8083L14.8953 39.5118L48.9767 19.8374L14.9826 39.4828L48.9244 19.8839L14.9826 39.5583L48.7151 20.0816L14.8721 39.6281L48.3779 20.2851L15.3663 39.4304L48.5872 20.256L15.2965 39.4886L48.593 20.2618L15.2384 39.5816L49.3663 19.8781L14.7442 39.9828L48.9593 20.2328L15.4535 39.6165L49.343 20.0467L15.157 39.8258L49.8372 19.8025L14.9942 40.0351L49.5465 20.0816L15.093 40.0118L49.6512 20.0583L15.6279 39.7153L50.2907 19.7037L15.1628 40.0467L50.0233 19.9188L15.5349 39.849L49.9302 19.9886L15.3198 40.0525L49.9651 20.0467L15.8256 39.8083L50.6047 19.7269L15.064 40.3723L50.1686 20.099L15.5058 40.2037L51.0523 19.6804L15.3488 40.3665L50.6105 20.006L15.5291 40.3083L51.3198 19.6514L15.6512 40.3607L51.4361 19.7037L16.1512 40.1049L51.3721 19.7676L15.9477 40.2851L50.8895 20.1107L15.657 40.5642L50.9593 20.1863L16.2791 40.256L51.2558 20.0583L15.5523 40.7502L51.8488 19.7967L16.2791 40.3956L52.0756 19.7328L16.436 40.3839L52.157 19.7618L16.0349 40.6572L51.5116 20.1746L16.436 40.4769L52.3023 19.7676L16.0058 40.7386L51.9709 19.9769L16.4535 40.5002L52.3023 19.8025L16.564 40.57L52.0233 20.099L16.8198 40.4595L52.4942 19.8665L16.8953 40.4304L51.8895 20.2269L16.4709 40.7909L52.7267 19.8549L16.5988 40.7386L52.9826 19.7328L16.3721 41.0002L52.7849 19.9769L16.6047 40.9595L52.9477 19.9769L17.1686 40.7444L53.5756 19.7269L16.5581 41.2037L53.2616 20.0118L16.9826 41.0758L53.843 19.7967L17.3779 40.8607L53.4884 20.0118L17.6686 40.8316L53.7965 19.9711L17.0407 41.2618L53.3372 20.3025L16.9244 41.4188L54.436 19.7618L17.4477 41.1572L53.5349 20.3258L17.2151 41.3781L53.7733 20.2676L16.8895 41.6804L53.8023 20.3665L17.25 41.6049L54.4651 20.1165L17.0465 41.8432L54.5814 20.1746L17.5756 41.57L54.4244 20.2967L17.186 41.8142L55.0988 19.9246L16.8721 42.0467L54.8837 20.099L16.9302 42.0293L55.0058 20.0467L17.3198 41.913L54.5174 20.4363L17.7849 41.6572L54.8372 20.2618L17.3663 41.9828L55.5698 19.9246L16.8779 42.3956L55.8198 19.913L17.6686 41.9769L55.4884 20.1397L17.4942 42.1281L55.1454 20.3956L17.3779 42.2851L55.3954 20.3374L17.1163 42.4711L56.1337 19.9421L17.5756 42.2502L55.9942 20.0642L17.0756 42.5525L55.2849 20.5002L17.6453 42.2386L56.0291 20.0758L17.2267 42.5583L56.1047 20.1107L17.0756 42.756L55.7674 20.4188L17.4186 42.6862L55.7267 20.57L17.7616 42.5758L56.0116 20.4944L17.2558 42.9421L56.4244 20.3258L17 43.1979L56.2965 20.5118L17.1279 43.256L57.157 20.1397L17.8023 42.9653L56.6047 20.5583L16.8953 43.5409L56.6221 20.599L17.5581 43.2735L57.4651 20.2328L17.2791 43.4711L57.2267 20.4072L16.8488 43.8549L57.7791 20.2269L17.1512 43.7618L57.5349 20.4421L16.9419 43.9304L57.1047 20.7386L17.3837 43.7502L57.7035 20.4711L17.3895 43.7967L57.3605 20.7211L17.407 43.8432L57.564 20.6572L17.3895 43.9304L58.1221 20.413L17.2616 44.07L57.6861 20.7328L17.657 43.913L58.0407 20.599L17.3023 44.2328L57.7093 20.9014L17.7384 44.0351L58.4593 20.5235L17.0233 44.4828L57.9826 20.8374L16.9128 44.6746L58.186 20.849L17.3081 44.5118L58.7674 20.5758L17.0581 44.6688L58.1744 20.9304L17.7384 44.3316L58.186 20.9828L17.8314 44.413L58.4593 20.9537L17.4302 44.7386L58.5872 20.9769L17.343 44.9304L59.0756 20.8316L16.9593 45.1862L58.8605 20.9944L17.7267 44.8258L59.5291 20.6921L16.8953 45.3781L59.0756 21.0293L17.7965 44.9479L59.2849 21.0002L16.9012 45.599L59.8488 20.8025L17.0698 45.5758L59.25 21.2211L17.3547 45.4421L59.6454 21.0235L17.7965 45.3142L59.8547 21.0351L17.1686 45.7328L59.5233 21.2793L16.8663 45.9537L59.6512 21.2502L17.2849 45.8374L59.75 21.32L16.9767 46.0293L60.1802 21.0874L16.9012 46.1107L60.0698 21.1863L17.3721 45.8665L60.4826 20.9769L17.2849 46.0351L59.8721 21.4421L17.5756 45.9246L60.5698 21.099L17.4535 46.0932L60.7791 21.0816L17.7616 45.9653L60.4884 21.2967L16.8721 46.5874L60.4767 21.413L17.4244 46.3258L60.6919 21.3432L17.1686 46.5642L61.3081 21.0816L17.157 46.7037L61.5291 21.0816L17.4593 46.5583L61.2035 21.2967L17.8081 46.4479L61.093 21.4537L17.5465 46.6049L60.8314 21.6165L17.7558 46.6107L61.0523 21.6107L17.1686 47.0583L61.3779 21.5351L17.5291 46.9828L61.9128 21.3607L17.2849 47.2153L62.1047 21.3374L17.2616 47.2444L61.5872 21.6572L17.1453 47.3432L61.564 21.7037L17.3721 47.349L61.4942 21.8723L17.593 47.2328L61.5872 21.8316L17.5872 47.2851L61.6337 21.8549L17.0058 47.6572L62.2267 21.5467L17.343 47.5235L62.3663 21.5293L17.1337 47.6979L61.8954 21.849L16.8488 47.8839L62.1163 21.7444L17.064 47.8839L62.1919 21.8316L16.8779 48.1049L62.7558 21.6165L17.0349 48.099L62.4535 21.8781L17.7093 47.7676L63.0233 21.6107L17.1105 48.2153L62.3256 22.1107L17.4302 48.0583L62.7965 21.8665L17.4477 48.1339L62.7384 21.9828L17.1221 48.4188L63.1919 21.82L17.1453 48.4421L63.25 21.82L17.5116 48.2676L62.8081 22.1165L16.8314 48.7909L63.0756 22.0932L17.4419 48.4944L63.407 21.9537L17.0698 48.8316L63.1628 22.2211L17.7035 48.5874L63.8721 21.9363L17.75 48.5758L63.2674 22.3025L16.9884 49.0642L63.1337 22.4246L17.657 48.7269L63.2035 22.4304L17.7384 48.7386L64.0291 22.0118L17.0814 49.1688L63.7907 22.2037L17.0756 49.2793L64.0407 22.163L17.6802 48.9362L63.6105 22.4188L17.0407 49.3258L63.3954 22.5642L17.6395 49.099L63.8953 22.3956L17.5465 49.1746L64.093 22.3025L17.7442 49.1165L63.6105 22.6339L16.9302 49.6456L64.0523 22.4421L16.9942 49.6223L64.1628 22.3956L17.7965 49.2502L64.4826 22.2967L17.5988 49.3956L64.0465 22.5816L16.8547 49.8897L64.2558 22.5176L17.4826 49.6165L64.3372 22.5642L17.4535 49.6688L64.3721 22.5816L17.3314 49.8607L64.9012 22.3956L17.8314 49.6049L63.9826 22.9595L17.2791 49.9537L64.6512 22.6049L17.5 49.9304L64.3314 22.8897L17.4942 50.0583L64.3837 22.9886L17.4884 50.1746L64.5174 23.0176L17.4419 50.3083L65.0233 22.8374L17.2035 50.4944L64.8605 22.9769L17.3663 50.4886L64.6628 23.1804L16.8779 50.8956L65.1337 23.0351L16.8547 51.0351L64.9709 23.256L17.5 50.7502L65.2791 23.163L17.4593 50.8956L64.9419 23.4828L17.4826 50.9304L65.5349 23.1921L16.9186 51.3258L65.0174 23.5525L17.2442 51.2269L65.3779 23.4363L17.4884 51.1107L65.2558 23.5351L17.4651 51.2502L66.1802 23.1223L16.9942 51.5525L65.8837 23.3258L17.0581 51.599L65.7442 23.4944L16.8605 51.7793L65.4128 23.7502L17.7791 51.3374L66.4012 23.2618L17.3663 51.6339L66.1977 23.4363L16.9942 51.9304L66.5407 23.32L17.0233 51.9653L65.7674 23.8258L17.0058 51.9944L66.0814 23.6572L17.8023 51.5409L66.2849 23.5525L16.8895 52.1456L65.9709 23.8083L17.5465 51.7967L66.3314 23.6339L17.7035 51.8374L66.6686 23.57L17.4244 52.1107L66.314 23.8839L17.686 51.9711L66.4244 23.8374L17.4128 52.2328L66.3023 24.006L16.936 52.6339L66.5291 24.006L17.0349 52.6514L66.8488 23.8897L17.4012 52.5467L66.3895 24.2618L17.4012 52.6688L66.4535 24.349L16.9302 53.0351L67.1395 24.0409L17.5058 52.8083L66.9826 24.2444L17.157 53.0409L67.3663 24.0525L16.936 53.256L67.1977 24.2386L17.5349 53.0467L66.7384 24.6397L17.4302 53.1281L67.3547 24.3083L16.9419 53.4362L66.7907 24.6572L17.343 53.2211L67.1628 24.4537L17.2267 53.3142L67.1686 24.4769L17.7151 53.163L66.8488 24.7967L17.4709 53.349L67.25 24.6107L16.9012 53.7269L67.2384 24.6688L17.6453 53.3083L67.5 24.5235L17.2209 53.6281L67.0698 24.849L16.8488 53.8956L67.8023 24.4711L17.6337 53.5235L67.8547 24.5293L17.1163 53.9188L67.2151 24.9944L17.1395 54.0351L68.1163 24.6049L17.407 53.9072L68.1105 24.6339L17.1453 54.0816L67.436 25.0467L17.314 54.0642L67.3895 25.1514L17.2035 54.1804L67.8488 24.9421L17.3779 54.1049L67.4942 25.1746L17.5872 54.0118L68.0058 24.9014L17.4535 54.1339L68.343 24.756L17.5349 54.1339L67.8023 25.1107L16.8372 54.5583L67.7616 25.1572L16.9186 54.5176L67.4767 25.3316L17.2151 54.3607L67.5465 25.3025L17.0523 54.4653L68.25 24.9072L17.5407 54.2909L67.6686 25.349L17.6512 54.2735L68.4593 24.9421L17.7733 54.2735L68.2035 25.163L17.3663 54.5235L68.0349 25.2735L17.0233 54.8258L67.8837 25.4653L17.1744 54.82L68.1163 25.4072L17.0233 55.006L68.3721 25.3607L17.064 55.0118L68.4884 25.3258L17.7849 54.7328L68.4419 25.4828L16.8663 55.4014L68.9535 25.3258L17.6221 55.0642L68.9767 25.413L17.2442 55.3374L68.3954 25.8025L17.6919 55.2037L68.6047 25.8083L17.186 55.5351L68.3721 25.9828L17.6395 55.32L68.9593 25.6921L17.2965 55.5583L68.7151 25.8723L17.5523 55.506L68.4361 26.1281L17.7209 55.4421L68.407 26.1746L17.6977 55.5525L68.9884 25.9421L17.7267 55.6281L68.8081 26.1339L17.0407 56.0409L69.4186 25.8025L17.6105 55.7735L69.1454 26.0176L17.2616 56.07L68.8721 26.2735L17.0291 56.3025L69.3721 26.0816L17.7442 55.9362L69.2093 26.2211L17.2849 56.2269L69.4186 26.1339L16.9012 56.4711L68.907 26.4421L17.4709 56.1572L69.4012 26.1804L17.6744 56.0758L69.5698 26.1165L17.8314 56.1281L69.0523 26.5525L17.3895 56.4479L69.4535 26.3897L17.657 56.32L69.2035 26.5583L17.0058 56.6979L68.843 26.7735L16.8953 56.7735L69.2209 26.5642L17.2267 56.6223L69.1919 26.6165L17.8314 56.349L69.3605 26.599L17.3023 56.7793L69.3779 26.7095L17.7558 56.57L69.0523 26.9595L17.6512 56.756L69.2558 26.9653L16.8663 57.2909L69.5116 26.9014L16.9651 57.349L69.2965 27.1339L17.0349 57.3723L70.0407 26.7676L17.564 57.1456L69.7384 27.0235L17.7209 57.1688L69.8372 27.0816L17.3779 57.4479L69.5872 27.3025L16.9709 57.8142L69.9767 27.2153L17.5465 57.6049L70.3081 27.1397L17.3547 57.756L69.7965 27.4769L17.2558 57.849L70.4477 27.1397L17.7151 57.6165L69.8663 27.506L17.3605 57.849L70.1337 27.3723L17 58.0874L69.5988 27.7153L17.6686 57.82L70.2384 27.4653L17.2907 58.1049L70.0814 27.6281L17.0465 58.2793L70.3198 27.5235L17.7384 57.9479L69.9012 27.8316L17.4826 58.1862L69.843 27.9537L17.1395 58.4828L70.1105 27.9014L17.1512 58.6049L70.1919 27.9828L17.093 58.7211L70.4128 27.9363L17.5116 58.57L69.8837 28.3316L17.5349 58.6339L70.6977 27.9421L17.0233 59.0002L70.4012 28.1863L17.8953 58.5235L70.2674 28.2909L17 59.1165L70.093 28.4653L17.7849 58.6746L70.6337 28.163L17.907 58.7386L70.8372 28.1746L17.9593 58.7967L70.6919 28.3549L17.1105 59.3781L70.6047 28.4944L17.8953 59.0525L71.0872 28.3432L17.657 59.3258L71.1105 28.4653L17.8256 59.3432L70.6919 28.82L17.7267 59.4362L70.9709 28.6979L17.9942 59.3374L70.8372 28.8316L17.5116 59.6688L71.2558 28.6397L17.8081 59.6339L70.6453 29.1339L17.8953 59.663L71.093 28.9479L17.6279 59.8549L70.4535 29.3607L17.564 59.9421L70.593 29.3258L17.5174 60.0235L71.1047 29.0816L17.4186 60.1572L70.7674 29.3549L17.4709 60.2386L70.657 29.5293L17.5988 60.2328L71.0581 29.3723L17.3837 60.4653L71.4302 29.2618L17.9186 60.1921L70.9128 29.599L17.814 60.3258L70.6686 29.8083L17.9709 60.2793L70.9767 29.6804L17.7267 60.4421L70.6453 29.8897L18.4535 60.1281L71.4128 29.5525L17.814 60.5467L71.4535 29.5816L17.8256 60.5932L70.7733 30.0235L17.6512 60.7793L71.4826 29.6979L18.4709 60.4246L71.1802 29.9944L18.1279 60.6863L71.5 29.8723L17.7151 60.9421L71.2791 30.0176L17.7267 61.0118L71.4128 30.0176L17.9826 60.8781L70.8663 30.349L18.1163 60.9014L71.4651 30.099L17.9128 61.1049L71.6919 30.0583L18.2035 60.9711L71.3721 30.2735L18.3605 60.9711L71.0814 30.5351L18.3314 61.07L71.5465 30.3432L18.0814 61.349L71.0581 30.7618L18.4593 61.1688L71.3954 30.6049L18.2035 61.4246L71.2907 30.7735L18.6279 61.1921L71.3605 30.7444L19.0349 61.0816L70.9942 31.0816L19.0756 61.1804L71.75 30.7676L18.7965 61.4304L71.4302 31.0467L18.6105 61.6339L71.593 31.0467L18.4128 61.8839L71.5349 31.2153L18.2965 62.0176L71.7093 31.1804L19.2674 61.5642L71.5872 31.3549L18.4128 62.1049L71.0523 31.7153L18.8372 61.9304L71.9302 31.2735L19.064 61.913L71.4535 31.6688L18.6453 62.2269L71.4651 31.7269L18.8721 62.1339L71.6977 31.6397L18.8081 62.2735L71.4302 31.8956L18.8198 62.3025L71.7616 31.7386L19.2616 62.1804L71.0291 32.2967L19.7209 62.0351L71.6802 32.0351L19.6919 62.099L71.5174 32.1746L19.3547 62.3607L71.2384 32.4072L19.9186 62.1455L71.0523 32.6223L19.814 62.3316L71.186 32.6746L19.6395 62.5642L71.7384 32.4886L19.5233 62.6979L71.9651 32.4188L19.2326 62.9362L71.3081 32.8665L19.2907 62.9653L71.7558 32.6746L19.3372 63.0118L71.8954 32.663L19.9012 62.7618L72 32.6863L20.1744 62.7037L71.6454 32.9828L20.0581 62.8432L71.8663 32.9304L19.6453 63.1397L71.4477 33.2328L20.0349 62.9769L71.8488 33.0642L20.6221 62.7328L71.9186 33.1223L19.9244 63.2618L71.1395 33.6863L20.1221 63.2735L71.9767 33.3316L20.4186 63.1281L71.2093 33.8025L20.4302 63.2444L71.1686 33.9479L21.0116 62.9711L71.8372 33.6281L20.657 63.2735L71.4767 33.9363L20.8837 63.1804L72 33.6746L20.936 63.1746L71.6279 33.9072L20.8663 63.2793L71.6105 33.9769L20.7791 63.4304L71.3837 34.2153L21.3372 63.1921L71.064 34.4828L21.064 63.3607L71.0465 34.506L21.4477 63.1921L71.6454 34.2095L20.9535 63.6049L71.1395 34.6281L21.2558 63.4421L71.8488 34.2328L21.2209 63.5351L71.3954 34.5642L21.6047 63.3607L71.1337 34.7618L21.2674 63.6339L71.3198 34.7386L21.0988 63.7502L70.9593 34.9595L21.3721 63.6862L70.8837 35.099L21.686 63.5235L71.8721 34.5525L21.9535 63.3897L71.843 34.5874L21.5523 63.663L71.314 34.9304L21.2209 63.8897L71.6395 34.7793L21.8372 63.5467L71.3488 34.9595L21.8081 63.6688L71.407 35.0351L21.6919 63.8142L71.4942 35.0583L22.3895 63.5409L71.5698 35.1456L21.5872 64.1049L71.4709 35.3083L22.0465 63.913L70.7733 35.7793L22.564 63.7153L71.0116 35.7444L22.2442 63.913L71.5349 35.4537L22.5233 63.8258L71.3605 35.6281L22.7442 63.7444L71.1395 35.8083L22.8488 63.8083L70.6802 36.1979L22.5174 64.0932L70.6512 36.3025L23.2442 63.7502L71.0756 36.1339L22.8198 64.1223L70.3314 36.6921L23.4593 63.8316L70.4593 36.6979L23.314 64.0002L70.7616 36.6107L23.7965 63.8549L70.4826 36.9014L23.0407 64.3083L70.8372 36.7095L23.4012 64.1746L70.9942 36.6979L24.0058 63.9421L70.2442 37.2444L24.1221 64.0118L69.9767 37.5351L23.7616 64.3432L70.6453 37.2676L24.1744 64.1107L70.2093 37.5293L24.1453 64.1921L69.9651 37.7386L25.0523 63.8025L70.4012 37.6165L25.093 63.8025L69.564 38.1281L24.8547 64.0409L69.907 38.0293L24.8779 64.163L70.0407 38.0874L25.7267 63.8025L69.1221 38.7502L25.5523 63.9595L69.2442 38.7328L25.7035 63.9014L69.0058 38.9014L25.6686 64.0293L69.0407 38.9886L25.5756 64.1456L68.4186 39.413L25.593 64.256L67.0349 40.3316L25.8372 64.1688L66.4012 40.7502L25.843 64.3025L67.0407 40.5176L26.3198 64.1339L66.3954 41.0002L26.0523 64.2967L66.2849 41.07L26.8895 63.8839L66.3023 41.1281L27.0407 63.9304L66.3023 41.2618L26.936 64.0932L66.3023 41.3665L27.3023 63.9246L66.593 41.2386L27.0407 64.1397L66.6512 41.2676L26.9419 64.3083L67.2384 41.0467L27.6453 63.9886L66.9884 41.2735L27.3663 64.2502L67.2326 41.2328L27.6395 64.1107L66.657 41.5874L27.6977 64.2037L66.2442 41.9479L28.1512 64.07L67.2442 41.5002L27.9593 64.2502L67.1919 41.599L27.9942 64.32L67.2209 41.6746L28.3954 64.099L66.3779 42.1688L28.7674 63.913L66.9186 41.8839L28.0407 64.349L66.6279 42.07L29.1279 63.7909L67.0058 41.9246L28.4651 64.2735L66.4767 42.3258L29.2849 63.8432L66.7151 42.2328L28.9826 64.0409L66.3895 42.4421L29.3198 63.9828L67.2209 42.099L29.1686 64.1804L66.5291 42.6107L29.6337 64.0293L66.5233 42.7328L29.8837 63.9014L67.1163 42.4014L29.314 64.2909L67.0581 42.5002L29.5174 64.2211L66.7849 42.7037L30.1221 63.9711L66.7384 42.8316L29.8488 64.1688L67.1221 42.6456L30.4244 63.9479L66.2674 43.2502L30.3547 64.0816L67.0756 42.8781L30.4128 64.1804L66.9709 43.0758L30.9244 63.9537L66.5349 43.3956L30.5349 64.3083L66.9128 43.3083L30.9535 64.099L66.2907 43.6979L31.2558 64.0293L66.7326 43.5467L31.1337 64.2037L66.9826 43.506L31.2907 64.2502L66.5698 43.8781L31.3256 64.2676L67.1512 43.5816L32.0814 63.8374L66.4651 43.9886L32.0058 63.9944L67.1221 43.7211L31.7849 64.1979L66.2384 44.3025L32.5174 63.8956L66.2558 44.413L32.1105 64.2037L66.3779 44.4188L33.064 63.7793L66.3779 44.5467L32.7965 63.9944L67.1279 44.1746L32.5872 64.1514L66.7558 44.4246L32.7674 64.1339L66.6744 44.5583L33.3256 63.9304L66.3837 44.8432L32.9826 64.2386L66.5233 44.8723L33.1163 64.1688L66.4012 44.9479L33.1105 64.3083L66.5 45.0293L33.7035 64.0467L67.1454 44.7386L34.0756 63.8665L67.0872 44.8083L33.6628 64.1514L66.4302 45.2328L34.2384 63.8258L67.2035 44.7909L33.407 64.3374L66.6163 45.163L34.4128 63.7793L66.5 45.256L33.6802 64.3374L66.9826 45.1107L33.9302 64.2386L67.186 45.0409L34.657 63.8839L66.8256 45.3142L34.8837 63.7676L67.186 45.1165L34.8081 63.8432L66.5756 45.5002L34.9244 63.8374L67.1686 45.2211L34.7442 64.0351L66.9302 45.4537L35.2209 63.8374L66.6395 45.6979L34.8081 64.1397L66.343 45.9304L35.5465 63.8258L66.8721 45.7386L35.6802 63.8839L66.6105 46.0293L35.1337 64.32L66.3605 46.2909L35.4826 64.2037L66.4128 46.349L36.1512 63.9537L67.0291 46.1281L36.2616 63.9421L67.0523 46.163L36.3023 63.9944L66.8372 46.3665L36.8895 63.7793L66.2674 46.82L36.5872 64.006L66.7674 46.5816L36.936 63.8781L66.8954 46.5816L36.7907 64.07L66.4651 46.9362L36.843 64.0758L66.5291 46.9362L37.2442 63.9421L66.3663 47.1281L37.1337 64.1223L66.6163 47.099L37.5058 63.9304L67.1512 46.8142L37.1105 64.2967L66.8023 47.1514L38.1802 63.8142L67.2093 47.0583L37.9244 64.0816L66.4012 47.6397L38.0407 64.0351L67.0872 47.2618L38.5116 63.7735L67.1337 47.2502L38.3372 63.9537L66.9767 47.4188L38.5988 63.8549L67.2151 47.3316L38.3314 64.0874L66.7558 47.6804L38.7965 63.913L66.7965 47.7444L38.5581 64.1514L67.2267 47.599L38.814 64.0235L67.0291 47.7328L39.2151 63.9072L66.5349 48.1339L39.0116 64.0642L66.8314 48.006L39.2326 64.0583L66.9244 48.07L39.436 63.9769L66.9709 48.0816L38.9535 64.32L66.9593 48.1514L39.1337 64.2444L67.0698 48.1165L39.2442 64.2444L66.3081 48.6165L40.1221 63.7735L66.2442 48.6921L40.2674 63.82L66.9535 48.413L40.0872 64.0002L67.1105 48.3956L39.9186 64.1281L66.8081 48.6049L39.8663 64.1921L66.7558 48.6688L40.1163 64.163L66.3023 49.0409L40.5407 63.9653L67.0872 48.6397L40.7326 63.8723L67.093 48.6514L40.2558 64.2037L67.1163 48.6979L40.2965 64.2037L66.4535 49.1049L40.3953 64.2095L66.3779 49.2095L40.5814 64.1862L67.1337 48.8549L41.2442 63.8723L67.064 48.9653L41.2326 64.0002L66.9128 49.1746L41.2267 64.0176L66.4186 49.4711L41.2326 64.0642L66.3547 49.5583L40.8547 64.3083L66.9826 49.2269L41.2267 64.2037L66.5349 49.5932L41.1744 64.256L66.6744 49.5351L41.9651 63.8142L66.7849 49.4828L41.6395 64.0758L66.4651 49.7444L41.5465 64.2328L66.8256 49.6339L41.6337 64.1979L66.7442 49.6979L41.9709 64.1223L67.0988 49.6165L42.4128 63.8781L66.75 49.8258L42.3081 63.9711L66.5058 50.0002L41.8953 64.2967L67.0058 49.8025L42.9767 63.7909L66.6919 50.099L42.8605 63.913L66.7616 50.1107L42.3663 64.3258L66.5814 50.3432L43.1105 64.0118L66.4593 50.5351L42.6221 64.349L66.6686 50.4653L43.564 63.9421L66.8372 50.506L43.8547 63.8781L67.1105 50.4537L44.0058 63.8258L66.2965 50.9595L43.8837 63.9421L66.564 50.849L44.2791 63.8316L66.6744 50.9014L44.5349 63.8025L66.8547 50.913L44.4244 63.9246L66.9477 50.9188L44.1337 64.1746L67.1221 50.9014L44.4477 64.1223L66.6686 51.2909L45.0756 63.8142L67.186 51.0467L45.1512 63.8025L66.9419 51.2211L44.6221 64.1281L66.7035 51.3781L45.3895 63.7793L67.1977 51.1862L45.3954 63.7967L67.2035 51.2037L44.8605 64.1746L66.4826 51.6921L45.8605 63.6688L66.6221 51.6804L45.3895 63.9595L66.8954 51.5409L45.8081 63.8316L66.5698 51.8432L45.7384 63.9711L67.0349 51.6746L45.6744 64.1456L67.0988 51.7793L46.5756 63.7037L66.6163 52.1339L46.4535 63.8781L67.0174 52.006L46.4942 63.9944L66.7442 52.3025L46.7733 63.9421L67.0465 52.2386L47.5698 63.6165L67.1454 52.3142L47.2267 63.9304L67.0291 52.4944L47.7965 63.6804L67.1686 52.4944L47.4419 63.9537L66.4593 52.9711L47.6395 63.9421L67.0988 52.7037L48.2326 63.6223L66.5291 53.0583L47.686 64.0176L66.9302 52.9072L48.4128 63.6746L66.5872 53.1804L47.814 64.1107L66.4477 53.349L48.9244 63.6049L66.3314 53.5583L48.3779 63.9362L66.8895 53.2502L48.8895 63.7153L66.5233 53.5351L48.9942 63.6979L66.8779 53.3723L48.6221 63.9537L66.9419 53.3781L48.9709 63.7851L66.5058 53.663L48.8837 63.849L66.6395 53.599L48.8605 63.9304L66.3081 53.8549L49.1047 63.9072L66.5 53.8665L48.936 64.1049L66.7791 53.8025L49.436 63.9362L66.3721 54.1572L49.3605 63.9828L67.1686 53.7037L49.2965 64.0409L66.7093 53.9886L49.6919 63.8781L66.6395 54.0932L50.3314 63.6456L66.6919 54.1979L50.0349 63.8316L66.3372 54.4188L49.8023 64.0176L67.1337 54.0118L50.1279 63.9072L67.1454 54.0816L50.6105 63.6979L66.9826 54.2444L50.4884 63.8665L66.6337 54.5467L50.3954 64.0176L67.0116 54.4246L51.0174 63.7676L67.2035 54.4188L50.8314 63.9595L66.4128 54.9653L51.343 63.7909L66.5756 54.9944L51.8081 63.6339L66.8721 54.9362L51.4884 63.9304L66.3547 55.349L51.4477 64.07L66.7965 55.2095L52.1628 63.7618L66.4593 55.506L51.8837 63.9769L67.1512 55.163L52.436 63.7153L66.3372 55.6921L52.6337 63.6339L66.7965 55.4537L52.3081 63.9304L66.3721 55.8083L52.4709 63.8549L66.9709 55.4828L52.814 63.7851L66.7674 55.7269L53.314 63.6165L66.5116 56.0002L52.4477 64.1339L67.1337 55.6572L52.9709 63.9246L66.3314 56.2095L53.1628 63.8897L66.8372 55.9944L53.8081 63.6339L66.4942 56.3083L53.3953 63.9362L66.9709 56.099L53.6628 63.8374L67.0523 56.1107L53.6221 63.8723L66.3372 56.5293L53.9884 63.6746L66.9419 56.1979L54.0581 63.7269L66.7558 56.3956L53.5233 64.0409L66.3837 56.6165L53.6802 64.0758L66.9244 56.4304L53.9302 64.0118L66.2733 56.8839L53.9419 64.1107L66.6512 56.7735L54.1105 64.1397L66.9186 56.7444L55.0465 63.663L66.7791 56.8897L54.5523 63.9944L66.9477 56.8374L55.4302 63.6107L67.0058 56.9246L55.5116 63.6397L66.5872 57.2444L54.8895 64.1049L66.7674 57.2444L56.0465 63.5583L66.4535 57.5525L55.9651 63.7211L66.4477 57.6688L55.4709 64.099L66.436 57.7676L56.3372 63.6165L66.3372 57.8432L55.6977 64.0467L66.6163 57.7444L56.2442 63.7851L66.814 57.6804L56.2558 63.8723L66.8605 57.7502L56.6221 63.7037L66.7674 57.8432L56.407 63.9188L66.843 57.8956L56.2674 64.0293L66.8488 57.9188L57.1802 63.6223L66.9244 57.9944L57.3372 63.663L66.4767 58.3839L57.5174 63.5642L66.6337 58.3025L56.9826 63.9479L66.5872 58.4014L57.064 63.9653L66.8023 58.3432L57.5988 63.6804L66.1047 58.7676L57.8779 63.5932L66.2267 58.7735L57.5756 63.8432L66.3721 58.7618L58.093 63.5816L66.8779 58.5118L57.5174 64.0409L66.5698 58.8142L57.9012 63.9421L66.25 59.1223L58.3663 63.7153L65.9012 59.3665L57.9884 64.0642L65.9012 59.4944L59.0291 63.5467L66.186 59.413L58.5698 63.8549L66.5058 59.2735L58.8256 63.8316L65.6512 59.8897L59.2209 63.6862L65.6919 59.9479L59.0233 63.9188L65.8372 59.9828L59.5523 63.6281L66.2849 59.7444L58.9709 64.0642L66.1279 59.9304L59.3837 63.8723L66.0988 59.9944L59.1686 64.0118L65.7965 60.1863L60.0872 63.5293L65.6977 60.2909L59.6105 63.9246L65.4884 60.5293L60.4186 63.5176L65.0872 60.8258L60.6686 63.5002L65.8779 60.4944L60.4477 63.7328L65.3198 60.9188L60.7558 63.5642L64.7209 61.2735L60.2326 63.8956L65.2965 60.9711L61.1047 63.5176L64.3256 61.6572L60.9419 63.6979L64.7907 61.4769L61.2791 63.57L64.6047 61.6514L61.8663 63.3025L63.814 62.1804" stroke="#BC7535" stroke-width="0.3" stroke-linecap="round" stroke-linejoin="round"/>
<path d="M49.1392 40.2104L52.081 38.5127L49.9124 39.8325L51.4531 38.9429" stroke="#FCDEA2" stroke-width="0.3" stroke-linecap="round" stroke-linejoin="round"/>
<path d="M18.4539 25.7089L20.9887 24.2438L18.1748 25.9124L22.1748 23.6042L17.6341 26.267L22.0527 23.7147L17.2562 26.6101L23.0992 23.238L16.7271 27.0112L23.6225 23.0287L16.419 27.2554L24.2853 22.7147L16.6748 27.2321L24.8085 22.5345L16.4597 27.4415L24.8725 22.581L16.3143 27.6624L25.2213 22.517L15.6108 28.1973L25.855 22.2787L16.0818 28.0287L26.2736 22.1449L15.3318 28.5461L25.9946 22.3891L14.8783 28.9473L26.9887 21.9531L15.012 28.9182L26.855 22.081L15.3841 28.7787L26.8608 22.1566L15.448 28.7961L26.9771 22.1391L15.2039 29.0054L27.2387 22.0577L15.0818 29.2031L28.076 21.7031L14.5934 29.517L28.1864 21.6682L14.8725 29.3775L28.4887 21.5112L14.7911 29.5287L28.0701 21.8659L14.9655 29.5461L28.3608 21.8077L14.9422 29.6217L28.4597 21.8194L14.5236 29.9473L29.0236 21.5752L14.2155 30.1391L29.1108 21.5403L14.4539 30.0287L29.2213 21.5054L14.7329 29.8891L28.9713 21.6682L14.5411 30.0461L29.1167 21.6275L14.4887 30.1566L29.1922 21.6682L13.8085 30.6624L29.7039 21.488L14.7155 30.1508L29.2387 21.767L14.7097 30.2612L29.5236 21.7147L14.4946 30.4821L29.919 21.5752L13.9829 30.8484L30.1341 21.5228L14.2446 30.7205L30.4829 21.3484L13.9887 30.8833L30.7504 21.2089L14.2853 30.831L30.4364 21.5054L13.5992 31.3426L30.512 21.5752L13.9074 31.2322L30.6864 21.5461L13.9364 31.2903L30.7097 21.6042L13.7446 31.4705L31.4539 21.2438L13.8027 31.5635L31.8608 21.1391L13.7155 31.6682L31.4829 21.4124L14.169 31.5228L32.0178 21.2147L14.2329 31.5112L32.3899 21.0287L13.7736 31.8891L32.3783 21.1449L13.3085 32.2438L32.2853 21.2845L13.8143 31.9996L32.1515 21.4124L14.0236 31.9531L32.5469 21.2612L13.5004 32.3368L32.8318 21.174L13.4713 32.3775L33.0411 21.0752L13.2097 32.6449L32.5236 21.4938L13.9422 32.3368L33.076 21.2903L13.8201 32.4356L33.4306 21.1101L13.3841 32.7903L33.0643 21.4298L13.762 32.6508L33.4887 21.2612L13.7039 32.7205L33.6515 21.2031L13.4074 32.9763L33.3318 21.4705L13.2446 33.1101L33.4074 21.4705L13.4887 33.0461L34.0178 21.1915L13.2853 33.2554L34.3783 21.0752L13.1167 33.4473L34.2329 21.2554L13.7213 33.1682L34.8899 20.9473L13.1806 33.5868L34.7853 21.1101L13.8725 33.2903L35.0469 21.0635L13.3957 33.674L35.2678 21.0403L13.2853 33.8659L34.7387 21.4763L13.4364 33.8252L34.9597 21.3949L14.0469 33.5461L35.7329 21.0287L13.5469 33.9531L35.8667 21.0694L13.3143 34.0984L35.7213 21.1624L13.8841 33.8252L35.7911 21.1798L13.4306 34.1333L35.3492 21.4763L13.2446 34.2728L35.7155 21.3019L13.1457 34.3833L35.5062 21.4705L13.1108 34.4996L35.9655 21.3019L13.8667 34.0694L36.1399 21.2089L13.4539 34.4008L36.1632 21.2903L13.9655 34.238L36.2678 21.3601L13.9422 34.2787L36.826 21.0694L13.1341 34.7728L36.5992 21.2263L13.7911 34.517L36.9364 21.1566L13.948 34.4647L37.0294 21.1391L13.8608 34.6566L37.3608 21.0868L14.0643 34.6042L37.4422 21.1101L13.4422 35.0868L37.2039 21.3717L13.7853 34.9066L37.7969 21.0461L13.6108 35.0519L37.0178 21.5403L13.2794 35.3775L38.0004 21.1042L14.0701 35.0287L37.5585 21.4705L14.1399 35.081L37.5643 21.5519L14.0062 35.1973L38.4539 21.081L13.5934 35.4822L38.2387 21.2554L13.5004 35.6217L37.7853 21.5984L13.826 35.4415L38.1806 21.3833L13.4132 35.7554L38.5353 21.2496L13.8899 35.5287L38.5178 21.3077L13.5876 35.7322L38.7736 21.1915L13.7969 35.7322L38.2562 21.6101L13.4946 35.9763L38.6341 21.4647L13.7387 35.8717L39.2097 21.1682L13.4539 36.1682L39.2097 21.2961L14.1748 35.7554L39.4422 21.1682L14.3957 35.6682L38.7794 21.5926L13.7678 36.1333L39.2097 21.4415L13.9015 36.1915L39.2794 21.5403L13.7562 36.3077L39.1748 21.6333L13.9364 36.2612L39.9422 21.2438L13.5876 36.5926L39.7794 21.4705L13.7097 36.5868L39.8725 21.4821L14.169 36.4531L39.6108 21.767L14.0818 36.5635L39.8201 21.7031L14.5818 36.2961L40.419 21.3775L14.5178 36.3833L40.5469 21.3542L13.7794 36.9008L40.5294 21.4589L14.1515 36.7438L40.8027 21.3542L14.4597 36.5926L40.4132 21.6042L14.5876 36.6508L40.3376 21.7845L14.3608 36.7961L40.5353 21.6798L14.4539 36.7612L40.1922 21.9008L14.6748 36.7263L40.7329 21.6798L14.5992 36.8717L40.5004 21.9182L14.5934 37.017L41.3143 21.5868L14.0934 37.331L41.0469 21.7728L14.4597 37.1798L41.7213 21.4415L14.8085 37.0112L41.0876 21.8368L14.7039 37.1798L41.698 21.5984L14.8725 37.1333L41.6225 21.6915L14.9713 37.174L42.0411 21.5403L14.4422 37.5694L42.0992 21.6042L14.4655 37.6682L41.9887 21.7787L14.919 37.4763L42.4074 21.6042L14.2853 37.8717L42.4132 21.6333L14.5353 37.8252L41.7039 22.1391L14.8841 37.6391L41.8027 22.0984L14.4946 37.9473L42.6515 21.6915L15.2853 37.5345L42.6167 21.7612L14.6457 37.924L42.3201 21.9473L15.1632 37.6449L42.6225 21.7961L14.5818 38.0054L41.9946 22.1798L14.512 38.1798L42.6515 21.9356L15.4946 37.7554L42.6167 22.0926L15.355 37.8601L42.8492 21.9821L14.9946 38.1973L43.2329 21.8949L15.2562 38.1217L43.2562 21.9531L14.9655 38.3077L43.4015 21.8949L14.855 38.5112L43.5585 21.9356L15.5353 38.2322L43.2794 22.2147L14.8608 38.6449L42.9132 22.4531L15.1225 38.5694L43.3841 22.2554L15.8841 38.1798L43.7446 22.0926L15.0876 38.7263L43.8027 22.1508L15.3318 38.6042L43.326 22.4415L15.7213 38.424L43.2446 22.5345L15.6748 38.5694L43.9829 22.2263L15.6574 38.7205L44.4422 22.0984L15.1632 39.0577L44.576 22.0752L16.076 38.5868L44.4771 22.1915L15.5294 39.0112L43.9132 22.6217L15.5294 39.1391L44.5353 22.3891L16.3783 38.7322L44.6167 22.4298L15.5004 39.331L45.0062 22.2961L16.0701 39.0461L45.0236 22.331L16.4887 38.9473L44.8725 22.5577L16.0062 39.3135L44.9539 22.6042L16.3318 39.2496L45.4771 22.4182L16.6167 39.2147L45.0992 22.767L16.7329 39.1915L45.0411 22.8484L16.4597 39.3601L45.4364 22.6275L16.3376 39.4531L45.6399 22.5345L16.3783 39.5519L45.198 22.9182L16.262 39.6333L45.0236 23.0287L16.3783 39.6042L45.512 22.7845L16.9946 39.2903L45.0876 23.0694L16.6574 39.5054L45.5411 22.8252L16.7969 39.4647L45.576 22.8484L16.7504 39.5868L45.8492 22.7845L16.9829 39.4763L46.0294 22.7089L16.8027 39.6508L46.0469 22.767L16.8899 39.6217L45.9829 22.8252L16.8957 39.6973L45.7097 23.0577L16.7853 39.767L45.3667 23.2612L17.2853 39.5635L45.5004 23.2728L17.2155 39.6217L45.5004 23.2903L17.1574 39.7089L46.2213 22.9298L16.6806 40.1042L45.7213 23.3426L17.4015 39.7321L46.076 23.174L17.1167 39.9356L46.5353 22.9531L16.9829 40.1275L46.1574 23.2845L17.0934 40.0984L46.2329 23.2728L17.6283 39.8019L46.8608 22.924L17.1806 40.1217L46.5469 23.1682L17.5585 39.9182L46.4364 23.2496L17.3667 40.1101L46.4073 23.3426L17.8841 39.8601L47.0062 23.0461L17.1574 40.4008L46.4539 23.488L17.6225 40.2205L47.262 23.1101L17.4829 40.3717L46.7678 23.4647L17.6806 40.3077L47.4364 23.1275L17.8376 40.3426L47.4713 23.2321L18.3434 40.0752L47.3899 23.3077L18.1574 40.2496L46.8608 23.674L17.8957 40.5112L46.8492 23.7961L18.5294 40.1915L47.1108 23.6915L17.8201 40.6856L47.6573 23.4589L18.5527 40.3252L47.8318 23.4182L18.6806 40.3252L47.8608 23.4821L18.2387 40.6275L47.1864 23.9124L18.5992 40.4705L47.9422 23.5287L18.1574 40.738L47.5992 23.738L18.5818 40.5112L47.919 23.5752L18.576 40.6508L47.5411 23.924L18.7969 40.5577L47.9887 23.7031L18.8608 40.5345L47.3725 24.0752L18.3376 40.9531L48.1341 23.7496L18.4422 40.9124L48.3667 23.6391L18.0992 41.2438L48.0818 23.9356L18.2562 41.2438L48.1806 23.9705L18.7155 41.0926L48.7271 23.767L18.012 41.6042L48.3434 24.0926L18.3318 41.5403L48.8376 23.9298L18.7155 41.331L48.4713 24.1508L18.8899 41.3659L48.6922 24.1566L18.198 41.8368L48.198 24.517L18.0004 42.0403L49.2446 23.9996L18.512 41.7845L48.3201 24.5752L18.2736 42.0054L48.5178 24.5403L17.9539 42.3077L48.4771 24.6856L18.3143 42.2321L49.0469 24.4821L18.105 42.4705L49.0876 24.5868L18.6399 42.1973L48.9074 24.7205L18.2446 42.4473L49.5701 24.3601L17.9364 42.674L49.3201 24.5519L17.9887 42.6624L49.4306 24.5112L18.3841 42.5403L48.8725 24.9356L18.8434 42.2845L49.1864 24.767L18.4248 42.6101L49.8608 24.4589L17.9364 43.0287L50.0236 24.5054L18.7271 42.6042L49.669 24.738L18.5527 42.7612L49.2853 25.017L18.4422 42.9124L49.4771 24.9938L18.1748 43.0984L50.198 24.6159L18.6341 42.8775L50.0294 24.7496L18.1399 43.1856L49.3027 25.1915L18.7039 42.8659L50.0411 24.7728L18.2853 43.1856L50.0643 24.8368L18.1399 43.3833L49.6573 25.1915L18.4829 43.3135L49.5294 25.3891L18.8201 43.2031L49.7504 25.3426L18.3143 43.5694L50.1167 25.2089L18.0643 43.8252L49.919 25.4356L18.1864 43.8833L50.7155 25.1042L18.8608 43.5926L50.1167 25.5461L17.9539 44.1682L50.105 25.6042L18.6225 43.9008L50.8841 25.2728L18.3434 44.0984L50.6283 25.4589L17.9074 44.4822L51.0934 25.3252L18.2097 44.3891L50.7969 25.5752L18.0004 44.5577L50.3376 25.8891L18.4422 44.3775L50.8841 25.6508L18.4539 44.424L50.5178 25.9124L18.4655 44.4763L50.6748 25.8775L18.448 44.5577L51.1864 25.6566L18.326 44.6973L50.7097 25.9996L18.7213 44.5403L51.0178 25.8891L18.3608 44.8601L50.6167 26.238L18.8027 44.6624L51.3318 25.8775L18.0876 45.1159L50.826 26.2089L17.9713 45.3077L50.9539 26.2612L18.3725 45.1449L51.4887 26.017L18.1167 45.2961L50.8899 26.3775L18.7969 44.9589L50.8667 26.4415L18.8899 45.0403L51.0527 26.4705L18.4887 45.3659L51.1225 26.5228L18.4015 45.5577L51.5294 26.4298L18.0178 45.8135L51.2853 26.6101L18.7911 45.4531L51.9015 26.3368L17.9539 46.0112L51.4132 26.6915L18.8608 45.5752L51.576 26.6915L17.9655 46.2263L52.076 26.5345L18.1283 46.2031L51.4422 26.9705L18.4132 46.0694L51.826 26.7787L18.8608 45.9473L51.948 26.8426L18.2329 46.3601L51.5818 27.1042L17.9248 46.581L51.6864 27.0868L18.3492 46.4647L51.7039 27.2089L18.0353 46.6566L52.1225 26.9763L17.9597 46.7438L51.9887 27.0926L18.4364 46.4938L52.3841 26.8949L18.3434 46.6624L51.7039 27.4008L18.6341 46.5519L52.3667 27.0752L18.5178 46.7205L52.512 27.0926L18.8201 46.5926L52.1864 27.331L17.9364 47.2147L52.1108 27.488L18.4829 46.9531L52.2911 27.4356L18.2329 47.1915L52.8492 27.2089L18.2155 47.331L52.9887 27.2554L18.5178 47.1856L52.6457 27.4821L18.8667 47.0752L52.4829 27.6682L18.605 47.238L52.2097 27.831L18.8143 47.238L52.355 27.8717L18.2329 47.6856L52.6108 27.8368L18.5934 47.6101L53.0585 27.7147L18.3492 47.8426L53.1981 27.7205L18.326 47.8717L52.6748 28.0403L18.2097 47.9705L52.6341 28.0984L18.4306 47.9763L52.5062 28.3077L18.6574 47.8601L52.5876 28.267L18.6515 47.9124L52.6108 28.3077L18.0643 48.2845L53.1864 28.0054L18.4015 48.1508L53.2911 28.0112L18.1922 48.3252L52.7911 28.3484L17.9074 48.5112L52.9946 28.2496L18.1283 48.5112L52.9887 28.3891L17.9364 48.7321L53.4829 28.2089L18.0992 48.7263L53.1283 28.5054L18.7736 48.4008L53.6574 28.2554L18.169 48.8426L52.9015 28.7903L18.4946 48.6856L53.355 28.5635L18.5062 48.7612L53.2446 28.7089L18.1864 49.0461L53.6341 28.581L18.2039 49.0694L53.6748 28.5926L18.5701 48.8949L53.2039 28.9008L17.8957 49.4182L53.3899 28.9298L18.5062 49.1217L53.6864 28.8077L18.1341 49.4589L53.3667 29.1217L18.7678 49.2147L54.0004 28.8775L18.8143 49.2089L53.3783 29.2496L18.0527 49.6915L53.2155 29.3891L18.7155 49.3542L53.2562 29.4124L18.8027 49.3659L54.0469 29.0112L18.1457 49.7961L53.7736 29.2263L18.1341 49.9066L53.9597 29.2263L18.7387 49.5635L53.5236 29.4822L18.105 49.9531L53.2969 29.6333L18.7039 49.7263L53.7213 29.5054L18.605 49.8077L53.9074 29.424L18.8085 49.7438L53.3957 29.7728L17.9887 50.2728L53.8027 29.5926L18.0585 50.2554L53.9074 29.5577L18.8608 49.8775L54.1806 29.4822L18.6574 50.0228L53.7213 29.7787L17.919 50.517L53.8957 29.7438L18.5411 50.2438L53.9132 29.8194L18.512 50.2961L53.9306 29.8484L18.3899 50.488L54.3783 29.7089L18.8957 50.2322L53.4364 30.2903L18.3376 50.581L54.0818 29.9415L18.5643 50.5577L53.7039 30.267L18.5527 50.6856L53.669 30.4124L18.5469 50.8019L53.7329 30.488L18.5004 50.9356L54.169 30.3426L18.262 51.1217L53.9771 30.4996L18.4306 51.1159L53.7213 30.7438L17.9364 51.5228L54.1108 30.6391L17.9132 51.6624L53.8667 30.9066L18.5585 51.3775L54.1167 30.8484L18.5236 51.5228L53.6981 31.2147L18.5469 51.5635L54.262 30.9415L17.9829 51.9531L53.7039 31.331L18.3085 51.8542L54.0062 31.2438L18.5527 51.738L53.8667 31.3484L18.5294 51.8775L54.7097 30.988L18.0585 52.1798L54.3899 31.2031L18.1225 52.2263L54.1981 31.4008L17.9248 52.4066L53.8143 31.6856L18.8376 51.9647L54.7504 31.2322L18.4306 52.2612L54.5062 31.4356L18.0527 52.5577L54.7911 31.3484L18.0876 52.5926L53.9771 31.8717L18.0701 52.6217L54.2853 31.7147L18.8608 52.1682L54.4771 31.6042L17.948 52.7728L54.1167 31.8949L18.6108 52.4298L54.4539 31.738L18.7678 52.4647L54.698 31.7205L18.4829 52.738L54.2678 32.0752L18.7504 52.5984L54.3725 32.0345L18.4713 52.8601L54.1748 32.2438L18.0004 53.2612L54.3201 32.2903L18.0992 53.2787L54.5934 32.2089L18.4655 53.174L54.0585 32.6217L18.4655 53.2961L54.0411 32.7554L17.9887 53.6624L54.6632 32.488L18.5701 53.4356L54.4306 32.7322L18.2213 53.6682L54.7911 32.5519L17.9946 53.8891L54.5585 32.7787L18.5934 53.674L54.012 33.2263L18.4887 53.7554L54.6108 32.9008L18.0062 54.0635L54.0294 33.267L18.4074 53.8484L54.3957 33.0694L18.2853 53.9415L54.3783 33.1042L18.7794 53.7903L53.9655 33.4763L18.5353 53.9763L54.3318 33.3135L17.9655 54.3542L54.2736 33.3949L18.7097 53.9356L54.5236 33.2554L18.2853 54.2612L54.0236 33.6275L17.9074 54.5228L54.7155 33.2728L18.698 54.1508L54.6922 33.3659L18.1806 54.5461L53.9829 33.8775L18.198 54.6624L54.7853 33.5403L18.4655 54.5345L54.7562 33.581L18.2097 54.7089L54.0643 34.0054L18.3725 54.6915L53.9597 34.1449L18.2678 54.8077L54.3783 33.9589L18.4422 54.7321L54.0062 34.2031L18.6515 54.6391L54.4946 33.9415L18.5178 54.7612L54.7969 33.8135L18.5934 54.7612L54.2213 34.1915L17.9015 55.1856L54.1632 34.2496L17.9829 55.1449L53.8783 34.424L18.2736 54.988L53.9306 34.4008L18.1108 55.0926L54.6283 34.0112L18.605 54.9182L53.9655 34.4996L18.7155 54.9008L54.7213 34.1159L18.8376 54.9066L54.4132 34.3659L18.4248 55.1508L54.2329 34.4763L18.0876 55.4531L54.0004 34.7205L18.2329 55.4473L54.1748 34.6973L18.0876 55.6333L54.3434 34.7031L18.1225 55.6391L54.4248 34.6798L18.8492 55.3601L54.2446 34.924L17.9306 56.0287L54.605 34.8542L18.6806 55.6915L54.5236 34.9996L18.3027 55.9647L53.8841 35.424L18.7504 55.831L53.9597 35.5054L18.2504 56.1624L53.6864 35.7031L18.7039 55.9473L54.2213 35.4415L18.3608 56.1856L53.9364 35.6449L18.6167 56.1333L53.5585 35.9589L18.7794 56.0694L53.4946 36.0287L18.762 56.1798L53.9713 35.8542L18.7853 56.2554L53.6922 36.1042L18.0992 56.6682L54.2853 35.7728L18.6748 56.4008L53.9597 36.0287L18.326 56.6973L53.5469 36.3601L18.0934 56.9298L53.9074 36.2554L18.8085 56.5635L53.6864 36.424L18.3492 56.8542L53.8492 36.3601L17.9597 57.0984L53.3143 36.6856L18.5353 56.7845L53.7794 36.4356L18.7387 56.7089L53.9015 36.4066L18.8899 56.7554L53.1864 36.9531L18.448 57.0752L53.4887 36.8426L18.7155 56.9473L53.2097 37.0345L18.0701 57.3252L52.8376 37.2496L17.9597 57.4008L53.2039 37.0519L18.2911 57.2496L53.1225 37.1391L18.8899 56.9822L53.1806 37.1856L18.3608 57.4066L53.0294 37.3891L18.8201 57.2031L52.5701 37.7205L18.7155 57.3833L52.4713 37.8949L17.9306 57.9182L52.5294 37.9415L18.0353 57.9705L52.0353 38.3368L18.1167 57.988L52.6341 38.0577L18.6515 57.7554L52.1167 38.4356L18.8201 57.7787L49.6748 39.9647L18.4887 58.0461L49.3841 40.2089L18.0934 58.4066L49.7039 40.1566L18.6806 58.1915L49.9771 40.1217L18.4887 58.3426L49.448 40.4705L18.3899 58.4415L50.0818 40.1449L18.855 58.2089L49.4829 40.5228L18.4946 58.4356L49.7387 40.3949L18.1341 58.674L49.1864 40.7438L18.8027 58.4066L49.762 40.5345L18.4248 58.6973L49.5701 40.7147L18.1806 58.8717L49.7969 40.6159L18.8725 58.5345L49.3492 40.9356L18.6167 58.7729L49.2562 41.081L18.2736 59.0694L49.4829 41.0519L18.3085 59.174L49.512 41.1566L18.262 59.2787L49.7039 41.1275L18.7039 59.1159L49.1457 41.5403L18.7446 59.174L49.9248 41.1682L18.2446 59.5287L49.5992 41.424L19.1167 59.0519L49.4539 41.5345L18.2387 59.6275L49.2504 41.7205L19.0236 59.1856L49.7911 41.424L19.169 59.2322L49.9422 41.4647L19.2387 59.2845L49.762 41.6624L18.4074 59.8601L49.6399 41.831L19.1922 59.5345L50.076 41.7031L18.9539 59.8077L50.0469 41.8542L19.1225 59.8194L49.5876 42.2321L19.0178 59.9182L49.8492 42.1159L19.2911 59.8136L49.6922 42.2612L18.8201 60.1391L50.0934 42.0868L19.1399 60.0926L49.4248 42.6042L19.2387 60.1101L49.8492 42.4356L18.9713 60.3019L49.1864 42.8542L18.919 60.3775L49.3085 42.831L18.8783 60.4531L49.7969 42.6042L18.7853 60.581L49.4306 42.8891L18.8608 60.6508L49.2911 43.081L19.0004 60.6391L49.6748 42.9298L18.8027 60.8601L50.0178 42.8368L19.3434 60.5868L49.4946 43.1798L19.2504 60.7147L49.2329 43.4008L19.4132 60.6624L49.5236 43.2787L19.169 60.831L49.1922 43.4996L19.9132 60.5054L49.9306 43.174L19.2794 60.9182L49.9539 43.2089L19.2969 60.9647L49.2678 43.6624L19.1225 61.1508L49.9597 43.3484L19.9539 60.7903L49.6283 43.6566L19.6167 61.0461L49.9306 43.5461L19.2097 61.3019L49.7039 43.6973L19.2329 61.3601L49.8201 43.7031L19.4887 61.2322L49.2678 44.0403L19.6399 61.2438L49.8434 43.8077L19.4539 61.4415L50.0469 43.7787L19.7504 61.3019L49.7213 43.9996L19.9248 61.2961L49.4073 44.2728L19.9074 61.3891L49.8608 44.0984L19.6806 61.6566L49.3376 44.5345L20.0643 61.4763L49.6632 44.3891L19.826 61.7205L49.5294 44.5694L20.2446 61.488L49.5992 44.5403L20.6748 61.3601L49.198 44.8949L20.7387 61.4531L49.9248 44.6042L20.4713 61.6973L49.5818 44.8891L20.3085 61.8833L49.7329 44.8949L20.1515 62.1101L49.6632 45.0694L20.0469 62.2322L49.8318 45.0345L21.0411 61.7612L49.7039 45.2147L20.198 62.3019L49.169 45.5752L20.6341 62.1159L50.0353 45.1391L20.8841 62.0868L49.5527 45.5345L20.4829 62.3891L49.5643 45.5984L20.7155 62.2903L49.7853 45.5054L20.669 62.4182L49.5062 45.767L20.6864 62.4415L49.8376 45.6101L21.1515 62.3077L49.0934 46.174L21.6341 62.1449L49.7387 45.9182L21.6167 62.1973L49.5701 46.0577L21.2911 62.4531L49.2853 46.2903L21.9015 62.2089L49.0876 46.5112L21.8492 62.3659L49.2097 46.5694L21.7329 62.5635L49.7504 46.3891L21.6457 62.6798L49.9713 46.3252L21.3841 62.9008L49.3085 46.7787L21.4597 62.924L49.7504 46.5926L21.5178 62.9589L49.8841 46.581L22.1108 62.6973L49.9829 46.6042L22.4015 62.6217L49.6225 46.9066L22.3085 62.7554L49.855 46.8542L21.9074 63.0461L49.4422 47.1508L22.3201 62.8775L49.855 46.9822L22.9539 62.6042L49.9306 47.0287L22.3318 63.0868L49.169 47.5926L22.6108 63.0519L50.0178 47.2263L22.9248 62.8949L49.2504 47.6973L23.0062 62.9705L49.2213 47.8368L23.6341 62.674L49.9015 47.5112L23.3434 62.9415L49.5527 47.8077L23.5992 62.831L50.0818 47.5403L23.669 62.8135L49.7155 47.7728L23.6283 62.8949L49.7039 47.8426L23.6108 63.0054L49.4829 48.0694L24.2387 62.7322L49.1748 48.3368L23.9713 62.9008L49.1574 48.3601L24.3899 62.7089L49.7562 48.0635L23.9771 63.0752L49.2678 48.4763L24.2853 62.9124L49.9713 48.081L24.3027 62.9705L49.5294 48.4066L24.7155 62.7787L49.2678 48.6042L24.4306 63.0229L49.4829 48.5577L24.2736 63.1333L49.1283 48.7845L24.605 63.0345L49.0876 48.9008L24.9422 62.8659L50.0818 48.3484L25.2155 62.7205L50.0585 48.3775L24.8376 62.9763L49.5411 48.7147L24.5353 63.1915L49.8841 48.5577L25.1632 62.8484L49.5992 48.738L25.2039 62.9298L49.698 48.7845L25.1399 63.0403L49.8143 48.7961L25.9248 62.7205L49.9364 48.8542L25.1922 63.2438L49.8725 48.9938L25.698 63.0229L49.198 49.4531L26.2678 62.7961L49.4713 49.4008L25.9597 62.988L50.0062 49.1042L26.2562 62.8833L49.855 49.2612L26.5004 62.8019L49.6573 49.4298L26.6341 62.8426L49.2387 49.7903L26.3318 63.1101L49.2504 49.8775L27.0818 62.7554L49.7329 49.6798L26.698 63.1101L49.0818 50.1856L27.3608 62.8077L49.2736 50.1566L27.2387 62.9589L49.6341 50.0287L27.7562 62.7903L49.4539 50.2612L27.0004 63.238L49.8201 50.0635L27.3899 63.0926L50.0353 50.017L28.0062 62.8484L49.3725 50.5112L28.1225 62.9182L49.2097 50.7438L27.7562 63.2496L49.9771 50.4182L28.1748 63.017L49.5527 50.674L28.1457 63.0984L49.4073 50.8252L29.0469 62.7147L50.0411 50.5926L29.0876 62.7147L49.2387 51.081L28.8492 62.9473L49.7213 50.8949L28.8725 63.0694L50.0643 50.831L29.7213 62.7089L49.3376 51.3833L29.5469 62.8659L49.5818 51.2961L29.698 62.8077L49.448 51.4008L29.6632 62.9356L49.8783 51.2612L29.5701 63.0519L49.4887 51.5519L29.5876 63.1624L49.8725 51.4531L29.8376 63.0752L49.2446 51.8717L29.8434 63.2089L49.8841 51.6391L30.3201 63.0403L49.2329 52.1217L30.0527 63.2089L49.1283 52.1973L30.8899 62.7903L49.1457 52.2496L31.0411 62.8368L49.1457 52.3833L30.9364 62.9996L49.1457 52.488L31.3085 62.831L49.4422 52.3601L31.0469 63.0461L49.5004 52.3949L30.948 63.2147L50.0818 52.1682L31.6457 62.8949L49.8318 52.3949L31.3725 63.1566L50.0818 52.3542L31.6457 63.0112L49.5004 52.7031L31.7039 63.1101L49.0934 53.0694L32.1515 62.9705L50.0818 52.6159L31.9597 63.1508L50.0294 52.7147L31.9946 63.2147L50.0643 52.7845L32.3957 62.9938L49.2213 53.2787L32.7736 62.8077L49.7678 52.9996L32.0469 63.2496L49.4771 53.1856L33.1399 62.6915L49.8608 53.0403L32.4771 63.174L49.3318 53.4415L33.2969 62.7438L49.5643 53.3484L32.9946 62.9356L49.2446 53.5577L33.3318 62.8833L50.076 53.2147L33.1806 63.081L49.3841 53.7263L33.6457 62.924L49.3783 53.8426L33.9015 62.7961L49.9771 53.517L33.326 63.1915L49.9132 53.6159L33.5294 63.1217L49.6341 53.8194L34.1341 62.8717L49.5876 53.9473L33.855 63.0635L49.9713 53.7612L34.4364 62.8426L49.1225 54.3659L34.3667 62.9822L49.9306 53.9938L34.4248 63.081L49.8201 54.1915L34.9364 62.8542L49.3841 54.5112L34.5469 63.2089L49.7678 54.424L34.9655 62.9996L49.1457 54.8135L35.2678 62.9298L49.5876 54.6624L35.1457 63.1042L49.8376 54.6217L35.3027 63.1508L49.4248 54.9996L35.3376 63.174L50.0062 54.7031L36.0934 62.7438L49.3143 55.1101L36.012 62.9008L49.9713 54.8426L35.7911 63.1042L49.0876 55.4298L36.5236 62.8077L49.105 55.5461L36.1167 63.1217L49.2271 55.5519L37.076 62.6973L49.2329 55.6798L36.8143 62.9066L49.9887 55.3019L36.605 63.0577L49.6108 55.5461L36.7794 63.0403L49.5294 55.6798L37.3376 62.8368L49.2387 55.9647L37.0004 63.1449L49.3841 55.9938L37.1341 63.0752L49.262 56.0752L37.1283 63.2205L49.3608 56.1566L37.7213 62.9589L50.0062 55.8659L38.0934 62.7787L49.9422 55.9356L37.6806 63.0577L49.2853 56.3542L38.2504 62.7322L50.0585 55.9182L37.4248 63.2496L49.4771 56.2903L38.4364 62.6915L49.3608 56.3833L37.698 63.2496L49.8376 56.238L37.9422 63.1449L50.0353 56.1624L38.6632 62.7903L49.669 56.4356L38.8899 62.674L50.0294 56.2438L38.8143 62.7554L49.4248 56.6275L38.9306 62.7496L50.0178 56.3484L38.7562 62.9473L49.7853 56.581L39.2329 62.7496L49.4887 56.8252L38.8143 63.0519L49.1922 57.0635L39.5527 62.7438L49.7213 56.8717L39.6864 62.8019L49.4539 57.1624L39.1341 63.238L49.1864 57.4356L39.4829 63.1217L49.2271 57.4938L40.1515 62.8659L49.826 57.2787L40.262 62.8542L49.8492 57.3194L40.3085 62.9066L49.6225 57.5287L40.8899 62.6915L49.0353 57.988L40.5876 62.9182L49.5294 57.7554L40.9364 62.7903L49.6457 57.7612L40.7853 62.9822L49.198 58.1275L40.8376 62.9938L49.262 58.1333L41.2387 62.8601L49.0818 58.331L41.1225 63.0403L49.3143 58.3077L41.4946 62.8484L49.8492 58.0287L41.0992 63.2147L49.448 58.3949L42.169 62.7322L49.7911 58.331L41.9132 62.9938L48.9364 58.9415L42.0353 62.9473L49.6167 58.5694L42.512 62.6915L49.6573 58.5635L42.3376 62.8659L49.4655 58.7496L42.5992 62.767L49.6864 58.674L42.3376 62.9996L49.1922 59.0403L42.8027 62.8194L49.198 59.1275L42.5643 63.0577L49.5818 59.0054L42.8201 62.9298L49.3725 59.1449L43.2155 62.8135L48.8027 59.5868L43.012 62.9647L49.0585 59.4763L43.2329 62.9589L49.0294 59.6101L43.4306 62.8833L49.0353 59.6449L42.9655 63.2089L48.9597 59.7496L43.1573 63.1275L49.0353 59.7322L43.2911 63.1101L48.2097 60.267L44.1806 62.6275L48.1108 60.3601L44.3899 62.6391L48.6922 60.1566L44.2446 62.8019L48.7562 60.1973L44.0876 62.924L48.3841 60.4415L44.0469 62.9763L48.2504 60.5519L44.355 62.9124L47.5411 61.0752L44.9306 62.6333L48.2039 60.7438L45.1632 62.5112L48.1806 60.7728L44.8608 62.7438L48.0701 60.8891L44.9655 62.7031L47.355 61.3252L45.1283 62.6449L47.0062 61.5577" stroke="#FCDEA2" stroke-width="0.3" stroke-linecap="round" stroke-linejoin="round"/>
</svg>
