<svg width="84" height="84" viewBox="0 0 84 84" fill="none" xmlns="http://www.w3.org/2000/svg">
<path d="M67.5699 68.0326L73.0266 64.8799L67.8896 67.9334L73.0817 64.935L67.9944 67.8838L72.7179 65.1555L67.9778 67.9224L72.9053 65.0783L67.6416 68.22L72.1888 65.5964L67.8345 68.198L72.1778 65.6901L67.829 68.3137L72.3376 65.7122L68.7329 67.9113L71.8305 66.1255L68.4959 68.0657L71.9132 66.0925L68.4077 68.1869L71.7423 66.2633L68.6117 68.1428L71.6156 66.4066L68.7605 68.0657L71.7754 66.324L68.7054 68.1153L71.9738 66.2247L68.7715 68.1208L72.4368 66.0043L69.2124 67.9389L71.9904 66.335L69.3943 67.9334L71.2187 66.8806L69.4605 67.9224L71.5053 66.7429" stroke="#FFD983" stroke-width="0.3" stroke-linecap="round" stroke-linejoin="round"/>
<path d="M56.4092 52.0389L57.732 51.2783L56.2935 52.1437L57.1037 51.6752L55.6872 52.6122L57.0541 51.824L55.2517 52.9704L57.6604 51.576L55.6431 52.794L57.3958 51.7854L55.2021 53.1358L57.9801 51.5319L54.8714 53.4003L58.1123 51.5263L55.3454 53.1854L57.3462 52.0279L55.1084 53.4059L58.1619 51.6421L54.6785 53.731L57.7155 51.9783L54.2266 54.0783L57.506 52.1822L54.0943 54.172L57.8533 52.0004L54.0006 54.2657L58.0407 51.9342L53.7581 54.5358L58.2556 51.9397L53.3392 54.8554L57.7927 52.287L53.262 55.0153L57.7265 52.4358L53.1132 55.1696L57.9966 52.3476L53.3116 55.0869L58.206 52.2594L53.014 55.368L58.6856 52.0941L52.788 55.5224L58.6415 52.1437L52.9589 55.4397L58.1289 52.4523L52.4573 55.82L58.2832 52.4578L52.6998 55.7979L58.6525 52.3586L52.325 56.1397L58.5092 52.5681L51.6305 56.5641L58.8068 52.4193L52.3911 56.1562L58.2942 52.75L51.6801 56.5861L58.6249 52.5791L51.6305 56.6853L58.5753 52.6728L51.2116 57.016L58.3273 52.9098L51.1069 57.0932L58.2336 52.9759L51.0132 57.22L59.1485 52.524L51.1455 57.2255L58.4651 52.998L51.4872 57.0381L58.3052 53.1027L50.8975 57.4074L58.3273 53.1192L51.4982 57.1814L59.2533 52.7059L51.5975 57.1593L59.0438 52.8602L51.3274 57.3688L58.4706 53.246L51.1565 57.5286L58.8289 53.0972L51.0463 57.6168L59.0769 52.9814L51.8841 57.2586L58.7848 53.2736L51.4211 57.6058L59.3415 53.0311L51.851 57.3633L58.5974 53.4665L51.1345 57.8428L58.6745 53.4885L51.4652 57.7491L59.4021 53.1633L51.2612 57.8869L58.8674 53.494L51.2723 57.92L59.4186 53.2185L51.7077 57.7601L59.132 53.4775L52.0604 57.6223L59.4407 53.3618L51.3935 58.0247L59.5895 53.2901L51.6856 57.9586L59.7328 53.3122L52.2258 57.6609L59.7493 53.3177L51.8455 57.9696L59.7328 53.4169L51.851 58.0963L59.4737 53.698L52.2258 57.9365L59.854 53.5326L52.4683 57.9034L59.7824 53.6814L52.2974 58.0247L59.9863 53.5822L51.9502 58.3278L59.3249 54.0673L52.4628 58.157L59.3855 54.161L51.9557 58.4987L60.1186 53.7862L52.4518 58.2562L59.6005 54.1279L52.0494 58.5152L60.2399 53.7862L52.7439 58.2121L59.5674 54.2712L52.9809 58.179L60.317 53.946L52.5896 58.4822L60.3336 54.0121L53.1022 58.3168L59.832 54.431L53.1959 58.3885L60.6808 54.0673L52.6502 58.7302L60.4107 54.2491L53.1848 58.4381L60.7084 54.0948L53.014 58.6255L60.2068 54.4751L53.0636 58.642L59.9257 54.6791L52.8486 58.8129L60.1351 54.6074L52.8817 58.9121L60.5596 54.4806L53.262 58.7963L60.5706 54.5799L53.499 58.6916L60.295 54.7673L53.036 58.9892L60.5871 54.6295L53.4825 58.7357L60.1241 54.8995L53.3557 58.8625L60.3777 54.8113L53.2565 59.0444L60.6477 54.7783L53.3557 59.0168L60.6863 54.7838L53.2675 59.1215L61.0942 54.6019L53.4714 59.0609L60.4162 55.0539L52.9258 59.4467L60.5651 55.0373L53.2455 59.2869L61.1769 54.7066L53.6203 59.1766L60.5099 55.1972L53.0195 59.5294L60.6863 55.1035L53.0966 59.5514L61.3973 54.7617L53.3722 59.5129L61.3202 54.9216L53.6644 59.4137L61.1879 55.0704L54.0612 59.2483L60.6643 55.4397L54.0612 59.3751L61.3257 55.1806L53.9785 59.4522L61.3312 55.2082L54.0281 59.4357L60.9509 55.4397L53.9565 59.5955L61.1769 55.4287L54.2486 59.5404L61.6233 55.2798L53.6809 59.8766L61.4084 55.4176L54.2486 59.6727L61.706 55.368L54.3313 59.7168L61.243 55.7263L54.4415 59.7444L61.254 55.8145L54.2872 59.9593L61.9209 55.5554L53.7691 60.2845L61.965 55.5499L54.4691 59.9042L61.3367 55.9413L54.3864 60.0475L61.6399 55.8586L54.5958 60.0475L62.202 55.6546L53.8793 60.5105L61.8493 55.9082L54.6895 60.1192L62.0477 55.8696L54.7226 60.2184L61.9099 56.068L54.4746 60.4443L62.0422 56.0735L54.188 60.6317L62.1028 56.0625L54.2266 60.7365L62.2682 56.0956L54.3754 60.6758L62.1965 56.1617L54.9541 60.3892L62.2076 56.2003L54.436 60.7695L62.5272 56.0956L54.7171 60.6703L61.8162 56.5696L55.0423 60.5105L62.6154 56.1397L55.0754 60.6152L61.9154 56.6633L54.5021 61.0176L62.4501 56.4318L54.662 60.9459L62.0918 56.6578L55.2517 60.6758L62.2131 56.6578L54.8273 61.0396L62.6926 56.4979L55.2076 60.9404L62.395 56.7901L54.9431 61.1884L62.4391 56.8617L55.5218 60.8908L62.9572 56.5972L55.5273 60.979L62.3123 57.0601L55.5384 61.0782L62.8304 56.8672L55.7037 61.0892L62.6926 57.0546L55.4336 61.2876L63.2052 56.8011L55.2242 61.5357L63.2879 56.8782L55.9517 61.205L63.2658 56.983L55.3565 61.6184L63.0729 57.1649L55.8635 61.3483L63.332 57.0381L55.384 61.7176L63.4587 57.0546L55.3234 61.8498L62.9792 57.4294L56.1722 61.431L63.6902 57.0932L55.7202 61.7176L63.0839 57.468L55.8635 61.7231L63.0564 57.5672L55.4998 62.0372L63.2217 57.5782L55.9958 61.8333L63.6792 57.3964L56.3982 61.69L63.7068 57.4735L55.7754 62.1805L63.9383 57.468L55.7974 62.1916L63.1721 57.931L56.095 62.0428L63.806 57.5893L56.5635 61.8333L63.9658 57.5617L56.5746 61.8388L63.9713 57.5672L55.9572 62.2081L63.6406 57.7712L56.4037 61.9766L63.4698 57.8979L55.9793 62.2687L63.8335 57.7326L56.5084 62.0317L63.58 57.9475L56.2549 62.2687L63.6902 57.9751L56.5746 62.153L64.3186 57.683L56.321 62.4176L63.5579 58.2397L56.5635 62.3239L64.4178 57.7877L56.4753 62.4065L63.6627 58.2562L56.2163 62.5884L63.9548 58.1184L56.8777 62.2853L64.5004 57.8814L56.1722 62.7152L64.3682 57.9861L56.3761 62.649L64.1477 58.1625L56.5801 62.627L64.4178 58.1019L56.6021 62.7427L63.8721 58.5428L57.0596 62.5994L64.4012 58.3609L56.6462 62.9577L64.0485 58.6861L56.6572 62.9632L64.1642 58.631L56.9714 62.842L64.3957 58.5538L56.7234 63.0128L64.0816 58.7633L56.6297 63.1947L64.7319 58.5208L57.5005 62.8254L65.0737 58.4546L56.7013 63.3049L64.98 58.5263L56.8116 63.3711L64.3461 59.0223L57.6383 62.9963L64.7044 58.9176L57.032 63.4317L64.8697 58.9066L57.1312 63.4152L65.2611 58.7192L57.236 63.4538L64.7044 59.1436L57.6549 63.2884L65.1508 58.9617L57.1368 63.7183L64.9249 59.2207L57.236 63.6797L64.8587 59.2759L57.1588 63.7569L64.6052 59.4577L57.1974 63.7569L65.4044 59.0168L57.3407 63.7569L65.3934 59.1105L57.71 63.6522L64.9689 59.4633L58.1509 63.4593L65.2611 59.353L57.4619 63.9443L65.0957 59.5404L57.6163 63.9112L65.1012 59.59L57.495 64.0104L65.1674 59.579L57.6108 64.049L65.7902 59.3255L58.3824 63.6963L65.6414 59.5018L57.6493 64.2034L65.4485 59.7003L57.7816 64.1317L65.4926 59.6782L57.6549 64.264L65.6689 59.6341L58.3052 63.9112L65.4264 59.7995L58.5863 63.8561L65.7847 59.7003L58.4265 64.0325L66.1044 59.5955L58.6415 63.9443L65.5146 59.9759L57.8037 64.4404L65.7737 59.8381L57.9194 64.4955L65.3878 60.1853L58.0738 64.4183L66.2311 59.7058L58.3383 64.3522L66.3248 59.7388L58.5367 64.3246L65.6524 60.2129L58.2777 64.512L65.5863 60.2955L58.1509 64.7159L66.0658 60.1467L58.8785 64.3356L66.5343 59.9152L58.5863 64.523L65.8453 60.3341L58.3052 64.738L66.5784 59.9648L58.884 64.4293L66.3744 60.1026L58.2556 64.9089L66.1099 60.3727L58.9611 64.6112L66.0768 60.505L59.121 64.6498L66.2146 60.5546L58.4871 65.0797L66.2532 60.5987L58.6745 65.0687L67.5154 59.9648L59.3029 64.7435L68.4083 59.4853L59.1871 64.8207L68.0941 59.6782L59.1761 64.9419L68.05 59.816L58.7462 65.2616L68.3587 59.7113L59.5399 64.8923L68.7114 59.5955L58.9942 65.2341L68.4083 59.7995L59.6501 64.953L69.2791 59.3916L59.6281 65.0356L69.4886 59.342L59.2753 65.3498L68.9705 59.7499L59.4517 65.3608L69.0531 59.816L59.4737 65.3718L69.2185 59.7444L59.5895 65.3663L69.9736 59.3696L59.7824 65.3333L69.472 59.7388L59.7548 65.4766L69.6319 59.7719L59.6391 65.5592L69.9681 59.5955L59.821 65.4766L69.9516 59.6286L59.6115 65.7026L69.9295 59.7444L59.5178 65.8734L70.1224 59.7499L60.2619 65.4711L70.139 59.7664L60.2509 65.5592L70.2768 59.7719L59.8981 65.8183L70.0563 59.9538L59.8871 65.9396L70.7177 59.6837L60.1682 65.8073L70.8334 59.6507L59.6501 66.2207L70.6075 59.8932L60.4824 65.8459L70.3815 60.1302L59.854 66.3033L70.376 60.2294L60.1903 66.2427L70.9823 60.0089L60.6257 66.0718L71.1917 59.9703L60.1627 66.3474L70.5689 60.3396L59.81 66.601L71.3846 59.9207L59.8651 66.6726L71.1476 60.1577L59.7218 66.871L71.4893 60.0751L59.9037 66.7884L71.5665 60.053L59.6777 67.0033L71.6823 60.0751L60.0194 66.86L71.5169 60.2239L59.8761 67.0805L71.4177 60.4168L59.8596 67.1687L71.9137 60.2073L60.08 67.0695L71.5555 60.4443L59.347 67.6151L71.2578 60.7365L59.5344 67.5931L71.3185 60.7861L59.3745 67.7088L71.4563 60.7365L59.2533 67.8852L72.0185 60.516L59.2974 67.8687L71.5389 60.8026L59.0604 68.1002L71.7815 60.753L59.3084 68.023L72.0295 60.6758L59.38 68.0726L71.4508 61.1002L59.1375 68.238L71.583 61.0506L58.9336 68.4198L72.283 60.7089L59.1871 68.3757L72.0074 60.9735L59.2918 68.4088L71.9909 61.0782L58.9391 68.6568L71.8972 61.1774L59.1485 68.6624L72.5862 60.9073L58.9336 68.8387L72.6082 60.9404L59.1706 68.7946L72.0846 61.3373L59.5399 68.6017L71.8145 61.5136L59.0769 68.9655L71.8752 61.5743L59.6666 68.6513L72.6137 61.1774L58.9226 69.1694L72.046 61.5908L59.2533 69.0096L72.5972 61.3042L59.0052 69.219L72.6854 61.3207L59.5509 68.9104L72.8342 61.238L59.4131 69.1033L72.0019 61.8333L59.0934 69.3183L72.8728 61.3593L59.1541 69.3183L72.8618 61.4034L58.917 69.5608L72.8066 61.5412L59.3911 69.4009L72.3437 61.9215L59.1761 69.5994L72.983 61.6294L59.4572 69.4946L72.6413 61.8829L58.9722 69.7812L73.0106 61.6735L59.1044 69.7316L72.1397 62.2081L59.132 69.7427L72.9114 61.7892L59.7934 69.3899L73.0437 61.7396L59.832 69.4505L72.5641 62.0979L59.2533 69.8419L72.8838 61.9711L59.2092 69.8915L72.3326 62.3183L59.3415 69.9356L72.7295 62.2081L59.9257 69.682L72.272 62.5553L59.2037 70.2277L72.8618 62.3404L59.0769 70.3765L72.8122 62.4451L59.8926 69.919L72.9555 62.379L59.6115 70.1175L72.7129 62.5498L59.6611 70.1285L73.2035 62.3073L59.843 70.0844L72.746 62.638L59.7493 70.2497L72.6523 62.7979L59.9312 70.2167L73.3082 62.4947L59.8651 70.3104L72.9389 62.7593L59.6611 70.4537L72.6413 62.9632L59.7603 70.5033L72.5421 63.1231L59.2974 70.8615L73.0492 62.9246L59.3084 70.8891L73.0437 62.9577L60.2454 70.4096L72.6468 63.2498L59.5785 70.856L73.3578 62.9026L59.821 70.7623L72.7295 63.3105L59.4407 71.093L72.8342 63.3601L60.08 70.7403L73.0822 63.2333L59.5785 71.1647L73.1704 63.316L59.584 71.1978L73.3082 63.2719L60.1407 70.8891L72.6523 63.6632L59.9698 71.0159L73.0877 63.4427L60.4714 70.8064L73.3854 63.349L60.1462 71.0434L72.7791 63.7514L60.1241 71.1316L73.0988 63.6412L60.1021 71.2474L73.1429 63.7183L60.543 71.1096L72.52 64.1923L59.9698 71.4733L72.5421 64.2144L60.6643 71.1812L72.7846 64.1813L60.0029 71.6277L72.6192 64.3412L60.5651 71.319L72.7956 64.2585L60.0745 71.6442L72.7791 64.3081L60.0084 71.7544L72.7736 64.3852L60.4824 71.6056L72.3988 64.727L60.1351 71.8978L72.3492 64.8482L60.8406 71.5395L73.0271 64.5065L61.006 71.545L73.1925 64.5065L60.6753 71.7434L72.6799 64.8152L60.7029 71.8371L72.5917 64.975L60.8958 71.8261L68.1106 67.6592L61.3036 71.6001L68.6343 67.3671L61.2871 71.6883L68.6894 67.4112L60.7029 72.1292L68.4413 67.6647L61.3863 71.8702L67.9453 68.0836L60.8958 72.2229L68.7059 67.7143L61.0721 72.245L68.513 67.9513L61.0391 72.3663L68.2099 68.2269L60.9178 72.4544L68.6894 67.9679L61.1824 72.3387L68.0169 68.3923L61.1438 72.4379L67.9563 68.508L61.5406 72.245L67.7799 68.6403L61.2265 72.4324L67.9894 68.5301L61.6564 72.3111L68.0776 68.6017L61.9595 72.2009L68.1933 68.6017L61.8989 72.3442L67.8075 68.9324L61.728 72.5316L68.2099 68.7891L61.6454 72.6088L68.05 68.9104L61.695 72.708L67.7469 69.2135L61.6123 72.8237L68.4248 68.8939L61.728 72.8182L68.5791 68.8608L62.0753 72.6639L68.039 69.219L62.5713 72.4434L68.3201 69.1253L62.7863 72.4269L67.9563 69.4395L62.0808 72.9174L68.0721 69.456L62.4335 72.7962L68.1437 69.5001L62.2957 73.0001L67.813 69.8143L62.9131 72.7411L67.7083 69.9742L62.9516 72.7962L67.565 70.134L63.1335 72.7025L68.2319 69.7592L63.3595 72.5922L68.1933 69.7978L63.5359 72.5922L67.3445 70.393L63.5028 72.6473L68.0225 70.0403L63.3705 72.8017L67.7083 70.2993L63.7674 72.6694L67.1681 70.7072L63.7839 72.708L67.2618 70.7017L63.9052 72.6473L67.0579 70.8285L63.9052 72.7686L67.6807 70.586L63.6847 72.945L67.6587 70.6521L64.7595 72.4489L66.9146 71.2088L64.6493 72.5757L66.6004 71.4513" stroke="#FFD983" stroke-width="0.3" stroke-linecap="round" stroke-linejoin="round"/>
<path d="M23.2233 29.7337L30.9893 25.2471L24.0445 29.2652L30.9232 25.2967L24.0666 29.3644L31.4633 25.0928L23.3996 29.8329L31.2704 25.2912L24.0114 29.5738L31.6893 25.1424L23.6201 29.8163L31.5295 25.2526L23.5209 29.9321L31.0995 25.5558L24.1107 29.6234L31.0444 25.6219L24.2374 29.6124L31.2098 25.5833L24.0059 29.7612L30.9838 25.7321L24.1492 29.7667L31.1436 25.7266L23.9784 29.888L31.5846 25.5006L23.6477 30.2022L31.3145 25.7762L23.791 30.1636L31.7554 25.5668L23.8406 30.2132L31.6893 25.6825L23.8075 30.2848L31.2153 26.0077L23.9177 30.2352L31.8271 25.666L24.276 30.147L31.7554 25.8313L23.9618 30.3455L31.4303 26.0353L24.502 30.0589L31.8051 25.8424L24.05 30.3675L31.6121 26.0022L23.8847 30.5108L31.6617 26.0243L24.1933 30.4612L31.6342 26.1676L24.0941 30.5549L31.772 26.1235L24.0776 30.6486L31.9208 26.118L24.7776 30.3179L31.7114 26.3164L24.8106 30.4116L31.6948 26.4376L24.8327 30.4171L31.9373 26.3164L24.9429 30.4833L31.8491 26.4983L24.3587 30.8801L31.9153 26.5203L25.1414 30.4392L32.0365 26.4597L25.1303 30.5714L32.4995 26.3164L24.7555 30.8746L32.02 26.6802L24.7996 30.8691L32.4995 26.4266L24.965 30.8085L32.3452 26.5479L24.7004 31.0896L32.6759 26.4817L25.3508 30.8305L32.6814 26.5975L25.2075 31.0234L32.7145 26.6912L25.4941 30.9297L32.5161 26.8731L25.2295 31.1888L33.2271 26.5754L25.1634 31.3596L32.483 27.1321L25.6043 31.2329L33.3869 26.7408L25.6429 31.2384L33.3814 26.7683L25.2902 31.4588L33.3208 26.8235L25.7807 31.2218L33.2546 26.9061L25.7917 31.2218L32.9735 27.077L25.7807 31.3431L33.3428 26.9778L25.2791 31.6628L33.4586 26.9392L25.676 31.4423L32.6428 27.4187L25.7697 31.3982L33.4696 26.9502L26.0122 31.2714L33.1995 27.1211L25.3453 31.773L33.4916 27.0715L25.8634 31.6077L33.0231 27.4738L25.9846 31.5801L33.4365 27.2754L26.0012 31.6132L33.5192 27.2699L25.5272 31.9439L33.7397 27.1983L25.5933 32.021L33.1389 27.6612L25.5162 32.1588L33.0838 27.788L25.7091 32.1092L33.7176 27.4849L26.3429 31.8006L33.1665 27.8597L26.3705 31.9108L33.9657 27.529L26.4256 31.9935L33.8995 27.6778L26.4531 32.01L33.6349 27.8652L26.6736 31.9163L33.3814 28.0416L26.0949 32.3021L33.6846 27.9203L26.2988 32.3132L34.0483 27.8376L26.3319 32.3187L33.7176 28.0526L26.6075 32.2415L33.8664 28.0526L26.3264 32.4895L33.7562 28.1959L26.9216 32.1643L34.0704 28.036L26.8831 32.2856L33.905 28.229L26.6516 32.5336L34.1751 28.1904L26.398 32.7486L34.2412 28.2234L26.4807 32.7431L33.872 28.477L26.2823 32.9195L34.4176 28.2234L26.85 32.721L34.7593 28.1573L26.613 32.9029L34.8255 28.1628L27.3516 32.5777L34.7704 28.2951L26.8776 32.9691L34.1751 28.7526L26.7949 33.0407L34.1751 28.7801L27.302 32.8258L34.7979 28.499L27.3571 32.9195L34.82 28.6093L27.6437 32.8092L34.8641 28.6368L27.0043 33.2116L35.1066 28.5321L27.346 33.0297L34.4342 28.94L27.3185 33.1013L34.7979 28.7856L27.6161 32.9525L35.079 28.6423L27.6382 32.9635L34.7042 28.8849L27.6051 33.0517L34.4507 29.0998L26.9602 33.4376L34.8034 28.9069L27.1146 33.3549L35.0239 28.7912L27.8586 33.0517L34.616 29.1494L27.8201 33.1013L35.3271 28.7691L27.5059 33.3549L34.9688 29.0502L27.1531 33.5864L35.294 28.8849L27.9523 33.1344L35.1231 28.9951L27.787 33.2667L34.6436 29.3037L27.9523 33.2998L34.9853 29.2376L28.0295 33.3163L34.8751 29.3644L27.4232 33.7738L34.9137 29.4471L28.1673 33.3824L34.8806 29.5077L28.1508 33.4265L35.2278 29.3423L28.0681 33.5037L35.2664 29.3478L28.1177 33.5753L35.4593 29.3368L28.0295 33.6746L35.5641 29.3258L27.9027 33.7848L35.2444 29.5463L28.1783 33.6911L35.8396 29.2707L28.272 33.6635L35.5861 29.4415L28.3823 33.7352L35.2499 29.7722L28.1287 33.9391L35.9554 29.4195L27.798 34.1761L35.7294 29.5959L28.2279 33.9832L35.5145 29.7778L28.0901 34.1761L36.0326 29.5904L28.2059 34.1486L35.6578 29.8439L28.4098 34.1431L35.9664 29.7778L28.1728 34.2864L36.1373 29.6896L27.8862 34.5564L35.7184 30.0368L28.272 34.4076L35.6137 30.1691L28.5641 34.358L35.553 30.3234L28.1287 34.6887L35.5916 30.3785L28.5641 34.5123L36.4845 29.9376L28.8342 34.3635L35.9609 30.2463L28.735 34.4683L36.2971 30.1029L28.272 34.7494L36.1869 30.1801L28.5476 34.7163L35.8507 30.4998L28.5311 34.81L36.3467 30.2959L29.1704 34.4958L36.0822 30.5053L28.8728 34.7769L36.5507 30.3455L28.7571 34.9643L36.4184 30.5439L29.0161 34.8596L36.9034 30.3069L28.6413 35.0856L36.8593 30.34L29.1319 34.9092L36.6554 30.5659L29.0106 35.0856L36.4349 30.7974L29.1319 35.1021L37.0633 30.5218L29.413 35.036L36.7766 30.7864L29.683 34.9367L37.0026 30.7092L29.3137 35.2344L37.2727 30.6376L29.4846 35.1848L37.179 30.7423L28.9389 35.6037L36.8042 31.062L29.2366 35.4493L36.479 31.2714L29.2586 35.4493L37.0302 30.9628L29.1098 35.5761L37.0688 30.9793L29.5893 35.3832L37.2176 30.9793L29.1759 35.7084L37.405 30.9573L29.898 35.4108L37.3003 31.1392L29.9145 35.5045L36.7877 31.536L30.1515 35.4328L37.5593 31.1557L30.0192 35.521L37.5262 31.1888L29.7271 35.7745L37.416 31.3376L29.6224 35.9674L37.5318 31.4037L30.3555 35.6533L37.3003 31.6407L29.7161 36.0887L37.5207 31.5856L29.7712 36.1052L37.664 31.547L30.1846 35.9619L37.2892 31.8612L30.2728 35.9674L37.4711 31.8116L30.0413 36.1548L37.4766 31.8612L29.8649 36.2871L38.1656 31.4974L29.8429 36.3863L38.1601 31.5856L29.8318 36.4304L37.3168 32.1092L30.598 36.0611L37.6916 31.9659L30.8129 36.0501L38.3254 31.7124L30.2122 36.5296L37.5373 32.3021L30.2452 36.6344L37.7136 32.3187L30.9011 36.2596L38.0058 32.1588L30.5373 36.5352L38.2428 32.0872L30.1515 36.8218L38.0774 32.247L30.9673 36.4745L38.4577 32.1478L30.5263 36.7777L37.7688 32.5943L30.3114 36.9871L37.8294 32.6494L31.0995 36.6233L38.0939 32.5887L30.9783 36.8052L38.5955 32.4069L30.5373 37.1029L38.1932 32.6824L30.7578 37.0422L38.0774 32.8147L31.0334 36.8934L38.8325 32.3903L30.846 37.1194L38.4577 32.721L30.9507 37.0863L38.5514 32.699L31.3917 36.943L38.9428 32.5832L30.9342 37.3123L39.1302 32.5777L31.5736 37.0092L38.7002 32.8974L30.9507 37.406L38.353 33.1344L31.5791 37.147L38.805 32.9746L31.6893 37.1304L38.8656 32.9911L31.2759 37.4777L37.9617 33.6139L31.4137 37.4281L37.9617 33.647L31.7003 37.395L37.8735 33.8289L31.3035 37.6651L37.9396 33.8344L31.7114 37.4777L37.427 34.1761L32.0972 37.3013L37.6475 34.099L31.772 37.5218L37.7467 34.0714L31.8051 37.5493L37.19 34.4407L32.2184 37.395L37.4601 34.369L32.1413 37.5548L36.7491 34.8927L31.7224 37.88L36.4625 35.1407L32.0861 37.7918L36.5727 35.2013L32.3562 37.7202L36.4515 35.3556L31.8547 38.1281L35.9995 35.736L32.5546 37.7477L36.1207 35.6919L32.0696 38.1391L35.6082 36.0942L32.3176 38.0013L35.9774 35.8848L32.5712 37.9572L35.0294 36.5352L31.9043 38.4036L35.4318 36.3643L32.7365 37.9407L35.1727 36.5352L31.9759 38.4367L35.0515 36.6619L32.4444 38.2217L34.9798 36.7556L32.4279 38.354L34.4121 37.2076L32.1854 38.5855L34.3294 37.3509L32.4334 38.5745L33.8113 37.7808L32.8468 38.3485L34.3294 37.4942L32.9239 38.3871L33.5247 38.0399L32.7972 38.5084L34.0318 37.7973" stroke="#FFD983" stroke-width="0.3" stroke-linecap="round" stroke-linejoin="round"/>
<path d="M18.7916 23.1136L20.6436 22.0443L18.02 23.6647L20.7979 22.0608L18.0972 23.7254L21.1672 21.9561L17.7224 24.001L21.2389 21.9726L18.1357 23.8962L21.6412 21.8734L17.4688 24.3537L21.8727 21.8128L17.3035 24.4805L21.8562 21.8514L17.6948 24.3868L21.768 22.0388L17.8822 24.3096L22.2696 21.7742L17.6121 24.5466L22.4349 21.7632L17.0334 24.9765L22.0932 22.0553L17.6728 24.6348L22.6444 21.7632L17.7665 24.6514L22.8648 21.7081L16.9397 25.2135L22.7325 21.8679L17.1271 25.1805L29.5726 17.9932L16.7413 25.5277L29.7435 18.0207L16.8846 25.5332L29.8372 18.0538L17.1491 25.4561L29.4073 18.379L17.4743 25.3128L29.3025 18.4837L16.7688 25.7482L29.1427 18.5995L17.4964 25.4065L29.2529 18.6215L17.3641 25.6049L29.2584 18.7372L17.298 25.649L29.7049 18.4892L17.1271 25.8198L29.2419 18.8254L16.6641 26.1065L30.1128 18.3404L17.1106 25.9576L29.2309 18.9577L16.7358 26.2553L29.738 18.7483L16.631 26.4151L29.3962 19.0459L16.8901 26.3104L29.3797 19.0955L16.6531 26.5419L29.5947 19.068L17.1602 26.3159L29.9584 18.9302L16.7192 26.608L29.5616 19.1947L17.4358 26.2387L29.6388 19.1947L17.1491 26.4206L29.6167 19.2223L16.9176 26.619L30.3608 18.8585L17.1161 26.597L30.1844 19.0514L16.6696 26.9112L29.7325 19.3656L17.4082 26.5143L30.2947 19.0735L17.0775 26.8175L30.5758 19.0239L16.6145 27.1757L30.3443 19.2498L16.835 27.0875L30.1183 19.4207L17.1436 27.0379L30.6419 19.2443L17.0058 27.2364L30.6033 19.3821L16.9728 27.3135L29.8151 19.9002L17.1657 27.2694L30.1954 19.7514L17.1987 27.3521L30.0797 19.9168L16.6531 27.6718L30.0687 19.9333L17.2484 27.4623L30.0466 20.0711L16.846 27.8261L30.2175 20.1097L16.8019 27.8923L30.8403 19.79L16.7523 27.9419L30.2891 20.1207L17.6232 27.4513L30.7962 19.8451L17.6176 27.4623L30.0411 20.2916L17.4743 27.5726L30.4765 20.0601L17.309 27.7765L30.7356 20.0215L17.4578 27.782L30.934 19.9994L16.9011 28.1072L30.3112 20.3632L17.1767 28.008L30.1073 20.5451L17.0885 28.1348L30.6143 20.3246L16.8846 28.3167L30.945 20.1979L17.2318 28.2175L30.8128 20.3742L17.557 28.1513L30.3443 20.7711L17.4358 28.3056L31.0222 20.4624L17.3641 28.471L30.5151 20.8758L17.6617 28.3993L30.7025 20.8703L17.8987 28.2781L30.4931 21.0081L17.546 28.5041L31.0387 20.716L17.4854 28.5647L30.9505 20.7931L18.042 28.3222L30.2395 21.2837L17.3476 28.8513L30.1899 21.4325L17.4027 28.8403L30.5041 21.2727L17.8491 28.6915L30.5372 21.3664L17.9098 28.697L30.6309 21.3498L17.8326 28.7852L30.1293 21.686L17.8822 28.8403L30.8679 21.3443L17.5239 29.171L30.8844 21.4601L18.1247 28.8568L30.7411 21.5703L17.7885 29.1324L30.3167 21.901L17.6121 29.3033L30.8624 21.653L17.6066 29.43L30.449 22.0167L18.4058 29.0718L30.3608 22.1711L18.02 29.3474L30.1238 22.3585L18.2735 29.2867L30.46 22.2482L18.6208 29.1765L30.6419 22.2372L18.0035 29.5568L30.0466 22.6065L17.8712 29.6726L30.0246 22.6561L18.2846 29.4907L30.6915 22.3254L18.1247 29.6781L30.0521 22.7884L18.6208 29.4576L30.0025 22.8876L18.3672 29.634L30.0907 22.8655L18.8633 29.4686L30.4821 22.7608L18.3176 29.893L29.7986 23.2624L18.4003 29.904L30.0191 23.1963L18.4334 29.9206L29.7545 23.3837L19.2491 29.4852L29.6057 23.5049L18.4664 29.9647L29.9639 23.3285L19.1003 29.7111L30.3222 23.2293L19.2491 29.667L29.8978 23.5214L18.7255 30.1025L29.8372 23.6868L18.9294 30.0529L29.7655 23.797L18.7916 30.1962L29.3797 24.0836L18.9515 30.1962L29.8427 23.9073L19.6294 29.8655L29.4458 24.1994L19.42 30.0088L30.1073 23.8411L19.3924 30.0363L30.1128 23.8466L19.2271 30.2237L29.6994 24.1773L19.0893 30.3505L29.7986 24.1663L19.5743 30.1025L30.1899 23.9734L19.6735 30.0529L30.223 23.9624L20.0042 29.9481L29.7931 24.2986L19.7286 30.1521L30.2781 24.0616L20.1641 29.9316L30.4931 23.9679L19.5467 30.3285L30.245 24.1498L19.4696 30.4222L30.6143 23.9899L19.8995 30.2788L30.0246 24.4364L20.1255 30.2182L29.9088 24.5687L20.3074 30.1741L30.3057 24.4033L20.5499 30.1135L29.9805 24.6679L20.6877 30.1521L30.3332 24.5852L20.4231 30.3395L30.7135 24.3978L20.6436 30.2623L30.5427 24.5466L20.7648 30.3009L30.9726 24.4088L20.5719 30.4222L30.3884 24.7561L20.7208 30.3946L30.6915 24.6403L21.0404 30.2237L31.0332 24.4529L20.4617 30.6922L30.5592 24.8608L21.2389 30.3615L30.9891 24.734L21.0404 30.604L30.9836 24.8608L21.3822 30.4442L30.8403 24.9821L21.4869 30.4497L30.5923 25.1915L21.3656 30.571L31.419 24.7671L21.8341 30.4222L31.4797 24.8553L22.6168 29.9867L31.1986 25.0317L22.3798 30.1521L31.0718 25.1364L22.8593 29.9096L24.7333 28.8237" stroke="#FFD983" stroke-width="0.3" stroke-linecap="round" stroke-linejoin="round"/>
<path d="M23.0359 18.6921L24.8493 17.6449L23.2013 18.6756L25.4556 17.3748L22.4903 19.1771L25.5328 17.4244L22.5619 19.1716L25.6871 17.3638L22.1596 19.4417L25.5548 17.485L22.3911 19.326L25.9131 17.2921L22.2753 19.4031L26.2713 17.0937L22.606 19.3094L25.9627 17.3748L21.7903 19.9157L26.0839 17.4354L22.4958 19.5244L26.4201 17.2591L22.2478 19.7724L26.4698 17.3362L21.8234 20.0535L27.1091 17L22.4737 19.6952L26.7288 17.237L21.6745 20.2795L26.9217 17.248L22.0934 20.1141L26.7453 17.4299L22.4241 19.9874L27.5004 17.0606L21.7297 20.4228L26.9934 17.3858L21.9887 20.3126L27.1697 17.3142L21.9722 20.3897L27.3516 17.2866L21.9446 20.4338L27.6382 17.1433L21.9391 20.5441L27.1973 17.5126L21.895 20.6433L27.1587 17.6008L21.5423 20.8692L27.2193 17.5898L21.3108 21.1118L28.1233 17.1764L21.3989 21.1393L27.9193 17.3748L21.6635 21.007L28.2335 17.215L21.9281 20.9023L28.3437 17.1984L21.7241 21.0732L28.3217 17.2646L21.2501 21.4259L28.5036 17.237L21.4265 21.3377L27.8587 17.6228L21.6525 21.3322L28.5146 17.3693L21.7903 21.3322L28.3382 17.5512L21.7186 21.4921L28.1453 17.7827L22.0659 21.3047L28.5863 17.5402L21.4541 21.7621L28.3713 17.7661L21.2115 21.9606L28.6965 17.6449L21.647 21.8283L28.8398 17.6724L21.432 22.0267L29.0933 17.6063L21.4541 22.0488L28.8839 17.7606L21.8068 21.9165L28.7296 17.9205L21.443 22.2141L29.1319 17.7716L21.669 22.1976L29.3634 17.7606L21.3493 22.4677L29.2863 17.8819L21.636 22.4015L28.7792 18.2787L21.5588 22.5062L28.6689 18.4" stroke="#FFD983" stroke-width="0.3" stroke-linecap="round" stroke-linejoin="round"/>
<path d="M35.0624 26.3093L38.4631 24.3471L35.1947 26.3148L39.1245 24.0439L34.1915 26.9872L39.4883 23.9282L34.1254 27.0589L39.7915 23.7904L33.5467 27.4392L39.7198 23.8731L33.7175 27.351L40.0891 23.6747L33.5467 27.4667L40.4584 23.4762L33.5797 27.5439L40.2214 23.7132L32.4994 28.3045L40.4419 23.7187L33.1719 27.9352L40.7891 23.5369L32.6372 28.3431L40.96 23.5369L32.1136 28.6793L41.6544 23.1676L32.7089 28.3486L41.3072 23.3825L31.5679 29.1258L41.5718 23.3495L31.7719 29.0872L41.4395 23.5038L31.9813 29.0321L42.2221 23.118L31.2207 29.5006L41.7316 23.4321L31.4136 29.4234L41.93 23.355L31.2538 29.5943L42.1505 23.3054L31.1711 29.6714L42.4481 23.1621L30.9231 29.925L42.0568 23.4983L30.7081 30.1179L42.0513 23.5699L30.3002 30.3769L42.1395 23.5424L29.8207 30.7628L43.1371 23.0739L29.716 30.9005L42.9607 23.2558L29.931 30.8013L43.2804 23.0959L30.0743 30.7683L43.4072 23.0684L29.7491 31.0053L43.4017 23.1235L29.1152 31.4517L43.6111 23.0794L29.2695 31.369L42.9717 23.4597L29.2475 31.5124L43.6717 23.1841L29.2365 31.6005L43.5284 23.3495L28.9168 31.9092L43.3741 23.5589L29.242 31.7273L43.8206 23.3109L28.3987 32.3226L43.6497 23.5203L28.0239 32.6037L43.9969 23.3825L28.2058 32.6147L44.2064 23.377L27.8144 32.9234L44.5095 23.2833L27.7648 32.984L44.3166 23.4266L27.9688 32.9344L44.1843 23.5699L27.4452 33.3202L44.6142 23.4046L27.4617 33.4249L44.8788 23.366L26.9767 33.7777L44.8127 23.4817L27.0814 33.8218L44.3387 23.8621L26.8278 34.0698L44.2891 23.9888L26.7507 34.1745L44.3497 24.0164L26.646 34.2627L45.0001 23.6636L26.1995 34.621L44.8788 23.8345L26.6019 34.5163L45.1268 23.8235L26.2767 34.7808L45.6008 23.625L25.8964 35.0178L44.7796 24.1101L26.3869 34.7698L45.6119 23.6691L25.9239 35.0509L45.6119 23.6802L26.4641 34.7477L45.1379 23.9668L26.0121 35.0564L45.6229 23.7353L25.6428 35.3926L44.978 24.2313L25.4664 35.5194L45.3859 24.0164L26.0727 35.1887L45.0993 24.2038L25.5822 35.5635L45.5788 24.0164L25.3893 35.7509L45.9316 23.8951L25.968 35.4863L45.9371 23.9613L25.4334 35.9273L46.1575 23.9668L25.1027 36.1367L45.8654 24.1487L25.5326 35.9658L46.1189 24.077L25.6538 35.9217L46.2127 24.055L25.009 36.3186L45.5237 24.4739L25.1853 36.2414L46.0308 24.2038L24.6893 36.6162L45.8213 24.4187L24.9979 36.5115L46.5268 24.0825L24.6728 36.8036L46.2237 24.3581L24.7885 36.8036L46.1961 24.4463L24.8161 36.9028L46.1796 24.5676L24.1216 37.4375L46.4607 24.5345L24.7609 37.1178L46.863 24.3581L23.9562 37.6965L46.9843 24.4022L24.4192 37.5532L46.8796 24.5841L23.9287 37.8509L46.5709 24.777L24.3476 37.6635L46.8465 24.6723L24.4302 37.6524L46.7473 24.766L24.309 37.8123L46.9788 24.7219L24.2649 37.9611L47.3591 24.6282L24.32 38.0383L47.0504 24.9148L23.394 38.6886L46.9126 25.1077L23.6421 38.5674L47.1552 24.992L23.9232 38.4351L46.6922 25.2896L23.6476 38.6225L47.3205 24.9534L24.0609 38.4682L47.5355 24.9148L23.5594 38.8044L46.7583 25.4109L23.5428 38.876L47.0449 25.3061L23.6145 38.8926L46.9457 25.4164L23.2617 39.1957L47.6788 25.0967L23.2066 39.317L47.0615 25.5431L23.2783 39.3721L47.9544 25.1298L23.5924 39.3115L47.9764 25.2345L23.598 39.3611L47.4804 25.5707L23.0743 39.7083L47.4969 25.6038L23.383 39.5926L48.037 25.3557L23.4822 39.6146L48.015 25.4494L23.0743 39.9178L47.3977 25.8793L23.0578 39.9563L48.2134 25.4329L22.8429 40.1603L47.4693 25.94L23.0027 40.0996L47.9874 25.6754L23.3334 39.9949L48.1032 25.6975L22.8484 40.3477L48.3622 25.6148L22.8484 40.4579L48.3622 25.7305L22.457 40.8162L47.8551 26.1549L22.7932 40.6618L48.4174 25.8628L22.661 40.7611L48.4945 25.8518L22.8153 40.6894L48.026 26.1329L22.6058 40.9264L48.3677 26.0502L23.2728 40.5957L48.6158 25.962L22.6995 41.0532L48.3677 26.2321L22.5232 41.2461L48.3953 26.3093L23.1074 40.9705L48.5331 26.2927L22.6224 41.3453L48.941 26.1494L23.1019 41.1965L48.5386 26.5132L22.694 41.4555L48.7921 26.3864L22.6003 41.5933L48.2299 26.7943L22.3027 41.8855L48.9906 26.4801L23.1074 41.5437L48.8307 26.6896L23.0192 41.6154L48.5441 26.877L22.6995 41.8799L48.8803 26.7612L22.4074 42.1555L49.3599 26.5959L23.0192 41.891L49.1118 26.8274L22.4681 42.2437L49.2606 26.7778L22.8484 42.0784L48.6819 27.1636L22.3688 42.4036L48.7536 27.1691L22.7822 42.1831L49.1614 26.9541L22.5342 42.4146L49.0732 27.0919L22.2421 42.6736L49.0457 27.2022L22.1704 42.8114L48.8142 27.4281L22.7161 42.624L49.1229 27.3785L22.4405 42.8335L48.8583 27.5825L22.6003 42.839L48.9851 27.6045L22.1318 43.2303L49.1118 27.6541L22.7326 42.9602L49.5197 27.4943L22.4736 43.2028L49.3874 27.6652L22.2145 43.4563L49.1063 27.9297L22.7436 43.2028L49.4095 27.8085L22.6334 43.2799L49.9606 27.4998L23.0854 43.1256L49.4646 27.8966L22.683 43.4839L49.3103 28.1116L22.9917 43.4122L49.6189 28.04L22.8484 43.5886L49.7898 28.0344L22.9862 43.5776L49.6575 28.1777L22.8208 43.7429L50.1535 27.9628L22.435 44.024L50.0929 28.0565L22.6555 43.9964L49.911 28.2604L22.9972 43.9083L50.2087 28.1998L23.0964 43.8697L50.0819 28.2935L22.7657 44.1508L49.4756 28.7289L22.8484 44.1177L49.6465 28.6462L22.5342 44.3712L50.4181 28.2714L22.3633 44.4815L50.0378 28.5029L23.0303 44.2169L49.8559 28.7289L22.8484 44.3823L50.2913 28.536L22.92 44.3657L49.9661 28.751L22.8098 44.4429L50.0984 28.6903L22.931 44.487L50.4512 28.6021L23.2397 44.4209L50.4181 28.7289L22.7271 44.7736L50.0102 29.021L23.0082 44.6413L49.889 29.1203L22.4736 45.0161L49.9221 29.1699L22.8704 44.8067L50.6 28.8006L22.9641 44.8177L49.7402 29.3573L23.3113 44.6413L50.2969 29.0596L22.6444 45.1374L49.8173 29.451L22.5948 45.2366L49.9606 29.4344L23.135 45.0106L50.7268 29.0817L23.2783 44.9831L50.6276 29.1919L22.6444 45.4681L50.3465 29.473L23.4106 45.1374L50.2142 29.6659L23.2562 45.2972L50.3906 29.6328L22.9806 45.5728L50.9197 29.4399L23.3499 45.3909L50.1315 29.9305L23.5649 45.3138L50.7047 29.6439L23.5649 45.3468L50.8591 29.5888L23.3279 45.5949L50.3409 29.9966L23.394 45.6389L50.352 30.0738L22.9696 45.9311L50.6661 29.9415L23.4877 45.7051L50.815 29.925L23.0688 46.0358L50.2858 30.3218L23.4877 45.887L51.052 29.9746L23.3885 45.9807L50.7654 30.1785L23.7082 45.898L51.0079 30.1344L23.1736 46.3114L50.4953 30.5368L23.6972 46.0358L50.9252 30.3163L23.5373 46.2122L50.5559 30.6139L23.9838 45.9586L50.4843 30.658L23.5208 46.3389L50.5835 30.7131L23.2673 46.5263L51.311 30.3328L23.5814 46.4106L50.4787 30.884L24.0058 46.1846L51.1622 30.5092L23.6476 46.4767L50.6827 30.8675L23.9011 46.4051L50.8591 30.8399L23.8184 46.4988L50.837 30.9005L23.6365 46.7082L50.622 31.1265L23.372 46.9232L50.9528 30.9998L23.6806 46.8185L51.2835 30.8785L23.9121 46.7137L50.5945 31.3084L24.3696 46.5374L50.8811 31.2313L23.8074 46.8681L50.6772 31.358L23.8019 46.9287L51.4047 30.9942L23.868 46.9673L50.8646 31.3801L24.4523 46.7413L50.9252 31.4572L23.9507 47.0444L51.2945 31.2588L24.2263 46.9673L50.9913 31.5124L24.2649 47.0224L51.1732 31.4903L23.6696 47.4633L51.0354 31.6667L24.3586 47.1271L51.7189 31.3305L23.846 47.4468L51.548 31.4517L24.0058 47.4137L51.1346 31.7494L23.9507 47.546L51.2559 31.7824L23.8405 47.6287L51.7244 31.5289L23.9287 47.6397L51.2669 31.8541L24.2098 47.5515L51.0079 32.0801L23.9287 47.772L51.3276 31.9533L24.5129 47.4744L50.9858 32.1903L24.6397 47.4964L51.8401 31.7934L24.9979 47.3972L51.2173 32.2619L24.8877 47.5185L51.3386 32.2454L25.0696 47.4744L51.4929 32.2179L24.2924 47.998L51.9118 32.0525L24.4027 48.0035L51.5811 32.3116L25.0145 47.7444L51.6527 32.3667L24.7003 47.9484L51.3 32.5871L25.0806 47.8051L51.9559 32.2895L24.9428 47.9208L52.0055 32.295L24.4688 48.2515L51.7464 32.5045L25.042 47.998L51.6362 32.6423L25.1633 48.0255L52.0716 32.4879L24.9869 48.2074L51.9063 32.6643L25.257 48.0972L51.3937 33.006L24.7499 48.4665L51.6748 32.9234L25.5381 48.0751L51.9338 32.8352L25.1523 48.3287L52.0331 32.8076L25.0586 48.4444L52.0275 32.8738L24.794 48.7145L51.5425 33.2706L24.9759 48.698L51.7244 33.2541L25.031 48.7365L51.8401 33.2596L25.0365 48.7917L52.2535 33.0777L25.5105 48.5602L52.474 32.995L25.8137 48.461L51.8181 33.447L25.8468 48.5326L51.8346 33.5296L25.9405 48.4885L51.8346 33.5407L25.2129 48.9956L52.474 33.2541L25.7971 48.7531L52.0827 33.5737L25.4499 48.9901L51.8842 33.7281L26.0231 48.6759L51.8953 33.7391L26.0782 48.7255L52.0771 33.717L26.0782 48.7972L52.1212 33.7611L25.5822 49.1444L52.0606 33.8548L25.9405 48.9625L52.0441 33.8934L26.3538 48.8578L52.5181 33.7501L26.453 48.9129L52.5897 33.8218L26.1499 49.172L52.9315 33.7115L25.8082 49.398L52.8488 33.7887L25.7531 49.4531L52.1764 34.1966L26.431 49.1003L52.8598 33.8438L25.8798 49.4586L52.8543 33.8824L25.7641 49.6129L52.5897 34.1249L26.442 49.3153L52.4244 34.3178L26.453 49.3594L52.5512 34.2903L26.6239 49.3098L52.3968 34.4281L26.3318 49.4861L52.4464 34.4115L26.8168 49.2602L52.8047 34.2572L26.7341 49.3814L52.3362 34.5989L26.4806 49.6184L53.0803 34.2627L26.3428 49.7452L52.711 34.5218L26.7011 49.6515L52.5842 34.7092L26.8719 49.6074L53.2787 34.3619L26.409 49.9602L53.1134 34.5438L26.9987 49.6846L53.185 34.5659L27.2633 49.6405L53.2952 34.61L27.1365 49.7948L53.185 34.7533L27.5499 49.6019L53.4441 34.6485L27.2963 49.8058L52.8543 35.0509L27.1806 49.9216L53.3889 34.7918L26.9546 50.1586L53.0858 35.0729L27.7538 49.8224L53.6811 34.8525L27.4562 50.0042L53.5543 34.9351L27.1145 50.2743L53.67 34.9407L27.8641 49.9271L53.2952 35.2438L27.583 50.1696L53.1685 35.3981L27.6105 50.2082L53.0968 35.4918L27.4452 50.3735L53.3173 35.4367L27.3349 50.4507L53.2346 35.4973L27.6381 50.2909L53.3614 35.4422L27.9081 50.2578L53.6756 35.3816L28.1066 50.1586L53.2897 35.6186L28.1176 50.1861L53.3614 35.6131L28.3325 50.1696L53.4385 35.6737L27.7373 50.6326L53.4606 35.784L27.82 50.594L54.2874 35.3155L28.1782 50.5168L53.7803 35.7343L28.4869 50.368L54.3149 35.4588L27.9412 50.7979L53.863 35.8336L28.1562 50.7373L54.0669 35.7784L28.316 50.6657L54.4472 35.58L28.294 50.7538L53.8354 36.0044L28.6908 50.605L53.9677 36.0099L28.564 50.7594L53.8078 36.1863L28.801 50.6712L53.7693 36.2524L28.7184 50.8035L54.5133 35.9107L28.4814 51.0239L54.1055 36.2304L28.7735 50.8641L54.4582 36.0375L29.1262 50.7704L54.1551 36.3186L29.3632 50.7263L54.3535 36.2965L29.5562 50.7428L54.6897 36.2304L29.2971 50.9688L54.7448 36.2745L29.468 50.9247L54.8055 36.2965L29.3302 51.0956L54.6952 36.4509L29.7876 50.8531L54.7779 36.4233L29.5066 51.068L54.4362 36.6769L29.2751 51.2168L55.1417 36.28L29.9916 50.8586L54.7999 36.5391L29.6609 51.1011L54.7503 36.6162L29.2585 51.3546L54.5078 36.7761L29.4129 51.3216L54.596 36.7816L29.3302 51.3987L54.7283 36.7375L30.0081 51.0349L55.4228 36.3627L29.7546 51.2775L55.2354 36.5666L29.6333 51.3601L55.3952 36.4839L29.6939 51.4428L54.9929 36.8367L29.9585 51.4208L55.4944 36.6769L30.3774 51.2995L55.5495 36.765L30.4601 51.3271L55.511 36.8643L30.1184 51.5806L55.8747 36.7099L30.7522 51.2885L55.6267 36.9304L30.3829 51.5641L55.6653 36.969L30.9727 51.3216L55.3181 37.2666L30.3829 51.7019L55.3015 37.3162L30.7191 51.6192L55.6543 37.2225L30.8294 51.6688L55.511 37.4209L31.0443 51.6137L55.6818 37.3879L31.2538 51.5916L56.2936 37.1343L31.0498 51.7901L55.6377 37.5973L30.8404 51.9995L56.1338 37.3989L31.6065 51.6688L56.5086 37.2887L31.0774 52.0822L56.1669 37.5973L31.5735 51.8011L56.6133 37.3438L31.4412 51.9609L56.6684 37.3989L31.9648 51.7735L56.448 37.6359L31.3364 52.242L56.0621 37.9666L31.7553 52.1263L56.6133 37.7737L31.8215 52.22L56.7897 37.8012L32.2569 52.0546L57.2913 37.6028L32.2128 52.1979L57.3188 37.702L32.2514 52.2586L57.0653 37.9335L32.4994 52.1373L56.6464 38.1981L32.5601 52.1924L56.7511 38.2257L32.1467 52.5452L57.3133 38.0162L32.775 52.2971L56.9165 38.3579L32.6372 52.4404L57.0763 38.3304L32.527 52.5452L57.1535 38.3249L32.7254 52.5231L57.0928 38.4516L32.5215 52.7491L57.8535 38.1209L32.7971 52.6774L58.0188 38.1154L33.1112 52.5837L57.9582 38.2422L32.8908 52.7656L57.6936 38.4461L32.8136 52.8869L58.0905 38.2918L32.8853 52.9145L58.3495 38.2146L33.6293 52.5893L57.6605 38.7107L33.0396 52.9696L58.5534 38.2367L33.2986 52.8869L58.2723 38.4682L33.453 52.8538L58.5975 38.3359L33.238 53.0192L57.8645 38.8044L33.8719 52.7105L57.9527 38.8099L33.9159 52.7767L58.2889 38.7052L33.6293 53.0412L58.1235 38.8981L33.723 53.0026L58.4212 38.7438L33.2711 53.3554L58.9834 38.5123L33.4695 53.2617L58.355 38.8926L33.3372 53.4601L58.9889 38.6501L33.4805 53.4766L59.2369 38.606L33.6348 53.5207L59.0219 38.865L34.2246 53.3113L59.5841 38.6721L33.8608 53.6475L59.6117 38.7823L34.6159 53.2727L58.8952 39.2563L34.3459 53.5152L59.5345 38.9697L34.1309 53.7522L59.0716 39.35L33.8994 53.9948L59.3747 39.2894L34.6104 53.7081L59.5566 39.306L34.2026 53.9727L60.1022 39.0193L34.2742 54.0278L59.6282 39.3886L34.9025 53.7081L59.8487 39.306L34.3073 54.116L60.2731 39.1241L34.6655 53.9176L59.97 39.306L34.7207 53.9617L59.9479 39.3997L34.7978 54.0388L60.4054 39.2563L34.66 54.1436L60.5487 39.1957L34.5553 54.3255L60.8133 39.1682L34.8585 54.1877L60.5487 39.3556L35.2222 54.0444L60.907 39.2178L34.5939 54.4963L60.1133 39.7634L35.327 54.1656L60.6865 39.5209L35.2057 54.3034L60.9786 39.4217L34.9191 54.4853L60.9951 39.4272L35.4647 54.2538L60.7416 39.6587L35.5088 54.2869L60.8408 39.6642L35.2277 54.5625L61.1605 39.5926L34.9301 54.7664L60.9511 39.7469L35.1671 54.6672L60.5542 40.0115L35.5584 54.5735L60.8022 40.0004L35.6797 54.5129L61.5904 39.554L35.2057 54.8105L61.4526 39.6587L35.5254 54.6727L61.1329 39.8847L35.0844 54.9648L61.5408 39.6918L35.3159 54.8656L61.6896 39.6367L35.2002 54.9648L61.4306 39.8185L35.134 55.031L61.5573 39.7745L35.2277 55.0254L61.144 40.0611L35.5254 54.8656L61.1936 40.0445L35.7073 54.8601L61.6951 39.8571L35.9277 54.8546L61.7888 39.9233L35.9884 54.9042L61.618 40.1052L36.1427 54.827L61.6014 40.1272L35.6466 55.2404L62.2518 39.8792L36.1978 54.9373L61.7558 40.1823L35.9498 55.1467L61.5077 40.3918L36.0325 55.1798L62.3786 39.9674L36.286 55.053L62.4117 39.9729L35.8616 55.3562L61.7337 40.4193L36.1703 55.2349L62.2463 40.1768L36.2033 55.2735L61.9211 40.4248L35.9222 55.538L61.9762 40.4965L35.7403 55.742L62.7313 40.1603L36.275 55.5105L62.1085 40.5957L35.8892 55.8522L62.0093 40.7721L36.6167 55.5656L62.792 40.4524L36.6443 55.6813L62.5715 40.7114L36.0931 56.1278L63.2219 40.4634L36.8647 55.7916L62.7369 40.8548L36.738 55.9294L62.9518 40.7941L36.6167 56.0892L62.7203 41.0201L36.8592 56.0065L63.4534 40.6508L36.1703 56.5081L63.1172 40.9485L36.4734 56.4365L63.3817 40.8988L36.8041 56.2711L63.2991 40.9705L37.0962 56.2325L63.4258 41.0311L36.5726 56.5963L63.6243 40.976L36.4017 56.7782L63.8337 40.9429L37.2009 56.4254L63.8723 41.0256L36.6828 56.7947L63.718 41.1855L36.8592 56.7506L63.8337 41.1744L37.1017 56.6624L63.9384 41.1689L36.5616 57.0813L63.3046 41.6374L36.6718 57.0262L63.9494 41.2792L36.6553 57.0483L63.255 41.6925L37.4655 56.6514L63.2935 41.7366L37.1899 56.8939L63.5416 41.6815L36.7986 57.2081L64.2691 41.3508L37.4545 56.905L64.2691 41.4225L37.4269 56.9325L63.751 41.7366L37.3663 57.0207L64.0542 41.6099L37.4049 57.0372L63.6463 41.8855L37.3773 57.164L64.2746 41.6374L36.8868 57.4892L64.2305 41.7036L37.3443 57.2687L64.3794 41.6595L37.686 57.164L64.2746 41.8138L37.3608 57.4837L63.9825 42.1114L37.7411 57.2908L64.2636 41.9792L37.1844 57.638L64.2471 42.0122L37.3112 57.638L64.0983 42.1721L37.5592 57.5223L63.8668 42.3319L37.1072 57.8475L64.6825 41.924L37.5813 57.6876L64.677 42.0453L37.3332 57.8805L64.3904 42.2602L37.6198 57.7868L64.2526 42.4091L37.4159 57.9853L64.3683 42.4256L37.6419 57.9246L64.7983 42.2492L37.9561 57.8695L64.8589 42.3374L37.9891 57.8916L64.7707 42.4311L37.5206 58.2167L64.892 42.4146L37.6694 58.1561L65.0353 42.3539L38.0773 57.9632L64.6384 42.6295L37.6254 58.2608L64.3573 42.828L37.6198 58.3104L64.4731 42.8059L37.7246 58.2608L64.462 42.8224L37.234 58.6301L64.5006 42.8886L37.5868 58.4923L64.5557 42.9217L37.5427 58.6301L64.925 42.8224L38.2151 58.316L65.1069 42.7894L37.9671 58.5695L64.8809 43.0319L37.5482 58.8341L65.1731 42.8831L38.0332 58.6191L65.3384 42.8555L37.5757 58.9278L65.388 42.8721L37.8017 58.8616L64.7431 43.3075L37.7301 59.0104L65.5313 42.9602L38.4301 58.6908L64.7046 43.5224L38.1214 58.9663L64.8038 43.561L38.171 59.06L64.7652 43.7043L38.4356 58.9388L65.4321 43.3516L38.0112 59.2915L65.2612 43.5555L38.0994 59.3026L65.3108 43.5941L38.1875 59.3852L65.3053 43.7264L38.1049 59.4348L65.0628 43.8697L38.5127 59.3191L65.6691 43.6382L38.0939 59.6002L65.7959 43.6051L37.923 59.7159L65.3329 43.8917L37.8954 59.8317L65.7738 43.7374L37.9009 59.8978L65.8069 43.787L38.7553 59.501L66.0604 43.7374L38.7883 59.4955L65.8786 43.8531L38.6175 59.7049L65.1896 44.3657L38.2261 59.975L65.6691 44.1287L37.9505 60.2561L65.388 44.4153L38.0939 60.3002L65.5589 44.4429L38.5789 60.0577L66.1541 44.1398L38.3639 60.2396L65.7849 44.4098L38.3805 60.3443L65.6856 44.5807L38.4631 60.427L66.2313 44.3933L38.4797 60.5317L65.851 44.7295L38.6064 60.5096L66.3746 44.476L39.0474 60.2892L65.873 44.8012L38.419 60.7081L65.6801 44.9665L38.7773 60.5703L66.2093 44.735L38.3419 60.8624L65.9723 44.9114L38.9868 60.5041L65.8124 45.0161L38.4797 60.8238L65.6636 45.1319L39.0805 60.5372L65.603 45.2256L38.7663 60.8403L66.088 45.0657L39.1521 60.6584L65.9116 45.209L39.0143 60.8293L66.2754 45.0878L38.623 61.0994L65.8786 45.3634L38.7553 61.0443L66.2038 45.198L38.8269 61.1104L66.0604 45.3854L39.2017 60.9616L66.4352 45.2366L38.656 61.3088L66.0439 45.4956L39.2844 61.0663L66.5785 45.3082L38.7663 61.4025L66.3471 45.4791L38.6671 61.5734L66.2423 45.6555L39.3671 61.1821L66.1045 45.7492L38.7773 61.5789L65.8124 45.9697L38.8765 61.5293L65.8179 45.9752L39.1686 61.4797L65.9612 46.0137L39.5159 61.3088L66.6888 45.6224L39.5545 61.408L66.1156 46.0689L39.5049 61.5679L66.2478 46.1295L39.4883 61.634L66.2203 46.2011L39.6041 61.5954L66.4683 46.0854L38.9647 62.0033L66.2644 46.2397L39.4938 61.7828L66.5014 46.1901L39.7694 61.7277L66.7494 46.1515L39.3175 62.0639L66.6447 46.2893L39.593 62.0364L66.4187 46.5484L39.3671 62.1742L66.3581 46.5925L39.345 62.2293L66.4738 46.5649L39.8686 62.0474L66.4463 46.7027L39.1245 62.5269L66.4242 46.7633L39.7915 62.2624L66.1321 47.0555L39.5765 62.5104L66.5234 46.9563L39.2734 62.7639L66.8927 46.8185L40.1167 62.2844L66.1266 47.2649L39.8301 62.4773L66.4352 47.1161L39.3064 62.8411L66.6116 47.0775L39.7584 62.6206L66.1045 47.4082L39.4773 62.8576L66.3305 47.3531L39.7419 62.7529L66.3415 47.3972L39.4387 63.023L66.9368 47.1437L39.7694 62.8962L66.0053 47.7499L39.4663 63.1057L66.7715 47.3421L39.7915 62.9458L66.6888 47.4137L39.4277 63.2269L66.2203 47.761L39.5214 63.2214L66.4518 47.6728L40.1883 62.8631L66.3911 47.7334L39.8741 63.1553L66.4628 47.8051L40.0174 63.0891L66.2313 47.9539L40.3151 63.0395L66.8652 47.7114L40.4088 63.023L66.8707 47.7444L39.7419 63.5411L66.6888 47.9814L40.5356 63.1442L66.2809 48.2791L39.8025 63.5852L66.8872 47.9484L40.5631 63.1553L66.8982 47.9539L40.7285 63.1387L66.0108 48.5436L40.5796 63.282L66.1982 48.494L40.023 63.6624L66.7329 48.2405L40.4639 63.4529L66.8927 48.1964L40.7174 63.3592L66.8707 48.257L40.3096 63.6513L65.9557 48.8413L40.7009 63.5246L66.4022 48.6869L40.7285 63.6238L66.099 48.9736L40.3537 63.9214L66.2754 48.957L40.7395 63.8001L66.551 48.8964L40.293 64.1474L66.7053 48.8964L40.7615 63.9104L66.2589 49.1885L41.1749 63.7616L66.4077 49.194L41.0206 63.9049L65.9171 49.5302L40.7836 64.0702L66.1321 49.4365L40.7891 64.1419L66.0108 49.5798L40.4584 64.445L65.8675 49.7728L41.2355 64.0371L66.1652 49.646L41.2796 64.0316L65.6856 49.9381L40.745 64.3789L66.3691 49.5854L41.0371 64.2631L65.7408 49.9987L41.1253 64.2245L66.0825 49.8168L41.4064 64.1419L66.3526 49.7397L41.5222 64.0923L66.0384 49.9381L41.4615 64.1529L66.3746 49.7672L40.756 64.6545L65.9392 50.1145L41.6048 64.2245L65.6856 50.3184L41.2521 64.5553L66.2589 50.1145L41.2741 64.6269L65.8565 50.4342L41.1749 64.7923L65.4707 50.7649L41.7592 64.4946L65.8179 50.605L41.5056 64.7151L65.5203 50.8475L41.671 64.7427L65.4101 51.0349L41.5718 64.8419L65.9392 50.7704L41.5883 64.8584L65.7683 50.8972L41.908 64.7427L65.9116 50.8806L41.3568 65.1175L65.5534 51.1507L41.7536 64.9797L65.5809 51.2223L41.9466 64.9741L65.2447 51.5255L41.7206 65.2277L65.14 51.7074L42.1395 65.0403L64.7597 51.9775L42.2552 65.0789L64.7431 52.0987L41.7151 65.4096L64.688 52.1483L42.5473 65.0017L65.4872 51.757L41.8859 65.4978L64.9801 52.1649L42.3103 65.3434L64.4731 52.5507L42.4536 65.3269L64.7101 52.479L42.6906 65.2773L64.4841 52.694L42.4757 65.4757L64.7376 52.6223L42.6631 65.4537L64.8754 52.6278L42.5473 65.5363L64.892 52.6334L42.641 65.4922L64.5998 52.8152L42.867 65.382L64.9912 52.6113L42.7458 65.4647L64.4455 52.9365L43.1536 65.2718L64.8534 52.7436L42.393 65.7513L64.8038 52.8097L42.9166 65.5088L64.2085 53.2176L43.2528 65.36L63.8778 53.4546L42.8009 65.7403L64.2526 53.3554L43.2749 65.5198L64.0376 53.5318L42.6466 65.9663L63.988 53.642L43.33 65.6962L63.8447 53.8514L43.1922 65.8064L63.6077 54.0168L43.071 65.8781L64.1313 53.7192L43.6717 65.6356L64.0872 53.8459L43.6221 65.7182L63.7455 54.0995L43.2584 65.9718L63.255 54.4302L43.0214 66.1702L63.4479 54.3751L43.6552 65.8836L62.9794 54.7278L43.7654 65.8836L63.6077 54.4302L43.804 65.9828L63.2219 54.7719L43.4898 66.2694L62.9684 55.0254L43.6387 66.3025L62.7038 55.2955L43.6662 66.3962L62.8085 55.3451L44.4158 66.06L62.577 55.5711L44.1513 66.2584L62.2684 55.7971L44.052 66.4458L62.3676 55.8687L43.9473 66.534L62.0369 56.0892L44.1347 66.5119L61.6676 56.3924L44.1072 66.5946L62.2518 56.1168L44.3497 66.4733L62.114 56.216L44.7024 66.308L61.2983 56.7286L44.73 66.3411L61.4967 56.6624L44.0961 66.7269L61.7558 56.5302L44.1954 66.7655L61.6841 56.6679L45.0607 66.3962L61.3369 56.9987L44.7576 66.6773L60.7747 57.4286L44.5646 66.804L60.7912 57.4396L45.2757 66.4844L61.0503 57.379L45.1875 66.6222L61.0778 57.4506L45.3308 66.556L60.9951 57.5112L45.6449 66.4072L61.0117 57.5333L44.9725 66.8757L60.1408 58.1175L45.1103 66.8316L60.6203 57.875L45.6449 66.5946L60.207 58.1892L45.3859 66.8261L60.2235 58.2608L45.9701 66.5615L59.4519 58.7789L45.9426 66.7048L59.2259 59.0325L46.3339 66.6001L59.1101 59.2199L46.378 66.6166L59.033 59.3081L46.5158 66.5505L59.1322 59.264L46.2953 66.7159L58.796 59.501L46.0473 66.8977L59.1487 59.3356L46.4276 66.782L58.57 59.7711L46.6922 66.6662L58.8566 59.6443L46.2843 66.9859L58.3495 60.0191L46.6867 66.793L58.2448 60.1183L47.1056 66.6773L57.7267 60.5482L46.6756 66.9473L57.6054 60.6364L47.2764 66.6993L57.7763 60.6364L47.6071 66.5891L56.922 61.2096L47.8662 66.5395L56.8944 61.3254L47.6898 66.7324L56.2881 61.7663L48.1638 66.4678L56.5196 61.6451L47.7174 66.7599L56.933 61.4411L48.0205 66.6607L55.8802 62.1246L48.4725 66.4513L55.6873 62.2844L48.6047 66.4127L55.4999 62.4332L48.6433 66.5174L55.5165 62.549L49.178 66.319L55.1141 62.8907L48.7315 66.5891L55.2684 62.8135L49.5969 66.1812L54.1771 63.5356L50.0874 65.9773L53.5157 63.9986L50.2803 65.9167L53.3393 64.1529" stroke="#C1694F" stroke-width="0.3" stroke-linecap="round" stroke-linejoin="round"/>
</svg>
