<svg width="84" height="84" viewBox="0 0 84 84" fill="none" xmlns="http://www.w3.org/2000/svg">
<path d="M53.8444 39.0804L66.5616 31.7334L53.9295 39.0682L66.7258 31.6787L54.562 38.831L66.8414 31.7395L54.7323 38.7824L66.5555 31.9585L54.5499 38.9222L66.7805 31.8612L55.1216 38.6972L66.7136 32.0011L55.0242 38.7824L66.6285 32.0862L55.1216 38.8067L67.036 31.9281L55.5351 38.7155L67.115 32.0254L55.5716 38.7337L67.1759 32.0315L55.5351 38.8736L67.0481 32.22L55.7176 38.8249L67.1455 32.2261L55.7845 38.8553L67.1759 32.2747L55.7176 38.9283L67.2306 32.2808L55.9304 38.8371L67.0177 32.4389L56.0886 38.8493L67.0664 32.5058L55.9852 39.0378L67.334 32.4876L56.1676 39.0013L67.3097 32.5667L56.2467 39.0682L67.4982 32.5727L56.1859 39.2324L67.334 32.7917L56.7393 39.05L67.705 32.7187L56.8306 39.1047L67.5712 32.9012L56.4657 39.4392L67.7172 32.9437L56.8427 39.3601L67.7536 33.0654L56.788 39.4818L67.6442 33.2174L57.1651 39.3419L67.9604 33.108L56.7941 39.5669L67.7476 33.2418L57.086 39.421L68.0517 33.0897L57.2867 39.3601L67.9057 33.2296L57.1894 39.5304L68.1064 33.2235L56.94 39.719L68.2098 33.2113L57.0069 39.7615L67.8509 33.5033L57.232 39.7372L68.0699 33.4789L57.2989 39.7859L68.3497 33.406L57.5178 39.6946L68.1794 33.5398L57.3536 39.8224L68.3132 33.4972L57.4996 39.8832L68.0517 33.7891L57.2381 40.0535L68.0881 33.7952L57.7733 39.8406L68.2463 33.7952L57.6699 39.9197L68.149 33.8682L57.5665 40.0352L68.3193 33.8256L57.6273 40.0474L68.2645 33.9047L57.5239 40.1812L68.1915 34.0202L57.5665 40.1994L68.5929 33.8317L57.8767 40.1143L68.3253 34.0811L58.0165 40.0656L68.6355 33.9351L57.5908 40.3332L68.3253 34.1297L57.6638 40.4305L68.7693 34.0202L57.7368 40.5096L68.818 34.1115L58.0652 40.467L68.6477 34.3547L57.8767 40.6373L68.9639 34.2331L58.1138 40.5096L68.7815 34.3487L57.9436 40.6191L68.8301 34.3304L57.7489 40.7711L68.8849 34.3426L57.9253 40.8076L69.0552 34.3791L57.8341 40.9049L68.9457 34.4885L58.2963 40.759L69.1221 34.5129L58.2781 40.8198L69.1768 34.525L58.1747 40.9232L69.0248 34.6588L58.0044 41.0935L69.0065 34.744L58.0348 41.1482L69.3471 34.6163L58.1564 41.1665L69.3349 34.7136L58.0105 41.2881L69.2741 34.7866L58.4179 41.13L69.1707 34.9204L58.3875 41.2212L69.0673 35.0602L58.5578 41.1786L69.3471 34.9508L58.3693 41.3489L69.341 35.0116L58.3754 41.3854L69.3532 35.042L58.0774 41.7017L69.2619 35.2427L58.5943 41.4766L69.5052 35.1819L58.4119 41.6773L69.7607 35.1271L58.199 41.8415L69.7424 35.1758L58.2416 41.9632L69.3897 35.5285L58.5092 41.8294L69.7424 35.3461L58.4179 42.0301L69.931 35.3826L58.3754 42.1091L69.9553 35.4252L58.5517 42.1335L69.56 35.7779L58.345 42.2673L69.8519 35.6198L58.351 42.3707L69.9005 35.7049L58.4544 42.3403L70.0526 35.6441L58.5153 42.322L69.9796 35.7049L58.5031 42.3768L69.931 35.7779L58.6369 42.3828L70.0587 35.784L58.2477 42.6261L69.9857 35.8509L58.4058 42.5835L70.2168 35.7597L58.272 42.7903L70.1864 35.9117L58.5396 42.7721L70.1803 36.0516L58.4666 42.9302L70.1682 36.1732L58.3875 42.9971L70.4236 36.0455L58.5153 42.9667L70.0039 36.3314L58.0713 43.283L70.2715 36.2401L58.4727 43.1309L70.4114 36.2401L58.5213 43.2221L70.4479 36.3374L58.1625 43.5627L70.3688 36.5138L58.2416 43.5627L70.2411 36.6294L57.9131 43.8182L70.4236 36.599L58.0044 43.879L70.454 36.6963L58.2112 43.8972L70.5331 36.7875L57.9861 44.1223L70.7581 36.751L57.8158 44.2621L70.6547 36.8483L57.7064 44.4446L70.7824 36.8909L57.7064 44.5237L70.7216 37.0125L57.3779 44.8521L70.6243 37.2011L57.1164 45.0224L70.5939 37.2376" stroke="#40C0E7" stroke-width="0.3" stroke-linecap="round" stroke-linejoin="round"/>
<path d="M25.746 49.9676L62.73 28.6141L25.6852 50.0101L63.1983 28.3525L25.6913 50.1257L63.1253 28.5168L25.9832 49.9797L62.9124 28.6566L25.7886 50.1683L63.0158 28.6749L26.0379 50.0588L63.0401 28.6931L25.8798 50.1622L63.1679 28.6323L25.8494 50.2291L63.4355 28.5289L26.1961 50.1379L63.1618 28.7965L26.2508 50.2169L63.4233 28.76L26.3177 50.3021L63.5145 28.8269L25.8798 50.6244L63.6727 28.8026L26.1535 50.4724L63.3868 28.979L26.117 50.5758L63.6362 28.9182L26.4393 50.4298L63.6422 28.9486L26.3359 50.521L63.4598 29.0945L26.1474 50.7035L63.9038 28.906L26.2751 50.6487L63.6605 29.0641L26.1717 50.8494L64.0011 29.0094L26.4515 50.819L64.0862 29.0884L26.5184 50.813L64.0376 29.1553L26.5914 50.8251L63.8308 29.3256L26.561 50.9832L63.776 29.4959L26.8103 50.8738L63.9463 29.4351L26.4697 51.0866L64.2139 29.2952L26.7434 51.0441L64.1957 29.423L26.7799 51.1475L64.3599 29.4473L27.0597 51.0866L64.3721 29.5446L26.8772 51.2934L64.3356 29.6662L26.9441 51.2752L64.5606 29.5568L27.1083 51.2873L64.2991 29.8183L27.011 51.4759L64.591 29.7757L27.303 51.3603L64.5849 29.8365L27.1813 51.5063L64.5971 29.9095L27.2178 51.5671L64.4207 30.092L27.4064 51.5975L64.889 29.9521L27.4672 51.634L64.8951 30.0251L27.23 51.8469L64.7674 30.171L27.4672 51.8469L64.7066 30.3474L27.3577 52.0476L65.2539 30.171L27.4915 52.078L65.2539 30.2805L27.5037 52.1145L65.0107 30.4569L27.8017 51.9746L65.4121 30.2562L27.528 52.224L65.4486 30.3292L27.6983 52.2483L65.4607 30.4447L27.9051 52.2604L65.3938 30.6211L27.7652 52.3821L65.4547 30.6272L27.9294 52.4064L65.2783 30.8461L28.0936 52.4247L65.3269 30.9313L27.7834 52.6436L65.5155 30.8583L27.972 52.5949L65.6797 30.8218L28.0693 52.5767L65.6797 30.8644L28.1788 52.522L65.6128 30.913L27.8503 52.7409L65.6858 30.8948L27.9172 52.7713L65.929 30.8218L28.2092 52.6801L65.8439 30.9495L28.4159 52.7044L66.0811 30.9617L28.0693 52.9112L66.0568 30.9799L28.3673 52.8017L65.8682 31.1563L28.2943 52.9234L65.8378 31.2536L28.5254 52.8321L66.2149 31.0711L28.3247 53.0511L66.0203 31.2901L28.6653 52.9538L65.9959 31.3996L28.3673 53.1545L66.2635 31.2779L28.8903 52.9842L66.1419 31.4786L28.6288 53.2031L66.1662 31.5334L28.7869 53.1666L66.1358 31.6063L28.6896 53.3309L66.6163 31.4361L28.9329 53.3369L66.2331 31.801L28.7383 53.5012L53.8261 39.0141L29.237 53.3552L53.4916 39.3547L28.9025 53.5924L53.8017 39.2148L29.1823 53.5376L53.1692 39.6892L29.383 53.4586L53.3882 39.598L28.9025 53.7748L53.078 39.8169L29.4316 53.5133L53.4368 39.6588L29.0789 53.8296L53.3334 39.823L29.4255 53.7566L53.3517 39.9446L29.1275 53.9999L52.9199 40.2609L29.3343 54.012L52.7496 40.492L29.5898 53.9086L52.8165 40.4981L29.4377 54.1033L53.1084 40.4373L29.6323 54.1093L52.853 40.6988L29.8148 54.085L52.7496 40.8447L29.4864 54.3283L53.005 40.7474L29.9182 54.1945L52.7009 41.0394L29.754 54.3222L52.853 40.9846L29.608 54.4621L52.6584 41.1549L29.833 54.3526L52.5185 41.2522L29.6931 54.4986L52.9868 41.0454L29.9486 54.3891L52.8165 41.1914L30.2284 54.2979L52.8469 41.2401L29.833 54.5412L52.5915 41.4043L29.8148 54.6385L52.5306 41.5259L30.0763 54.5472L52.6644 41.5077L30.0155 54.6689L52.5732 41.6475L30.1128 54.6689L52.5489 41.7144L30.4655 54.5047L52.7253 41.6536L30.4777 54.529L52.5002 41.8118L30.3561 54.7297L52.8895 41.7205L30.5142 54.7783L52.78 41.9212L30.2344 54.9486L52.7253 41.9699L30.6176 54.7601L52.8469 41.9273L30.3439 54.9912L52.5732 42.1584L30.6723 54.9304L52.7435 42.1888L30.9156 54.9182L53.0172 42.1584L30.6906 55.125L52.7313 42.4017L30.9278 55.0399L52.7192 42.4564L31.0798 55.0216L52.6584 42.5659L30.9399 55.2162L52.5915 42.7119L31.0555 55.1737L52.8955 42.5598L31.0677 55.2467L52.7982 42.6997L30.9764 55.35L52.6766 42.8274L30.9825 55.4717L52.8712 42.8335L31.0616 55.5264L52.8591 42.943L31.2684 55.4778L53.1206 42.8639L31.3048 55.5872L53.1449 42.9734L31.5299 55.5447L53.0233 43.1376L31.2015 55.7636L53.1571 43.095L31.4934 55.6967L53.2483 43.1315L31.3657 55.8244L53.1449 43.2532L31.4326 55.8609L53.1753 43.3079L31.4204 55.9035L53.3639 43.2288L31.4265 55.9157L53.2544 43.3079L31.6576 55.8244L53.0476 43.4721L31.4995 55.9765L53.0111 43.5573L31.9556 55.8244L53.1692 43.5755L31.8279 55.9339L53.4855 43.4235L32.132 55.8427L53.1692 43.6971L31.9556 55.9522L53.1875 43.6971L31.986 55.9582L53.0537 43.7945L31.7002 56.1772L53.1145 43.8127L32.1624 56.0555L53.2422 43.8857L32.0651 56.1224L53.6071 43.6789L32.0833 56.1711L53.5463 43.7762L32.1989 56.1346L53.4977 43.837L32.0772 56.2198L53.3943 43.9161L32.059 56.2441L53.376 43.9343L32.1502 56.1954L53.376 43.9465L32.2354 56.165L53.7105 43.7701L32.3874 56.1468L53.6801 43.8553L32.1198 56.4022L53.82 43.8735L32.3084 56.384L53.3882 44.208L32.4178 56.4448L53.5706 44.2324L32.4665 56.4813L53.6254 44.2688L32.4969 56.5117L53.8991 44.1533L32.8071 56.3414L53.8565 44.1898L32.6794 56.463L53.972 44.1715L32.6976 56.5907L53.8078 44.4026L32.947 56.5907L54.191 44.3236L33.099 56.5421L54.2518 44.3297L33.172 56.5603L54.2092 44.4087L32.874 56.8705L53.9356 44.7128L32.8922 56.9009L54.045 44.6885L33.1902 56.7671L54.3065 44.5729L33.172 56.9009L54.3005 44.7007L32.9956 57.0651L54.4221 44.6946L33.1355 57.1199L54.7201 44.6581L33.5065 56.98L54.4403 44.8953L33.4943 57.0286L54.6167 44.8345L33.768 56.9617L54.7809 44.8284L33.7011 57.0286L54.6106 44.9561L33.5065 57.2598L54.9938 44.8527L33.8288 57.1868L55.1763 44.8649L33.622 57.351L54.9512 45.0412L33.7437 57.3631L55.2918 44.9257L33.7133 57.4483L55.4743 44.8831L33.7863 57.5517L55.4256 45.0595L33.9322 57.5517L55.4135 45.1507L34.212 57.5213L55.6811 45.1203L34.2485 57.6368L55.6689 45.2724L34.6499 57.5517L56.0338 45.2055L34.51 57.722L56.417 45.0717L34.364 57.9288L56.3683 45.2237L34.9175 57.7341L56.7028 45.1568L34.5526 57.9896L57.0616 44.9926L34.735 57.8984L56.867 45.1203L34.6316 58.0078L57.013 45.0899L34.881 58.0078L70.904 37.2078L34.7594 58.1051L70.9284 37.2199L35.0148 58.0382L70.7763 37.3902L35.3067 57.8984L70.9892 37.299L35.2155 57.9713L70.9162 37.3598L35.1668 58.1295L71.1047 37.3781L34.954 58.2754L71.2446 37.3172L35.4709 57.9835L71.2142 37.3477L35.0939 58.3362L71.2629 37.451L35.2398 58.3727L71.0561 37.6943L35.8054 58.166L71.4514 37.5848L35.5622 58.4153L71.3602 37.7491L35.9088 58.2268L71.0926 37.9133L35.4344 58.543L71.2142 37.8829L35.9028 58.3484L71.275 37.9254L35.6108 58.6221L71.4879 37.9072L36.0305 58.391L71.123 38.1322L36.1095 58.4396L71.5609 37.9741L35.994 58.5978L71.2993 38.2113L35.9818 58.7377L71.2689 38.3633L36.1095 58.7924L71.8041 38.1809L36.6022 58.6282L71.6764 38.3755L36.6326 58.6951L71.9015 38.3329L36.2555 58.9262L71.9319 38.3329L36.7056 58.8106L71.9379 38.4667L36.7177 58.9444L71.6399 38.783L36.8637 58.9262L72.09 38.5884L36.7664 59.0478L71.719 38.8681L36.7968 59.1695L71.6825 39.0263L36.9063 59.1451L72.1082 38.8195L37.2104 59.1086L72.163 38.9289L37.107 59.2607L71.9684 39.1296L37.484 59.06L72.0109 39.1296L37.3624 59.2364L71.9015 39.2999L37.4536 59.2364L72.3454 39.0871L37.4476 59.3033L71.9258 39.3972L37.4232 59.358L72.3211 39.2087L37.7334 59.285L71.9805 39.5128L37.5266 59.4127L71.9684 39.5311L37.8125 59.3763L72.2846 39.4763L37.8733 59.4736L72.4306 39.5189L38.0132 59.5222L72.4914 39.6101L37.928 59.6195L72.3637 39.7378L38.2929 59.4918L72.5218 39.7257L38.299 59.6013L72.3272 39.9568L38.2017 59.7898L72.5157 39.975L38.7187 59.5648L72.4062 40.1149L38.8646 59.6195L72.4245 40.2426L38.8281 59.6803L72.6921 40.1271L38.9194 59.6378L72.3454 40.3339L38.5666 59.8811L72.6252 40.2122L38.6274 59.8993L72.7103 40.2183L38.968 59.7351L72.5765 40.3278L38.8586 59.9175L72.6009 40.4312L39.2235 59.7716L72.5096 40.5528L39.1079 59.9601L72.5644 40.644L39.1931 60.0453L72.8989 40.5832L39.2721 60.1061L72.6738 40.8204L39.3086 60.1L72.6252 40.863L39.5945 60.0149L72.8016 40.8447L39.8195 59.9723L72.7772 40.9481L39.4789 60.2703L72.6799 41.1002L40.0871 60.0392L72.7712 41.1671L39.71 60.3007L72.8746 41.1549L39.7526 60.3311L72.9293 41.1732L39.9959 60.2703L72.6617 41.4164L40.0567 60.2885L73.0448 41.2461L40.0871 60.2885L72.7712 41.4164L40.1053 60.4163L72.7408 41.5746L40.227 60.4406L73.0205 41.5077L40.5858 60.2581L72.8806 41.6171L40.6892 60.2216L72.7103 41.7327L40.5372 60.3615L72.8685 41.7023L40.4459 60.5014L72.8746 41.7753L40.5128 60.5136L72.8867 41.8178L40.9386 60.398L72.686 42.0672L40.7743 60.623L72.9779 42.0307L40.7318 60.6656L72.9719 42.049L41.0176 60.6291L72.984 42.1706L41.1575 60.6717L72.9293 42.3287L41.2791 60.7204L72.7043 42.5781L41.3886 60.7751L72.6738 42.7119L41.4738 60.769L72.905 42.6207L41.492 60.7812L72.5218 42.8639L41.5467 60.8359L72.7286 42.8335L41.7231 60.7812L72.7043 42.8943L41.9056 60.769L72.9171 42.8639L41.8934 60.8785L72.4914 43.2167L42.2279 60.7264L72.7347 43.1133L42.3252 60.7568L72.3698 43.4113L42.2705 60.842L72.5279 43.3687L42.2522 60.8906L72.2785 43.5512L42.6901 60.696L72.1873 43.6667L42.5867 60.842L72.5157 43.5633L42.8969 60.7325L72.3698 43.7154L42.9273 60.8542L72.09 44.0195L42.8544 61.0366L72.2846 44.0438L43.4321 60.8298L71.8041 44.4513L43.2375 61.0001L71.8528 44.4817L43.5781 60.8359L72.1326 44.354L43.6632 60.8663L72.0353 44.4878L43.4686 61.067L71.5913 44.8284L43.8092 61.0062L71.4331 45.0595L43.7058 61.1582L71.2993 45.2237L44.0221 61.0913L71.5791 45.1811L43.9673 61.1461L71.4575 45.2724L44.1072 61.1826L71.5548 45.3393L44.2653 61.1522L71.0926 45.6677L44.4539 61.1157L71.4149 45.546L44.8006 61.0549L71.0135 45.9231L45.0438 61.0549L70.831 46.1664L45.1533 61.1035L71.0013 46.1786L45.1533 61.213L70.6303 46.507L45.3418 61.1947L70.825 46.4827L45.4574 61.1522L70.3567 46.7807L45.3844 61.2495L70.7155 46.6225L45.3297 61.3225L70.1742 46.9753L45.7797 61.1947L70.3871 46.9874L45.8831 61.2251L70.2046 47.1881L46.2602 61.1278L69.791 47.5409L46.2541 61.1947L70.0343 47.4679L46.2845 61.292L69.9552 47.626L46.5156 61.2312L69.9552 47.699L46.3697 61.4076L69.7363 47.9119L46.613 61.3894L69.3714 48.2464L47.0204 61.1887L69.1889 48.3924L47.0204 61.3103L69.1099 48.5566L47.4523 61.1643L69.1828 48.6174L47.6834 61.1096L68.9396 48.8363L47.7868 61.1339L68.599 49.1222L48.1578 61.0427L68.4713 49.3168L48.1456 61.0609L68.6294 49.2377L48.1821 61.1826L68.5078 49.4445L48.4862 61.1096L68.0334 49.8216L48.328 61.2069L68.1185 49.779L48.7842 61.0427L68.0942 49.8946L48.6747 61.2495L67.9117 50.1439L49.0092 61.1339L67.9665 50.1926L49.1552 61.1278L67.7171 50.4115L49.3072 61.1278L67.6137 50.5575L49.4897 61.0731L67.1941 50.8494L49.7147 61.0731L67.2306 50.9589L50.1222 60.8846L66.8656 51.2144L49.9884 61.0244L66.8839 51.2691L50.1405 60.994L66.7014 51.4333L50.627 60.7994L66.6467 51.5549L50.6088 60.8298L66.3973 51.7131L50.7365 60.7933L66.2635 51.8347L50.481 60.9697L66.5433 51.6948L51.1014 60.6656L66.3426 51.8651L50.9919 60.7447L66.1054 52.0233L51.1561 60.7568L65.929 52.23L51.5089 60.6413L65.7283 52.4307L51.4846 60.6656L65.8925 52.3456L51.4846 60.7325L65.3026 52.7531L51.8373 60.623L65.1688 52.9234L52.1779 60.4588L64.9681 53.0754L51.892 60.6413L65.0715 53.0328L52.6036 60.3737L64.8221 53.3187L52.3664 60.5257L64.5241 53.5072L52.9442 60.3311L64.1349 53.8721L53.2665 60.2034L64.3173 53.8235L53.8382 59.9601L63.7396 54.2431L53.9538 59.9966L63.3686 54.5594L53.9842 60.0088L63.4233 54.5594L54.7019 59.6621L62.7969 54.9851L55.2432 59.4918L62.213 55.4656L55.7905 59.1999L62.2677 55.4595L55.5898 59.3276L62.0792 55.5812L56.0825 59.1269L61.4284 56.0434L56.6359 58.8654L60.5344 56.6151" stroke="#40C0E7" stroke-width="0.3" stroke-linecap="round" stroke-linejoin="round"/>
<path d="M33.3727 27.5492L37.5205 25.1529L32.6489 28.0844L38.1105 24.934L31.5055 28.8568L39.0836 24.4778L30.8791 29.3494L39.7343 24.2406L30.6419 29.611L40.604 23.8575L30.3682 29.8664L40.604 23.9548L29.8695 30.286L41.4433 23.602L29.7357 30.3773L41.0906 23.8271L29.3404 30.6874L41.7535 23.523L29.2187 30.803L41.7292 23.5838L29.0667 31.0159L42.3799 23.3344L28.866 31.2044L42.7205 23.2067L28.6531 31.4234L42.9273 23.1824L28.27 31.7761L43.0733 23.225L28.0693 31.9221L43.3652 23.0972L28.0388 32.0559L43.2375 23.2797L27.8321 32.1897L43.3409 23.2311L27.7043 32.3721L43.718 23.1277L27.8077 32.3478L43.6389 23.2067L27.6314 32.5789L44.1984 23.0121L27.1752 32.9073L44.4539 22.933L27.011 33.1445L44.5268 23.0303L27.2421 33.0168L44.7093 22.933L26.7738 33.3696L44.6911 23.0243L26.5914 33.5581L45.0134 22.9209L26.6583 33.5338L45.0925 22.8905L26.2873 33.8379L45.129 22.9574L26.3602 33.8439L45.3479 22.8844L25.9892 34.2028L45.5973 22.8783L26.1474 34.1724L46.0108 22.708L26.0379 34.2758L45.8588 22.8296L26.1231 34.2636L45.6946 22.9574L25.8494 34.4825L46.096 22.7932" stroke="#40C0E7" stroke-width="0.3" stroke-linecap="round" stroke-linejoin="round"/>
<path d="M12.6396 29.1308L14.0263 28.328L12.0132 29.5809L14.5676 28.103L12.1166 29.6174L14.7622 28.0908L11.6544 29.9944L14.9629 28.0847L11.9463 29.8485L15.2609 27.9327L11.9767 29.8606L15.0724 28.0726L11.6848 30.1343L15.3461 28.0239L11.4719 30.3837L15.5042 28.0543L11.332 30.5114L15.5833 28.0604L11.2712 30.6634L16.2158 27.811L11.5753 30.6269L16.2827 27.9083L11.4598 30.7729L16.0637 28.1151L11.2469 30.931L16.3253 28.0057L11.2043 30.9858L16.3374 28.0239L11.2165 31.0223L16.2766 28.0969L11.3138 31.0101L16.228 28.1759L11.1617 31.1865L16.605 28.0482L11.2712 31.1926L16.5685 28.1334L11.2712 31.2595L16.5746 28.2003L11.1557 31.4541L16.6354 28.2915L10.955 31.673L16.9821 28.1942L11.0705 31.6852L17.2619 28.1151L11.1678 31.6609L17.2132 28.1699L11.326 31.6852L17.3227 28.2246L11.0766 31.8372L17.3835 28.2003L11.0583 31.9041L17.122 28.4071L11.1921 31.8859L17.3349 28.3402L11.3077 31.9528L17.2254 28.5348L11.332 31.9832L17.3105 28.5287L11.3138 32.1048L17.7667 28.3766L11.1374 32.3116L17.7423 28.4922L11.1009 32.4089L17.6694 28.6199L11.0523 32.5245L17.8214 28.6199L11.0705 32.5853L17.8153 28.6868L11.1678 32.5549L18.0586 28.5774L11.3381 32.5184L17.9735 28.6868L11.2773 32.6218L18.0586 28.7112L11.0036 32.8225L18.0404 28.7598L11.0462 32.9016L17.9735 28.8997L11.253 32.8712L18.0404 28.9544L11.2226 32.9502L18.1437 28.9544L11.1435 33.0232L18.0525 29.0396L11.2651 33.0475L18.4478 28.8997L11.3077 33.0719L18.1802 29.1004L11.1192 33.2178L18.1073 29.1795L11.2773 33.1813L18.1559 29.2099L11.6848 33.0354L18.4478 29.1308L11.3989 33.2543L18.5877 29.1065L11.6544 33.2118L18.6425 29.1795L11.7274 33.2787L18.6607 29.2707L11.5692 33.4307L18.533 29.4106L11.332 33.6557L18.8979 29.2889L11.4841 33.5888L18.6121 29.4775L11.4354 33.753L18.8249 29.4836L11.8064 33.6071L19.2993 29.2829L11.6969 33.6861L19.1716 29.3741L11.7456 33.6922L18.8675 29.5809L11.8551 33.7044L19.3297 29.3862L11.8612 33.7895L19.056 29.6356L11.9281 33.8564L19.5426 29.4592L12.0558 33.899L19.573 29.5565L11.6544 34.2639L19.5608 29.6964L11.7821 34.2639L19.5304 29.7876L12.2078 34.0936L19.573 29.8424L12.0619 34.2822L19.8771 29.7694L11.9159 34.4525L19.9136 29.8363L12.1592 34.3673L19.8223 29.9397L12.2382 34.4403L20.1264 29.885L12.3295 34.5194L20.2116 29.9701L12.2504 34.7018L19.9622 30.2499L12.3416 34.7687L20.1204 30.2742L12.2322 34.866L20.388 30.1526L12.3051 34.866L20.1264 30.3472L12.3295 34.9025L20.3454 30.2742L12.1348 35.1154L20.4062 30.3411L12.1713 35.1336L20.5765 30.2803L12.1896 35.1944L20.4184 30.4445L12.3781 35.1762L20.7955 30.3168L12.445 35.2553L20.8076 30.4262L12.6275 35.2127L20.8806 30.4506L12.6822 35.2796L20.8988 30.5357L12.5971 35.4134L21.1604 30.4688L12.664 35.4134L20.8319 30.6999L12.8099 35.4012L20.8076 30.7851L12.4572 35.6749L21.2455 30.6026L12.7491 35.5959L21.1908 30.7182L12.6944 35.7236L21.3671 30.7182L12.8099 35.7479L21.5496 30.6999L12.5545 35.906L21.2029 30.9189L12.8343 35.8574L21.507 30.8459L12.8768 35.9729L21.7138 30.8702L12.7613 36.0702L21.6712 30.925L13.0167 36.0155L21.5739 31.077L12.889 36.2344L21.8415 31.0648L12.8403 36.35L22.1213 30.9919L13.1201 36.3135L22.2429 31.0466L12.9802 36.4777L22.3159 31.0831L13.3877 36.3622L22.4254 31.15L13.1748 36.5203L22.4619 31.1561L13.3391 36.4656L22.2734 31.3081L13.4485 36.4412L22.2977 31.3324L13.2904 36.5446L22.3463 31.3203L13.4364 36.5568L22.5653 31.2899L13.412 36.6176L22.3585 31.448L13.2296 36.7818L22.4801 31.4419L13.2965 36.8305L22.6748 31.4176L13.6249 36.6845L22.4011 31.6183L13.2113 36.9704L22.6079 31.5514L13.4181 36.9399L22.5774 31.6487L13.2722 37.0555L22.8268 31.5392L13.4303 36.9947L22.8876 31.5392L13.412 37.0312L22.766 31.6305L13.3269 37.1102L22.9241 31.5696L13.5945 37.0981L22.9667 31.6852L13.8317 37.0494L23.0518 31.7217L13.3755 37.3718L22.9788 31.8251L13.8317 37.1407L22.8633 31.9285L13.8074 37.2623L23.0701 31.9163L13.7405 37.3414L23.1491 31.9041L13.6796 37.5177L23.21 32.0136L13.8378 37.5664L23.6296 31.9163L14.0567 37.4569L23.5627 31.965L13.9716 37.5907L23.3498 32.1778L14.081 37.6272L23.7452 32.044L13.9047 37.8097L23.8851 32.044L13.9594 37.8036L23.7999 32.1231L13.783 38.0043L23.6661 32.2995L14.0932 37.9009L24.031 32.1657L13.8013 38.1259L23.7634 32.3785L13.8864 38.132L24.0614 32.2569L14.1175 38.1138L23.8851 32.4758L13.8986 38.3205L24.2925 32.3238L14.2453 38.205L24.4142 32.336L14.2088 38.2415L23.9945 32.5914L14.3608 38.2415L24.1952 32.561L14.154 38.4178L24.2804 32.5732L14.1236 38.4543L24.4993 32.4698L14.4216 38.3509L24.4263 32.5792L14.1236 38.6186L24.3716 32.7009L14.5068 38.4118L24.6696 32.5427L14.3243 38.5516L24.548 32.6522L14.3912 38.5699L24.5541 32.7009L14.4825 38.6246L24.7852 32.6765L14.7257 38.6246L25.0041 32.6887L14.4885 38.8983L25.144 32.7495L14.4216 38.9591L24.9311 32.8894L14.4581 39.0747L25.0771 32.9441L14.5433 39.172L25.1866 33.0293L14.8352 39.026L25.1866 33.0536L14.6102 39.1842L25.4055 32.9502L14.7136 39.1477L25.2717 33.0536L14.6892 39.2936L25.3021 33.1692L14.6284 39.3666L25.2839 33.2118L14.8899 39.2936L25.4603 33.1935L15.0055 39.3362L25.5697 33.2361L14.9812 39.4822L25.8069 33.23L14.9325 39.5734L25.8982 33.2422L14.9629 39.6099L25.6914 33.4125L14.8291 39.7072L25.4907 33.5463L15.0967 39.6281L26.0076 33.3273L14.9386 39.7498L26.0989 33.3091L14.8717 39.8471L25.8252 33.528L14.8534 39.9079L26.0989 33.4185L14.9933 39.9626L25.9711 33.6253L15.0359 39.9809L26.2022 33.5341L15.0055 40.0417L26.3604 33.4854L15.2001 39.9809L26.0441 33.7226L15.3947 39.9018L26.2874 33.6132L15.4191 39.9687L26.111 33.7956L15.2913 40.1329L26.1049 33.8868L15.4738 40.0417L26.5489 33.6436L15.3887 40.1694L26.3969 33.8139L15.5407 40.1755L26.2935 33.9659L15.5346 40.285L26.4212 33.9963L15.2731 40.4553L26.7983 33.8078L15.486 40.3884L26.8469 33.8321L15.4738 40.4674L26.5732 34.0632L15.492 40.5161L46.1873 22.7935L15.3157 40.6377L46.1326 22.8482L15.3035 40.6864L46.0657 22.9212L15.4738 40.6377L46.1995 22.8969L15.4799 40.7107L46.6739 22.7022L15.3218 40.8141L46.3333 22.909L15.6137 40.7776L47.0388 22.6353L15.4677 40.9844L46.8746 22.8482L15.9239 40.8019L47.1239 22.7874L15.5529 41.1182L47.2517 22.8178L15.8205 40.9905L47.6835 22.5928L15.7049 41.1547L47.5558 22.7631L15.6198 41.2398L47.7443 22.6901L15.6563 41.325L47.7747 22.7813L15.9664 41.2642L47.8416 22.8665L15.863 41.4649L48.4985 22.6232L16.1854 41.3432L48.2673 22.8239L16.1306 41.5257L48.6992 22.7205L15.863 41.6899L48.6627 22.757L16.234 41.5196L48.7235 22.7631L16.2827 41.5743L49.0762 22.6414L16.3435 41.5987L49.0701 22.7022L16.228 41.7021L48.9424 22.8178L16.3131 41.7629L49.131 22.8117L16.2158 41.8237L49.1735 22.7996L16.4773 41.8115L49.1918 22.9273L16.1428 42.0305L49.581 22.7205L16.0637 42.1278L49.7209 22.6901L16.3678 42.0731L49.6479 22.8604L16.3374 42.1765L49.6175 22.9638L16.234 42.3467L49.9885 22.8604L16.5685 42.1704L50.2561 22.7205L16.2827 42.3893L50.1284 22.8482L16.5199 42.3772L50.2318 22.9151L16.1732 42.663L50.3413 22.9394L16.3435 42.6143L50.2926 23.0124L15.9908 42.8333L50.3109 23.0185L16.3009 42.6813L50.5237 22.9273L15.9786 42.9549L50.7487 22.8786L15.8691 43.1252L50.6636 23.0368L16.1611 43.0462L50.8643 23.0124L15.9056 43.2043L50.8461 23.0307L16.1428 43.0827L51.1988 22.836L16.0516 43.2712L50.9251 23.1401L15.8995 43.3807L51.1806 23.0063L15.5954 43.5631L50.9312 23.1645L15.9725 43.405L51.4238 22.9334L15.9299 43.4901L51.1866 23.1401L15.8691 43.5631L51.6063 22.9334L15.7353 43.6787L51.588 22.9759L15.5164 43.849L51.5759 23.0246L15.413 44.001L51.8435 22.9638L15.6137 43.9767L51.7705 23.0976L15.194 44.3234L52.0381 23.0489L15.2792 44.2808L51.7401 23.2314L15.1454 44.4328L52.0989 23.0976L15.0298 44.6275L52.0259 23.2679L15.3157 44.5788L52.3422 23.207L14.8413 44.9741L52.33 23.3287L15.0785 44.8646L52.7193 23.1341L14.9812 45.0593L52.622 23.3287L14.896 45.2235L52.6767 23.4077L14.8352 45.3451L52.847 23.3956L14.3486 45.7648L52.8652 23.5294L14.1905 45.9959L53.2545 23.4382L14.446 45.8621L53.145 23.5111L14.4642 45.9837L53.3883 23.5111L14.1297 46.3061L53.5282 23.5598L14.002 46.5128L53.7532 23.5598L14.2817 46.4034L53.9782 23.4807L14.1662 46.5189L54.0208 23.5111L13.9412 46.7561L54.1729 23.5294L13.9412 46.8291L53.7897 23.8213L13.929 46.8838L54.106 23.6814L13.8682 47.0359L54.3127 23.6814L13.929 47.048L54.0755 23.87L13.8743 47.1028L54.1789 23.8274L13.6127 47.2792L54.4405 23.7058L13.7344 47.3521L54.6533 23.7301L13.5033 47.5164L54.5134 23.8396L13.6675 47.5346L54.781 23.797L13.2235 47.8509L54.6837 23.9125L13.5519 47.6806L54.8844 23.8152L13.3208 47.9421L54.854 23.9612L12.9498 48.2705L55.1581 23.9004L13.114 48.3192L54.8905 24.1984L13.035 48.3861L54.9331 24.1984L13.187 48.38L55.3345 24.0463L12.6761 48.751L55.4865 24.0281L12.6214 48.8179L55.5778 24.0159L12.8039 48.7145L55.1216 24.2835L12.6275 48.8665L55.2129 24.2835L12.8343 48.8909L55.815 24.0768L12.8464 48.9152L55.7055 24.168L12.6761 49.0368L55.5595 24.2775L12.7248 49.0368L55.8697 24.1315L12.5302 49.1767L55.6812 24.2592L12.5362 49.2801L56.0035 24.1862L12.3051 49.5234L55.8515 24.3808L12.1957 49.6207L55.7298 24.4842L12.5241 49.5295L56.04 24.4052L12.2139 49.8457L56.1312 24.4903L12.2322 49.9491L56.0704 24.6363L12.2686 49.9856L56.1191 24.6728L12.2382 50.0343L56.5144 24.4782L12.1105 50.2532L56.5813 24.5755L11.8368 50.4296L56.6178 24.5755L11.6969 50.533L56.4414 24.6971L11.7882 50.6242L56.6299 24.7397L11.7821 50.7458L56.8732 24.7093L11.8855 50.7641L56.6482 24.9161L11.7091 50.9648L57.1469 24.7336L11.4658 51.1412L56.9584 24.8735L11.3199 51.2324L57.2989 24.691L11.4841 51.2445L57.2807 24.8066L11.6118 51.2932L57.2625 24.9404L11.5388 51.3784L57.0922 25.0803L11.107 51.6824L57.3598 24.9769L11.0401 51.8588L57.7003 24.9161L11.0766 51.8953L57.3294 25.1958L11.1496 51.9318L57.524 25.1532L11.1496 52.0595L57.8524 25.0985L11.2347 52.096L57.9801 25.1107L11.4354 52.0352L58.1139 25.0863L11.0036 52.3758L57.7429 25.3904L11.2712 52.3271L57.9254 25.3904L11.3624 52.394L58.0957 25.4148L11.1374 52.6008L58.5032 25.2566L11.1921 52.6191L58.2112 25.4695L11.1921 52.7589L58.6674 25.3479L11.326 52.8015L58.6552 25.4756L11.1678 53.0083L58.7829 25.5121L11.0523 53.2029L58.7039 25.6945L11.0888 53.3306L58.8073 25.7797L11.1557 53.3367L59.1539 25.6216L11.0888 53.4097L59.0384 25.7249L11.1557 53.507L59.2026 25.7675L11.1982 53.6165L59.0262 26.0047L11.1496 53.7868L59.5492 25.8405L11.5753 53.5557L59.087 26.1203L11.0948 53.8841L59.4094 25.9865L11.3503 53.7625L59.3181 26.0716L11.5084 53.7989L59.5127 26.0777L11.6605 53.7503L59.4519 26.1568L11.3929 54.0301L59.458 26.2784L11.5875 54.0422L59.9142 26.1385L11.4658 54.2186L59.5979 26.4304L11.6969 54.1882L59.7864 26.4244L11.5388 54.3889L59.9689 26.4304L11.8672 54.3037L59.9202 26.5582L11.703 54.5349L60.0662 26.6129L11.6361 54.6382L60.2243 26.5825L11.5631 54.7903L60.2547 26.6737L11.7882 54.7416L60.6622 26.5278L11.9645 54.7599L60.4068 26.7954L11.8064 54.8815L60.3703 26.844L12.1409 54.7173L60.644 26.7102L11.7943 54.9302L60.6622 26.7163L12.22 54.8146L60.8508 26.7345L12.0679 55.0153L60.796 26.8805L12.3477 54.9727L60.7535 27.0265L12.2565 55.1674L61.1244 26.9535L12.293 55.216L60.8447 27.1907L12.2686 55.3012L61.0575 27.1359L12.1896 55.4654L61.3434 27.0873L12.4998 55.3012L61.0028 27.3002L12.5484 55.3255L61.3312 27.1603L12.4998 55.4228L61.2826 27.2515L12.5606 55.4106L61.3981 27.2089L12.7978 55.4167L61.4042 27.3488L12.8768 55.514L61.7205 27.3123L12.7491 55.6235L61.4285 27.5191L12.6031 55.7634L61.7022 27.4157L12.6579 55.7573L61.7022 27.4461L13.187 55.5566L61.9637 27.3975L12.8586 55.8911L61.6292 27.732L13.0167 55.8607L62.0367 27.5617L13.2417 55.812L62.0428 27.6347L13.3634 55.7695L61.7691 27.8232L13.3877 55.8972L62.3104 27.6468L13.7465 55.8242L62.0854 27.9144L13.704 55.8911L62.2131 27.884L13.4789 56.0979L62.3652 27.8779L13.9837 55.9337L62.3347 28.0178L13.783 56.0857L62.2557 28.103L14.1175 55.9215L62.5476 27.9631L14.1784 55.9763L62.7362 27.9388L14.452 55.958L62.5172 28.2064L14.3851 56.1101L62.9247 28.0908L14.3 56.2074L62.5841 28.328L14.6588 56.0979L62.7179 28.3462L15.0116 55.958L62.5902 28.4861L14.9933 56.0492L62.7787 28.4618L15.486 55.9094L22.9545 51.5912L15.8448 55.7451L20.3089 53.1725" stroke="#40C0E7" stroke-width="0.3" stroke-linecap="round" stroke-linejoin="round"/>
</svg>
