<svg width="84" height="84" viewBox="0 0 84 84" fill="none" xmlns="http://www.w3.org/2000/svg">
<path d="M54.1873 32.2356L71.5352 22.0645L54.751 31.9346L70.7971 22.5249L54.3093 32.2947L71.4713 22.2297L54.9195 31.9523L70.8436 22.6134L55.059 31.9582L71.355 22.4009L54.6464 32.2888L71.0121 22.6902L54.379 32.5013L70.9773 22.7669L54.5825 32.46L70.7274 22.9913L54.2919 32.643L70.6518 23.0503L55.1346 32.2593L71.0761 22.9086L55.152 32.3478L71.1807 22.944L54.6696 32.6489L71.2504 22.9263L55.0939 32.4659L70.5007 23.434L55.1811 32.5131L71.0005 23.2333L55.2799 32.5839L70.7448 23.5107L54.6754 33.0208L70.152 23.9476L54.4604 33.2569L70.3147 23.9594L55.2159 32.8791L70.7041 23.7941L54.9021 33.068L70.5239 23.9062L54.8672 33.2215L69.8963 24.408L54.443 33.558L70.5995 24.0833L55.1985 33.1565L70.4135 24.2368L54.4488 33.6052L70.5646 24.1542L55.3438 33.2097L70.3961 24.3844L55.245 33.3218L69.7452 24.8212L55.1985 33.4812L70.1927 24.6914L54.8091 33.7173L69.7161 24.9747L54.7742 33.7469L69.3209 25.2168L55.2217 33.493L69.7626 24.9688L54.5941 33.9712L70.0823 24.8862L55.1171 33.7823L69.2977 25.4647L55.4542 33.7173L69.2105 25.6477L55.0183 33.983L69.6115 25.4234L55.4077 33.8944L69.8033 25.4529L55.6518 33.8472L69.1059 25.9606L55.6286 33.9535L69.3267 25.9192L55.3147 34.2191L69.8149 25.7126L54.8265 34.5379L69.3558 26.0196L55.4716 34.2781L69.8149 25.8661L55.2159 34.5497L69.3209 26.2734L54.9195 34.7976L69.5592 26.2144L54.9602 34.7858L69.7103 26.1377L55.1404 34.7622L69.4081 26.3915L55.7506 34.5025L69.4197 26.4859L55.0067 35.0042L70.1578 26.1199L55.0939 34.9865L70.0997 26.1849L55.8203 34.6323L69.4023 26.6689L55.2043 35.0397L70.2334 26.2262L55.2392 35.1577L70.0009 26.5037L55.7738 34.8744L70.1869 26.421L55.4891 35.0869L69.6696 26.7693L56.0644 34.8094L69.8847 26.7044L55.9831 34.9983L69.9195 26.8224L55.3322 35.4706L69.7859 26.9936L55.5181 35.4293L69.7742 27.0704L55.7971 35.3939L70.0764 27.0172L55.8262 35.4234L69.6929 27.2947L56.2678 35.2227L70.1578 27.0763L55.7971 35.5532L70.2508 27.0763L55.5763 35.7894L70.3903 27.0999L56.1749 35.4942L70.5007 27.094L55.5007 35.9074L69.8265 27.5072L55.7622 35.7658L70.0358 27.395L56.5061 35.4588L70.3438 27.3419L56.0761 35.748L70.4716 27.3065L55.8726 35.9665L70.5239 27.3714L55.8552 36.0137L70.431 27.4659L56.6398 35.6713L70.6692 27.4423L56.5759 35.7598L70.5995 27.5367L56.6572 35.8071L70.4426 27.7197L55.8494 36.2911L70.4426 27.7374L55.9656 36.2557L70.4542 27.7551L56.6805 35.9488L70.5472 27.8142L56.5352 36.1672L70.9191 27.7315L56.5584 36.1731L70.9598 27.7256L56.6805 36.1318L70.8087 27.8496L56.4538 36.3679L70.4542 28.1565L56.3085 36.5863L70.2624 28.4045L57.128 36.2439L70.8843 28.1743L56.8432 36.5155L70.2392 28.6583L56.8548 36.5568L70.6809 28.4517L57.1163 36.5155L70.9017 28.4281L56.6514 36.846L70.4368 28.7587L56.7328 36.911L70.9308 28.5875L57.0699 36.8047L70.5007 28.9299L57.4534 36.6689L70.5646 28.983L56.7967 37.153L70.5879 29.0656L57.5813 36.7693L70.7971 29.0184L57.5115 36.9346L70.3845 29.3844L57.4302 36.9936L70.832 29.1365L57.4767 37.0526L70.9424 29.1601L57.7498 36.9582L71.2097 29.0656L57.7789 36.9641L70.9075 29.2663L57.0699 37.3891L70.5472 29.4848L57.4767 37.212L70.5123 29.5674L57.2675 37.4127L71.0586 29.3254L57.9649 37.1294L70.8087 29.5969L57.3198 37.5898L70.6692 29.7622L57.4244 37.5957L71.0121 29.6264L57.4767 37.6902L71.3027 29.5851L58.3136 37.336L70.6867 30.081L57.6627 37.8437L70.7274 30.1813L57.5057 37.9617L71.1167 29.9806L58.1973 37.6371L70.8378 30.2227L57.8777 37.8437L71.0412 30.1223L57.93 37.8555L70.8378 30.2876L58.1799 37.7787L71.3783 30.0397L58.1218 37.885L70.5879 30.5709L58.5286 37.761L71.3376 30.2463L57.837 38.2156L71.326 30.3053L58.2322 38.0149L70.7622 30.6654L58.0637 38.2333L71.2853 30.4765L58.023 38.3041L71.2155 30.565L58.3484 38.2274L71.4422 30.5473L58.5112 38.2569L71.2562 30.7835L58.2845 38.4104L70.7215 31.1199L59.1563 37.9322L71.2737 30.8248L58.9935 38.0798L71.0586 31.0019L58.6506 38.3514L70.9773 31.1199L58.8192 38.3632L71.3783 30.996L59.4817 37.9913L70.9773 31.2498L58.8889 38.4104L71.2097 31.1849L59.3364 38.2628L71.0993 31.362L59.0168 38.4694L70.9714 31.4564L59.4759 38.2097L70.5298 31.728L58.8541 38.6937L70.6344 31.787L59.4992 38.3277L70.9773 31.5981L58.918 38.7055L70.6111 31.8519L59.0807 38.7292L70.8668 31.8165L59.5166 38.5284L71.0121 31.787L59.6967 38.4694L70.431 32.1766L59.3306 38.741L71.3143 31.7103L59.8304 38.5343L70.7157 32.153L60.0919 38.4399L70.9947 32.0467L60.3883 38.375L71.2853 31.9877L59.9699 38.7528L70.7797 32.4127L60.1907 38.6819L71.233 32.2061L59.8188 38.924L71.2097 32.2475L60.5976 38.5875L70.6867 32.6725L60.2372 38.9299L70.832 32.7138L60.2024 39.0656L70.7274 32.8909L60.7777 38.8L70.7622 32.944L60.9637 38.7823L70.3031 33.3041L60.9579 38.8472L70.6925 33.1388L61.324 38.6878L70.4833 33.3159L61.2427 38.7469L70.0532 33.5816L60.9521 38.9653L70.2334 33.5225L61.2252 38.8885L70.152 33.6524L61.3531 38.9003L70.1752 33.7292L61.1904 39.1306L70.0939 33.9122L61.7715 38.859L70.5937 33.6878L61.7425 38.9712L70.6925 33.7233L61.9401 38.9889L69.6812 34.4493L61.5042 39.2959L69.7219 34.4789L61.8122 39.166L69.6464 34.5733L62.004 39.1247L70.0067 34.4316L61.9866 39.2014L70.059 34.4671L62.3062 39.0892L70.0764 34.532L62.8118 38.9062L70.1927 34.5792L62.3353 39.2368L70.152 34.6501L63.1663 38.8708L69.9486 34.8921L63.6545 38.7173L69.7859 35.1223L63.085 39.1778L68.7107 35.8779L63.5441 38.9771L68.7165 35.9428L64.102 38.6701L69.4023 35.5591L64.0439 38.7882L68.5422 36.1495L64.474 38.5816L69.0885 35.8779L64.0904 38.8354L68.9897 35.9665L64.3112 38.8L68.548 36.3147L64.997 38.5225L67.9726 36.7811L65.212 38.4694L68.2341 36.6985" stroke="#00D26A" stroke-width="0.3" stroke-linecap="round" stroke-linejoin="round"/>
<path d="M58.4239 14.2195L60.4347 13.0389L57.3254 14.9987L61.0507 12.8146L57.8311 14.7862L61.6668 12.5371" stroke="#00D26A" stroke-width="0.3" stroke-linecap="round" stroke-linejoin="round"/>
<path d="M47.556 15.294L50.9209 13.3223L47.4804 15.4416L50.8338 13.4758L47.2654 15.6541L51.136 13.3872L47.492 15.6246L51.2813 13.3991L46.6261 16.1617L52.2809 12.8442L46.7481 16.1736L51.6881 13.2751L46.4866 16.3388L51.537 13.3754L46.5505 16.3152L51.8799 13.1924L46.3704 16.5159L52.7109 12.7969L46.0391 16.8229L52.9899 12.7497L46.5912 16.6222L53.1933 12.7497L45.8299 17.1063L52.5308 13.1747L46.2193 16.9646L52.9608 13.0094L46.3646 16.9233L53.1875 12.9209L45.8241 17.3719L53.0655 13.1275L45.6032 17.6021L53.9314 12.7143L45.4637 17.8087L54.1755 12.6966L46.1263 17.5254L54.0767 12.8619L46.1379 17.5903L54.4545 12.7143L45.4056 18.1511L54.0244 13.098L45.5044 18.1157L54.437 12.8796L45.3649 18.2692L54.2336 13.0685L44.9872 18.523L54.5881 12.8973L45.7078 18.1747L54.408 13.0744L45.7485 18.1983L54.5009 13.0685L45.2487 18.5643L54.809 12.9622L45.1615 18.6942L54.5939 13.1629L44.8942 18.8949L54.9543 12.9917L44.7954 19.0425L54.8148 13.1688L44.9698 18.9953L54.6404 13.3282L44.8593 19.1783L55.6168 12.8678L45.3766 18.9599L55.1577 13.222L45.3126 19.0425L55.8434 12.8737L44.9291 19.4026L55.0879 13.4463L45.3243 19.2137L55.2507 13.3932L45.3766 19.2078L55.4657 13.2869L44.8477 19.5974L56.1457 12.9681L45.2952 19.4675L56.0643 13.1511L44.6269 19.9398L55.5412 13.5407L45.0104 19.7981L56.198 13.2338L45.4521 19.5679L55.6517 13.588L45.3417 19.7745L56.227 13.3872L45.1092 20.0401L55.9074 13.706L45.3533 19.9575L56.3956 13.4876L45.0104 20.2881L56.1689 13.7473L45.1092 20.3235L56.4827 13.6529L44.8245 20.6128L57.2266 13.34L44.4467 20.9551L56.8024 13.7119L44.6617 20.961L56.6106 13.954L44.8768 20.9315L57.4359 13.5584L44.9465 20.9256L57.3487 13.6529L44.8535 21.0968L57.2324 13.8359L44.7896 21.144L56.7617 14.1192L44.5862 21.3211L57.7323 13.6116L44.3479 21.5336L57.1511 14.0248L44.8826 21.2857L57.4591 13.9126L44.7315 21.4569L57.2383 14.1251L44.9698 21.4392L57.5811 14.0425L44.9291 21.5455L57.4998 14.1724L44.9349 21.6753L57.6218 14.2314L45.2778 21.6045L58.017 14.1311L45.2429 21.6635L57.6276 14.4026L45.1674 21.8406L57.924 14.3613L45.1906 21.8642L57.7032 14.5266L44.5513 22.2538L57.6218 14.5915L44.5397 22.3778L57.709 14.6564L44.7082 22.3188L58.511 14.2255L44.8186 22.3837L58.4122 14.4085L44.5048 22.608L58.1972 14.5797L44.7198 22.5313L58.3309 14.5502L45.2313 22.3542L62.3293 12.3129L44.7722 22.6316L62.1085 12.4664L45.1499 22.4604L62.4513 12.3188L44.5978 22.8028L62.5966 12.242L45.1325 22.5608L62.2828 12.5077L45.3359 22.4664L62.6838 12.2952L44.8419 22.8264L63.0616 12.1417L45.4231 22.5726L63.3812 12.0472L44.8651 22.9504L62.6257 12.5372L44.592 23.1511L63.2301 12.2243L45.2022 22.8973L63.5556 12.1299L44.6094 23.3341L63.6079 12.1948L45.0337 23.2102L64.1542 12L45.0279 23.3164L63.7706 12.3247L45.301 23.2633L63.6951 12.4782L45.4347 23.2456L64.1193 12.2834L44.8884 23.588L64.0379 12.3601L45.1383 23.5466L63.9391 12.5195L45.1092 23.6883L64.253 12.4604L44.8245 23.9126L64.2762 12.5018L45.3533 23.6411L64.9039 12.1771L44.8826 23.9421L64.9911 12.1535L45.115 23.9067L64.962 12.2656L45.1964 23.9185L65.055 12.2774L45.0046 24.1251L65.2526 12.2479L45.4114 23.9953L65.1131 12.4427L45.58 23.9126L64.8981 12.5844L44.9523 24.3081L65.4328 12.2952L45.6032 24.0012L65.3107 12.4368L45.2778 24.2196L65.4967 12.3601L45.0918 24.3613L65.1422 12.608L45.6207 24.1783L65.4909 12.5254L44.9872 24.6387L66.0197 12.307L45.1848 24.5679L65.8686 12.4368L45.0453 24.7391L66.0139 12.4427L45.9112 24.3731L65.7001 12.7674L45.2255 24.8099L66.258 12.4723L45.9287 24.4675L65.8861 12.7615L45.4173 24.8926L66.7113 12.4014L45.8473 24.7509L66.4091 12.6966L45.3185 25.0992L66.3859 12.7438L46.0972 24.7037L66.8973 12.5077L46.0798 24.745L66.3626 12.8501L45.8996 24.987L66.2696 13.039L45.3649 25.4061L67.3041 12.5431L45.9171 25.0933L67.0949 12.6671L45.7369 25.2704L66.473 13.1157L46.1263 25.111L66.845 12.9622L46.2483 25.1169L66.7113 13.1157L45.6788 25.477L66.9205 13.0213L45.8648 25.4711L67.4204 12.8264L45.5974 25.6364L67.5308 12.7733L45.795 25.5537L67.5889 12.7792L45.6381 25.7544L67.3681 13.0094L46.3239 25.4002L67.5424 12.9504L46.1088 25.6009L67.6354 12.9799L45.6672 26.0024L67.461 13.2161L45.9229 25.9315L67.1763 13.4699L45.9577 25.9965L67.5947 13.3046L45.8357 26.1617L67.2692 13.5939L46.3704 25.9906L67.5773 13.5584L46.1263 26.2208L68.1003 13.3341L46.4575 26.0555L67.5366 13.6883L46.7888 25.9256L68.3851 13.2633L46.3123 26.3447L68.234 13.4876L46.1495 26.451L67.955 13.6647L46.5157 26.3034L68.0713 13.6588L46.7249 26.2621L67.9085 13.8359L46.5912 26.4038L68.2456 13.706L46.7423 26.4392L68.4607 13.706L47.0678 26.3388L68.3212 13.8713L46.3064 26.8052L68.1759 13.9835L47.3293 26.327L69.0244 13.6057L46.6087 26.8229L68.4839 13.9953L47.4223 26.4746L68.4083 14.1665L47.2538 26.693L69.1697 13.8418L47.3061 26.6989L68.5362 14.2491L46.8411 27.0118L68.327 14.4144L47.6257 26.6753L68.9081 14.1901L47.5792 26.7166L68.7106 14.32L47.0271 27.0885L68.943 14.2432L47.6954 26.7344L69.129 14.1606L47.3526 26.9587L68.914 14.314L47.37 27.0413L69.1057 14.2963L47.3002 27.2007L68.7629 14.6092L47.5269 27.1417L68.6931 14.7273L47.7361 27.0826L68.7977 14.7332L47.9802 27.0767L69.1464 14.6623L47.4165 27.4664L69.6288 14.4439L47.4455 27.5431L69.2627 14.745L47.3526 27.6612L69.1929 14.8512L47.5792 27.5549L69.0186 14.9811L48.2708 27.2184L69.0999 14.9988L48.3696 27.242L69.6637 14.7509L48.3928 27.2479L69.2685 15.0106L47.8989 27.5903L69.3673 14.9988L47.6954 27.7438L69.1348 15.17L47.6722 27.8028L69.9775 14.7214L48.451 27.4368L69.6288 15.0165L48.1197 27.7202L69.2743 15.3176L48.4103 27.6375L70.0705 14.9398L48.2127 27.8855L69.9484 15.1346L48.4045 27.8028L69.4893 15.4416L48.079 28.0272L69.3789 15.536L48.5963 27.8264L69.9717 15.294L48.2417 28.098L70.2507 15.1877L48.8229 27.7615L69.8903 15.4061L48.5846 27.974L70.4308 15.1582L49.0496 27.7674L69.6811 15.6718L48.7009 28.0094L69.745 15.6659L48.2127 28.3223L70.5529 15.2172L48.387 28.2633L69.9426 15.6187L49.0321 27.974L70.2448 15.536L49.3866 27.9091L70.2274 15.6895L49.4913 27.974L69.8555 16.0319L49.3518 28.0685L69.9368 16.0024L49.2239 28.1865L70.64 15.6246L49.1832 28.3282L70.8434 15.6305L48.8462 28.6293L70.4773 15.9374L49.1077 28.5171L70.4773 15.9847L49.4041 28.4404L70.2739 16.2031L49.468 28.5053L70.4889 16.1736L49.683 28.4109L70.3146 16.3093L49.9388 28.2928L70.6982 16.1145L49.5726 28.5702L70.3495 16.392L49.9388 28.3813L70.1693 16.5159L50.055 28.3341L70.8493 16.144L49.8051 28.5112L70.8434 16.1736L49.4215 28.7532L71.0469 16.0732L49.3169 28.9067L70.2216 16.6458L49.6424 28.8123L70.3204 16.6871L49.8748 28.8182L70.7156 16.5927L49.9794 28.8713L70.6575 16.7403L49.7528 29.0484L70.6517 16.7934L50.4792 28.6883L70.5994 16.8937L50.7291 28.6706L70.8725 16.8524L50.6943 28.8005L71.2154 16.7698L50.8803 28.7946L70.6459 17.2066L50.5141 29.0602L70.9655 17.0649L51.2348 28.647L70.7156 17.2243L50.4269 29.2019L71.0875 17.0826L51.0778 28.9362L71.0062 17.2479L51.1185 28.9303L70.797 17.3896L51.2871 28.9008L71.0701 17.3011L51.4324 28.9303L71.3897 17.2243L50.9326 29.3022L70.6517 17.7379L51.0662 29.255L70.9655 17.5844L51.0604 29.3967L71.6048 17.3483L51.6706 29.137L71.5583 17.4723L51.566 29.2137L71.2561 17.6671L51.4033 29.4203L71.1747 17.8264L50.9907 29.7804L71.2328 17.9091L50.7117 30.0638L71.5234 17.8619L50.055 30.4947L71.1805 18.1098L50.5199 30.3412L70.8144 18.4404L49.8283 30.8194L70.9248 18.4463L49.7121 30.9492L71.2328 18.3282L49.7877 30.9551L71.6803 18.1157L49.7993 31.0024L70.9655 18.588L49.3808 31.268L71.0294 18.5762L48.7997 31.7048L71.0004 18.6824L49.3111 31.4392L71.3839 18.4935L48.6079 31.941L71.3723 18.5939L48.8578 31.8583L71.3607 18.6588L48.7067 31.9705L71.2619 18.7414L48.7648 31.9646L71.8605 18.4168L48.3347 32.2302L71.0294 18.9244L48.0093 32.5077L71.1282 18.9481L48.2824 32.4014L71.3374 18.8772L47.8117 32.7851L71.2561 19.0366L47.9744 32.7025L71.6513 18.8182L47.6896 32.9681L71.2096 19.1724L47.8059 32.9327L71.8837 18.8123L47.4978 33.1629L71.0875 19.3318L48.1023 32.8678L71.3142 19.255L47.9802 33.0213L71.6164 19.1606L47.678 33.281L71.3897 19.379L48.0441 33.1334L71.0701 19.6269L48.4045 33.0449L71.6571 19.4085L48.573 32.9858L71.6745 19.438L48.3638 33.1216L71.692 19.438L47.8349 33.5466L71.0004 19.9634L48.2476 33.3991L71.1921 19.9457L48.0616 33.5348L71.0992 20.0224L48.3638 33.4168L71.7617 19.6919L48.852 33.2043L71.6455 19.8335L48.5614 33.5053L71.5815 20.0047L49.0902 33.2869L72 19.8512L48.2882 33.8536L71.5118 20.2349L48.3231 33.9008L71.5699 20.2645L48.4161 33.8536L71.7908 20.1464L49.1774 33.5348L71.198 20.6187L49.1484 33.6057L71.227 20.66L48.5323 34.0012L71.0004 20.8253L49.0844 33.706L71.0294 20.8371L49.3692 33.6234L71.1515 20.8489L48.6951 34.0838L71.1805 20.8961L48.6195 34.2314L71.4711 20.8312L49.0263 34.0071L71.0643 21.085L49.1832 33.9481L71.3258 20.961L49.0089 34.0661L71.8896 20.6482L48.8694 34.2373L71.3607 21.0496L49.16 34.1074L70.9771 21.3152L49.2123 34.1429L71.6513 20.9847L48.9333 34.3436L71.8779 20.8843L49.4099 34.0838L71.3607 21.209L49.2123 34.3022L71.2561 21.3743L49.5494 34.2373L71.1805 21.5514L49.2704 34.4203L71.4246 21.4274L49.2007 34.4675L71.7036 21.2739L49.468 34.3849L71.814 21.2798L49.439 34.4734L70.9946 21.8347L49.6598 34.3672L71.7791 21.3979L49.84 34.4026L71.1282 21.9174L49.1542 34.8276L70.9597 22.0413L49.8458 34.4793L71.6803 21.6753L49.6889 34.6033L71.4769 21.8229L49.6482 34.6741L70.8318 22.2538L50.1422 34.497L71.3316 22.0708L49.6889 34.7981L55.1402 31.6045L50.1422 34.5797L54.9949 31.7344L50.2468 34.5325L55.024 31.7344L49.5377 35.0224L55.2507 31.6694L49.7644 34.9693L54.9368 31.9351L49.776 35.0933L55.21 31.9056L49.8225 35.0933L54.408 32.4014L50.5199 34.7568L54.2569 32.5667L49.7353 35.2645L54.1813 32.6553L50.4851 34.8749L54.745 32.3778L50.2003 35.0992L53.9023 32.9268L49.8341 35.3589L54.4196 32.673L49.8109 35.4002L54.5591 32.6198L49.9794 35.4357L54.0302 33.0567L49.9678 35.4534L53.4316 33.4227L49.9969 35.5006L53.1061 33.6765L50.0492 35.536L53.4665 33.5289L50.6885 35.1759L53.6408 33.4463L50.9326 35.1641L53.2514 33.8005L50.4967 35.4298L53.048 33.9303L50.671 35.3943L53.1759 33.9244L50.5664 35.5596L52.3506 34.5148L50.6943 35.5478L52.9957 34.2019L50.735 35.6659L52.4552 34.6564L50.9616 35.6009L52.0368 34.9693L50.857 35.7072L52.1356 34.9575" stroke="#00D26A" stroke-width="0.3" stroke-linecap="round" stroke-linejoin="round"/>
<path d="M27.9764 26.3563L30.981 24.5912L27.7265 26.6042L31.6726 24.2902L27.3719 26.8994L31.9574 24.2134L27.3894 26.9938L32.0969 24.237L26.506 27.5487L33.1488 23.6526L26.5874 27.5901L32.7013 24.0068L26.3258 27.7613L32.5734 24.1013L26.3781 27.7494L32.9396 23.9006L26.1515 27.9738L33.9217 23.4165L25.7679 28.3102L34.2821 23.3161L26.2503 28.1391L34.4971 23.3043L25.4773 28.629L33.8404 23.7235L25.826 28.511L34.2937 23.5464L25.9248 28.4991L34.561 23.4342L25.2623 29.0186L34.5436 23.5759L25.0124 29.2607L35.4735 23.1272L24.8264 29.4968L35.8163 23.0505L25.4541 29.237L35.7699 23.1863L25.4483 29.3138L36.1592 23.0328L24.6753 29.8982L35.7466 23.4047L24.7683 29.8687L36.1651 23.1863L24.6056 30.034L35.9733 23.3693L24.222 30.2937L36.3452 23.1863L24.9252 29.9572L36.2057 23.3457L24.9543 29.9927L36.322 23.328L24.4022 30.3941L36.6707 23.1981L24.2627 30.5476L36.4963 23.3752L23.9663 30.766L36.8799 23.1922L23.8036 30.9549L36.7869 23.3398L23.9372 30.9313L36.6416 23.4814L23.7803 31.1379L37.6761 22.9856L24.2801 30.9313L37.2635 23.3161L24.2104 31.0198L37.9551 22.9561L23.7978 31.3917L37.2228 23.5169L24.1871 31.2028L37.3913 23.4578L24.2278 31.1969L37.6122 23.3457L23.6873 31.5924L38.3038 23.021L24.1058 31.4862L38.2689 23.1804L23.4258 31.9643L37.7807 23.5464L23.7978 31.8285L38.4723 23.2217L24.2336 31.6101L37.9434 23.57L24.0593 31.8522L38.5827 23.3339L23.7745 32.1532L38.3212 23.6231L23.9895 32.0883L38.8326 23.387L23.5885 32.4484L38.6583 23.6113L23.6466 32.5074L39.0128 23.4991L23.3096 32.8321L39.7974 23.1627L22.8737 33.204L39.3905 23.5169L23.0364 33.2394L39.222 23.7471L23.2282 33.2217L40.0705 23.3457L23.2921 33.2276L39.995 23.4342L23.1585 33.4224L39.9136 23.5995L23.0887 33.4755L39.4487 23.8829L22.8679 33.6644L40.4367 23.3634L22.6064 33.8947L39.8845 23.7648L23.1236 33.6585L40.2158 23.6349L22.9434 33.8474L40.024 23.8297L23.1236 33.8592L40.4076 23.7235L23.0422 33.9891L40.3553 23.8356L22.9899 34.1544L40.5296 23.8651L23.2689 34.119L40.9713 23.7353L23.2108 34.1898L40.5936 23.995L23.0713 34.4023L40.9306 23.9301L23.0713 34.4437L40.7272 24.0895L22.432 34.8333L40.6517 24.1485L22.3623 34.9927L40.7621 24.2016L22.5134 34.9395L41.5699 23.7648L22.5599 35.0399L41.4886 23.936L22.1937 35.2642L41.2503 24.0895L22.3855 35.1993L41.384 24.054L22.833 35.0517L41.6397 24.0245L22.3681 35.3527L41.3491 24.2252L22.7226 35.1993L41.6164 24.119L22.1647 35.5357L41.7501 24.0481L22.6645 35.3173L41.3491 24.361L22.8563 35.2288L41.7269 24.1603L22.3216 35.6066L42.0291 24.0481L22.8621 35.3764L42.2499 24.0068L22.2751 35.7719L41.4479 24.5263L21.9845 35.9903L42.0174 24.2429L22.5308 35.7719L42.2325 24.2193L21.8741 36.25L42.1802 24.3433L22.217 36.1733L42.5986 24.2193L22.1472 36.315L42.1627 24.5794L22.3506 36.3032L42.0291 24.7624L22.4378 36.3091L42.4243 24.5853L21.8857 36.6574L42.3371 24.6621L22.0659 36.6574L42.186 24.8569L21.9554 36.8463L42.4417 24.8333L21.6358 37.0883L42.4359 24.8923L22.1414 36.8345L43.0461 24.5735L21.6532 37.1473L43.11 24.5617L21.8218 37.1473L43.0229 24.7152L21.8683 37.1827L43.0752 24.7506L21.6126 37.4189L43.2146 24.7506L21.9496 37.3362L42.9996 24.9927L22.1065 37.2536L42.7788 25.1284L21.4614 37.655L43.3076 24.8451L22.0659 37.3775L43.1623 25.0104L21.723 37.6137L43.3425 24.9336L21.5138 37.7672L42.9706 25.1816L21.9613 37.6314L43.2902 25.1225L21.258 38.1332L43.7842 24.9218L21.415 38.0859L43.6215 25.0635L21.2115 38.2984L43.7435 25.0871L21.9613 37.9974L43.3774 25.4354L21.2464 38.446L43.9237 25.1461L21.8973 38.1391L43.5343 25.4472L21.2871 38.6231L44.3247 25.1107L21.63 38.5346L43.9818 25.4236L21.0663 38.9006L43.9469 25.4826L21.7985 38.5346L44.4467 25.2524L21.7637 38.5818L43.9004 25.6007L21.4673 38.8947L43.7609 25.8191L20.8512 39.361L44.7896 25.3232L21.3975 39.0481L44.5804 25.4531L21.1592 39.2666L43.9527 25.9017L21.4963 39.1367L44.3189 25.7542L21.5544 39.178L44.1794 25.9076L20.9616 39.5499L44.3886 25.8132L21.0721 39.5912L44.871 25.6361L20.7989 39.7565L44.9756 25.5771L20.9616 39.6975L45.0221 25.5889L20.7234 39.9395L44.7838 25.8309L21.3685 39.6089L44.9465 25.7837L21.0953 39.851L45.0279 25.8191L20.5316 40.3173L44.8245 26.0729L20.7117 40.2937L44.5223 26.3327L20.6652 40.4059L44.9233 26.1792L20.456 40.6302L44.5746 26.4862L20.8512 40.5357L44.8535 26.4625L20.5316 40.8073L45.3592 26.25L20.8338 40.6597L44.7954 26.6101L21.1069 40.5653L45.6207 26.1851L20.5025 41.0552L45.4638 26.4153L20.3282 41.1733L45.179 26.5983L20.6246 41.0611L45.2952 26.5924L20.764 41.067L45.1325 26.7754L20.5664 41.2441L45.4696 26.6396L20.6013 41.3504L45.6788 26.6455L20.8454 41.2914L45.5393 26.8108L20.055 41.7813L45.3882 26.923L20.9675 41.3681L46.2367 26.5511L20.1771 41.9053L45.6962 26.9407L20.8687 41.6219L45.6149 27.1119L20.5897 41.9112L46.3704 26.7931L20.6071 41.9348L45.7369 27.1945L20.1015 42.2713L45.5277 27.3598L20.764 42.0056L46.1089 27.1414L20.7001 42.0588L45.9113 27.2772L20.0899 42.4661L46.1321 27.1945L20.7234 42.1296L46.3181 27.1178L20.3514 42.3716L46.0972 27.2713L20.2642 42.5192L46.289 27.2595L20.0666 42.7435L45.9287 27.5783L20.2061 42.7435L45.8532 27.7022L20.3514 42.7199L45.952 27.7081L20.4444 42.8026L46.3065 27.6373L19.8109 43.2335L46.7888 27.413L19.7412 43.3634L46.4343 27.7081L19.5785 43.5287L46.3704 27.8144L19.7702 43.4401L46.196 27.9442L20.3863 43.145L46.2832 27.9561L20.3979 43.2217L46.8528 27.7081L20.3979 43.2453L46.4576 27.962L19.8458 43.6172L46.5564 27.9502L19.6017 43.7943L46.3297 28.1213L19.5262 43.8888L47.1782 27.6727L20.2119 43.5818L46.8411 27.9679L19.7819 43.9242L46.4924 28.2571L19.9737 43.8947L47.2945 27.8734L19.6366 44.2193L47.184 28.0623L19.7877 44.1662L46.7249 28.3693L19.4274 44.4082L46.6145 28.4637L19.8342 44.2725L47.2189 28.2158L19.3983 44.5853L47.5037 28.1036L19.9795 44.2548L47.1434 28.3221L19.6424 44.5263L47.6897 28.08L20.0143 44.3787L46.9458 28.5877L19.625 44.6385L47.0097 28.5818L19.0961 44.9749L47.8233 28.1272L19.2123 44.9513L47.2131 28.5346L19.7412 44.7329L47.5211 28.4401L19.9097 44.7742L47.5095 28.5877L19.84 44.9395L47.155 28.9183L19.6889 45.0458L47.2422 28.8888L19.5087 45.1875L47.957 28.5051L19.3111 45.4295L48.1895 28.4932L18.8404 45.8014L47.8466 28.7943L19.0438 45.7306L47.8524 28.8356L19.2123 45.7247L47.6722 29.0363L19.1484 45.8604L47.9105 28.995L19.3227 45.7955L47.742 29.1308L19.532 45.701L48.1372 28.9242L19.0787 46.0316L47.8001 29.1898L19.4157 45.8604L47.6257 29.3138L19.5029 45.8368L48.3057 28.9419L19.2181 46.0316L48.3173 28.9655L18.8113 46.2796L48.5149 28.8592L18.5847 46.5039L47.7129 29.42L18.7881 46.4862L47.8291 29.4555L18.8055 46.6101L48.2592 29.3374L18.7241 46.7754L48.2301 29.4732L18.4219 46.9997L48.2301 29.5204L19.0438 46.7046L48.1953 29.6089L19.0961 46.799L48.4975 29.5558L18.8869 47.0352L48.8694 29.4555L18.9043 47.1237L48.3173 29.8746L18.4626 47.4307L48.6486 29.7329L19.1658 47.0352L48.3987 29.8923L18.2301 47.655L48.7939 29.7329L18.7009 47.5015L48.7648 29.8746L18.7125 47.5133L48.5614 30.0045L18.7764 47.5428L48.8694 29.8982L18.7416 47.6786L49.2356 29.7978L18.1139 48.1272L48.5207 30.2937L18.2011 48.1036L48.852 30.1284L17.9802 48.3752L49.5494 29.8628L18.7416 48.0269L49.5378 29.969L18.6718 48.0859L49.2414 30.1579L18.7299 48.1686L49.2065 30.2996L18.544 48.3929L49.3053 30.3527L18.4975 48.5405L49.6366 30.2819L17.9163 48.9242L49.3053 30.518L18.6021 48.6349L48.9857 30.8191L18.0558 49.0304L49.1251 30.8073L18.0616 49.0895L49.4506 30.6833L18.2301 49.0363L49.9213 30.4531L18.3522 49.0245L49.2298 30.9195L17.9744 49.2666L49.2937 30.9017L17.5792 49.5971L49.3053 30.9903L18.1662 49.2843L49.7005 30.7896L17.6432 49.6857L49.7354 30.8663L18.0035 49.5322L49.7528 30.9136L17.9047 49.6149L49.6714 30.9844L18.0267 49.5735L50.2933 30.6538L17.6373 49.8215L49.468 31.1556L17.4688 50.0045L49.6133 31.1556L17.8582 49.8333L49.8574 31.067L17.6025 50.093L49.8284 31.1969L17.7943 49.9986L50.2352 30.9726L17.5909 50.2111L49.8458 31.2973L17.678 50.1934L50.5374 30.9195L17.3177 50.459L49.7644 31.433L17.864 50.1934L50.0201 31.3386L17.6548 50.3941L50.363 31.2146L17.2654 50.7128L50.1829 31.4094L17.556 50.6007L49.8923 31.6396L17.7943 50.5948L50.5548 31.3799L17.9221 50.5535L50.5897 31.3976L17.7013 50.6951L50.6129 31.3917L17.0504 51.1969L49.9853 31.8817L17.37 51.1025L50.2236 31.8344L17.155 51.25L50.1422 31.9053L17.3991 51.1733L50.8454 31.557L17.8117 51.008L50.7699 31.681L17.3874 51.3858L50.7757 31.8049L17.8233 51.2205L51.2638 31.6101L16.9225 51.8463L50.8454 31.9525L16.8935 51.9289L50.9558 31.9525L16.9748 51.8935L51.1767 31.8344L17.6083 51.6514L50.6827 32.2536L17.5269 51.7518L50.7524 32.2654L16.876 52.165L50.5432 32.4248L17.3991 51.8817L50.5897 32.4189L17.5967 51.8522L50.7757 32.3953L16.8586 52.348L50.8454 32.4189L16.6726 52.5605L51.2057 32.3126L17.062 52.3421L50.8047 32.5546L17.184 52.3067L51.0953 32.4189L16.9864 52.4425L51.659 32.106L16.754 52.6727L51.2057 32.472L17.0039 52.5664L50.8512 32.714L16.9864 52.6373L51.5719 32.3539L16.6726 52.8557L51.8218 32.2418L17.1317 52.6137L51.3278 32.5605L16.8295 52.8911L51.2987 32.6786L17.0271 52.9147L51.322 32.8026L16.7307 53.1036L51.5777 32.6668L16.6494 53.1627L51.8566 32.5133L16.8411 53.1213L52.0252 32.4897L16.7365 53.2571L51.2755 33.0033L16.9399 53.1568L52.0775 32.5487L16.9748 53.2748L51.5602 32.9915L16.26 53.7176L51.415 33.1036L16.8993 53.3988L52.1879 32.7022L16.7133 53.5405L52.0194 32.8321L16.6203 53.6467L51.4324 33.2335L16.9981 53.5346L52.0368 32.9856L16.5041 53.8592L51.4847 33.3457L16.9167 53.6644L51.4731 33.3988L17.0097 53.6231L51.5312 33.3811L16.2251 54.1544L51.9729 33.1922L16.3704 54.1485L51.8973 33.3161L16.2484 54.3551L52.554 33.0623L16.2658 54.3669L51.8218 33.5169L16.8876 54.0777L51.8857 33.5523L16.0624 54.603L51.938 33.5641L16.754 54.2548L52.6587 33.1981L16.4111 54.5145L51.9903 33.6467L15.9985 54.8038L52.6412 33.3161L15.9461 54.8569L52.8446 33.2217L15.981 54.9631L52.6819 33.4401L15.9578 54.9868L52.124 33.7766L15.9287 55.0694L51.9903 33.9242L15.9171 55.1402L52.5366 33.6644L16.5331 54.7978L52.7575 33.5582L16.6435 54.8569L52.74 33.6881L16.196 55.1343L52.5773 33.8002L16.3007 55.1461L52.9144 33.6762L16.0914 55.3705L52.3855 34.0895L16.1612 55.3882L53.205 33.6644L16.0566 55.5889L53.0771 33.8829L16.2135 55.5712L52.8621 34.0777L16.0508 55.7365L53.1062 34.0068L15.7369 56.0021L53.1991 34.0363L16.0101 55.8899L52.5889 34.4378L15.9345 55.9549L52.8679 34.2961L15.8183 56.067L52.5947 34.5027L15.5335 56.2973L52.9086 34.3787L15.5045 56.3445L53.2398 34.2134L15.3475 56.557L53.141 34.3905L16.0914 56.1556L53.4839 34.2252L15.7137 56.498L52.8911 34.6975L16.0333 56.3386L53.7571 34.2134L15.3359 56.8522L53.6234 34.4023L15.7369 56.6869L53.4897 34.5499L16.0914 56.557L53.9024 34.3846L15.6672 56.8817L53.8094 34.5145L15.3708 57.0824L53.3154 34.8274L15.4928 57.0824L53.7396 34.6562L15.7079 57.0824L53.3038 35.034L15.9694 57.0588L54.1929 34.6444L15.2255 57.5251L54.1232 34.7152L15.8415 57.1768L53.4839 35.0989L15.9113 57.2182L54.2511 34.7329L15.8415 57.348L54.2453 34.8274L15.3069 57.7613L54.3499 34.8628L15.2197 57.8498L54.2859 34.9395L15.0802 57.9974L53.5478 35.4413L15.4638 57.8321L53.6583 35.4354L15.5568 57.8439L53.7571 35.4413L15.5393 57.8911L53.8675 35.4118L15.0744 58.2158L54.4254 35.1402L14.9814 58.2807L53.9954 35.4L14.7373 58.5464L53.8559 35.6066L15.6323 58.1154L54.2453 35.4708L15.4638 58.3398L54.2162 35.6125L15.5045 58.3634L54.6405 35.4118L15.4638 58.4578L54.5416 35.5417L15.5393 58.4401L53.9663 35.9017L15.1034 58.7058L54.2917 35.7247L14.6734 59.0422L54.6288 35.6125L15.2778 58.8238L54.6346 35.7424L14.6618 59.2311L54.1406 36.0788L14.406 59.5027L54.7392 35.8486L14.7431 59.3846L54.4777 36.0788L15.0105 59.2902L54.7625 35.9785L14.5862 59.603L54.9717 35.9195L14.6676 59.6385L55.2681 35.825L15.1558 59.4496L54.931 36.1261L14.2259 60.1107L55.0473 36.1733L15.1906 59.5794L54.8264 36.3327L14.3014 60.1225L55.1693 36.1556L14.2026 60.1875L55.024 36.25L15.057 59.7742L55.2042 36.2323L14.2259 60.3114L55.2332 36.2618L15.0105 59.8923L55.1286 36.3622L14.1038 60.518L55.2332 36.3976L14.1329 60.5357L55.1926 36.4566L14.162 60.642L55.0415 36.6692L14.7547 60.4236L54.9368 36.8581L14.7315 60.5357L55.8725 36.4094L14.4293 60.8073L55.5006 36.7223L13.976 61.1851L55.8028 36.6574L13.883 61.2914L55.3204 36.9938L14.7431 60.9254L55.9713 36.7459L14.2666 61.2323L56.105 36.6987L14.1503 61.433L55.5878 37.1296L14.1794 61.4862L55.89 37.0234L13.8423 61.7341L55.5761 37.2595L13.8597 61.8463L56.1689 37.0352L14.1678 61.7636L56.4246 36.982L14.162 61.8167L56.3375 37.0824L14.0167 62.0352L55.9946 37.4189L13.8191 62.1709L55.6807 37.6196L13.8133 62.2004L56.1282 37.3834L14.191 62.0174L55.9365 37.5369L14.0108 62.1709L56.2212 37.413L13.9411 62.2359L56.0701 37.531L13.9469 62.3185L56.2445 37.5133L13.6912 62.4838L55.9365 37.7081L13.5285 62.7199L56.4479 37.5487L14.0748 62.5192L56.2793 37.7672L13.9353 62.7199L56.9651 37.4838L13.6098 62.9324L56.9303 37.531L13.7435 62.9974L56.5699 37.8852L13.1856 63.3516L56.7094 37.8262L14.1329 62.8852L56.2619 38.1804L13.7028 63.1686L56.3781 38.1391L13.4994 63.3929L56.7966 38.0033L13.5227 63.387L57.2383 37.7494L13.4064 63.4637L56.5816 38.145L13.6621 63.387L56.3433 38.3575L13.1914 63.6999L56.9186 38.0564L13.5633 63.5405L56.7617 38.204L13.8656 63.4696L56.7152 38.3398L13.5227 63.7707L57.0349 38.2512L13.604 63.7943L57.0988 38.2866L13.6157 63.8002L57.2499 38.2099L13.4064 64.0009L57.0465 38.4047L12.9182 64.4201L57.186 38.4578L13.5401 64.1662L57.2848 38.511L12.802 64.6562L57.1685 38.6408L12.7671 64.8156L57.6277 38.511L13.2205 64.6916L57.6858 38.6172L13.1042 64.8923L57.2267 39.0186L13.2611 64.8982L57.9415 38.6999L12.8136 65.2111L57.2383 39.1603L13.0694 65.1166L57.2557 39.2075L12.6044 65.4118L57.186 39.2666L12.709 65.4826L58.1275 38.8474L13.3657 65.1166L57.4359 39.2725L13.0577 65.3882L57.587 39.2725L12.5579 65.825L58.2728 39.0186L12.7265 65.8604L57.7265 39.4732L12.7613 65.884L57.5637 39.6089L12.9647 65.8191L57.6742 39.5971L12.2615 66.2441L57.5405 39.6916L12.8311 65.9431L58.4239 39.2075L12.279 66.3091L58.1856 39.3905L13.0984 65.9608L58.482 39.3492L12.8543 66.2205L57.7206 39.91L12.5695 66.5334L58.2263 39.7624L12.1104 66.8994L58.5633 39.6562L12.6742 66.681L58.1856 39.9927L12.1395 67.0293L58.7726 39.6798L12.4882 66.8699L58.1565 40.0871L12.8834 66.6515L58.4471 39.9336L12.0814 67.1591L58.5343 39.9159L12.1453 67.1414L58.8307 39.7624L12.9124 66.7046L58.7784 39.8038L12.7613 66.8522L58.6331 39.9513L12.4068 67.1237L58.5169 40.0812L12.1918 67.3657L58.0984 40.4472L12.8369 67.0588L58.2495 40.4295L12.6451 67.2595L58.7319 40.2347L12.0291 67.7081L59.005 40.1579L12.1104 67.7612L58.389 40.6184L12.6567 67.472L58.4529 40.6125L12.1569 67.7849L58.7435 40.4649L12.3196 67.8262L58.3657 40.825L12 68.1273L58.6331 40.7778L12.6509 67.779L58.8772 40.6715L12.4184 67.9679L58.3774 41.0139L12.773 67.8498L58.9353 40.7778L12.5579 67.9915L58.511 41.0434L12.4998 68.1036L58.8074 40.9431L12.401 68.2512L59.2549 40.7719L12.2964 68.3575L59.3595 40.7601L12.1104 68.5759L59.2375 40.9431L12.773 68.2335L59.1329 41.0493L12.401 68.5877L58.9644 41.2796L12.3313 68.753L58.6912 41.5688L12.4068 68.7707L59.7024 41.0316L12.7846 68.57L59.1445 41.3858L12.4882 68.8238L59.6153 41.1851L12.6742 68.7884L59.284 41.4566L12.4068 69.0836L58.8772 41.8344L13.203 68.7058L59.3363 41.6515L12.4591 69.2489L59.0806 41.9053L13.2088 68.9183L59.8826 41.5452L12.9473 69.178L59.7664 41.7223L13.1507 69.178L59.9698 41.7223L12.895 69.3787L59.1968 42.2241L13.3774 69.2252L60.0628 41.8463L12.773 69.6148L59.3363 42.3067L12.7962 69.6148L59.5165 42.2123L12.6683 69.7506L59.5339 42.2654L12.5405 69.8746L59.4409 42.3716L12.6393 69.8274L59.162 42.5428L13.0984 69.5676L59.8652 42.1414L12.6916 69.9041L59.6908 42.3421L13.3076 69.6503L59.3247 42.6609L13.1275 69.7919L60.1441 42.2182L13.1798 69.8923L59.6443 42.6432L13.2495 69.8982L60.1848 42.3716L13.0752 70.1343L59.8187 42.7199L13.3076 70.1284L59.7373 42.897L12.8892 70.4059L60.1325 42.7022L13.2321 70.2878L59.6792 43.0505L13.017 70.5062L59.6618 43.1509L13.6854 70.2111L60.3475 42.8498L13.7377 70.276L59.7257 43.3043L13.4355 70.5653L60.5277 42.9502L13.267 70.6774L60.0453 43.2453L13.4297 70.6656L60.3998 43.1213L13.389 70.7188L59.9814 43.3929L13.6098 70.6361L59.6908 43.6113L14.191 70.3823L60.5393 43.204L13.7435 70.7837L59.7606 43.8002L13.4064 70.9903L60.6207 43.3043L14.1736 70.5889L60.2546 43.5641L13.5401 71.0434L60.0744 43.753L13.8946 70.8604L60.394 43.5936L14.4293 70.6538L60.5045 43.6349L13.9004 70.9726L60.1383 43.8533L13.8133 71.1556L59.9 44.1249L13.8365 71.2028L60.4173 43.8888L14.0341 71.1674L59.9582 44.237L14.6559 70.884L60.7311 43.8651L14.6676 70.8958L60.5858 43.9655L14.8535 70.8486L59.8245 44.4791L14.3247 71.2382L59.871 44.5263L14.1852 71.3327L60.1906 44.3551L14.2433 71.4212L60.0221 44.5735L14.162 71.5275L60.4986 44.3551L14.8884 71.1674L60.2139 44.5853L14.5688 71.498L60.6904 44.4496L14.6734 71.498L60.3301 44.727L14.3886 71.6751L60.5103 44.6267L15.2778 71.2205L60.8764 44.4791L14.8652 71.557L60.3417 44.8864L15.5916 71.2146L60.6439 44.7919L15.6149 71.2441L60.272 45.0517L15.5393 71.4212L60.4115 45.1048L15.7834 71.2973L60.4173 45.1225L15.4986 71.5098L60.8706 44.9041L15.4347 71.6928L60.8299 45.0694L15.8299 71.4803L60.4638 45.3055L15.2836 71.8463L60.5974 45.2701L15.3592 71.8345L60.2313 45.518L15.8997 71.6337L60.5916 45.4236L15.952 71.6928L60.7079 45.4472L16.2367 71.6219L60.3069 45.7778L16.4169 71.6278L60.6149 45.7069L16.1321 71.8522L61.0391 45.518L15.9985 71.9761L60.673 45.7778L16.5389 71.681L60.5916 45.8486L16.4227 71.8876L60.6556 45.949L17.0039 71.5688L60.2371 46.2146L16.783 71.8108L60.5451 46.1497L16.7888 71.8994L60.1267 46.4862L16.783 71.9997L60.7253 46.2323L17.7594 71.5216L60.3766 46.5275L17.5502 71.6574L60.5219 46.4566L17.5444 71.6869L60.9752 46.2146L17.3874 71.8581L60.487 46.5806L17.7768 71.6869L60.5916 46.5806L18.1546 71.5688L60.3301 46.8345L18.451 71.5334L60.7253 46.74L18.852 71.374L60.2429 47.1001L19.8342 70.8486L60.5451 46.9761L19.4332 71.1792L60.9229 46.8463L19.7761 71.0493L60.487 47.1768L20.2584 70.7837L60.8183 46.9938L20.1189 70.9431L61.0159 46.9584L20.3049 70.8604L60.58 47.2418L21.0546 70.5062L60.487 47.3834L21.4789 70.2878L60.2604 47.5428L21.2697 70.5476L60.8938 47.3067L22.1182 70.152L60.8648 47.4307L22.6412 69.969L60.7718 47.6078L23.0248 69.851L60.9926 47.5842L23.112 69.9395L60.9578 47.7494L24.0302 69.544L60.2197 48.3221L24.6346 69.3256L60.5277 48.2748L24.408 69.4909L60.4812 48.3339L25.2507 69.0481L60.4928 48.3811L24.9543 69.3551L60.8532 48.2984L26.0876 68.8179L60.8648 48.4224L26.3026 68.812L60.6556 48.6644L26.8721 68.511L60.6846 48.6821L26.9186 68.511L60.9055 48.5818L26.9651 68.5582L60.3243 48.995L27.1162 68.5169L60.5626 48.9006L27.1395 68.57L60.394 49.0659L27.3487 68.5641L61.0856 48.7766L28.3774 68.0564L61.0159 48.9183L28.3774 68.1036L60.6672 49.1662L28.0984 68.3339L60.3882 49.3964L28.7958 68.0564L60.3127 49.5735L29.3072 67.779L60.8997 49.2548L29.2782 67.8557L60.6788 49.4437L29.6501 67.714L60.795 49.4496L30.1151 67.4838L60.1209 49.8864L30.301 67.4189L60.5335 49.6857L30.4115 67.4661L60.4638 49.8451L30.9171 67.1827L60.3882 49.8982L30.7485 67.289L60.1848 50.0281L30.5277 67.472L60.1732 50.0871L31.5215 67.0115L60.6091 49.9572L30.8764 67.4425L59.9523 50.3941L32.155 66.8049L60.5509 50.152L31.4111 67.2654L60.8938 49.9749L32.2945 66.8699L60.2139 50.5003L32.7361 66.6692L60.365 50.4649L32.4746 66.8581L60.4173 50.4708L33.3871 66.4212L59.993 50.8191L33.5905 66.3681L60.1151 50.8132L33.6079 66.4153L60.179 50.8309L33.1662 66.6869L60.6033 50.5948L33.5324 66.5629L60.5858 50.6951L34.5145 66.0788L60.2081 51.0139L34.1542 66.3504L60.6497 50.8132L34.9155 65.9667L60.2894 51.0847L35.2177 65.8427L59.6792 51.498L35.6711 65.6066L60.2487 51.191L35.7001 65.7187L60.057 51.433L36.3045 65.4059L60.1151 51.4389L35.6885 65.7896L59.7838 51.6574L36.723 65.3055L59.5978 51.8876L36.909 65.3055L60.0976 51.7046L37.7923 64.9277L59.4351 52.2359L37.8795 64.9572L59.8419 52.0765L38.0306 64.9986L59.4002 52.4661L38.1643 65.0163L60.0976 52.1532L38.8675 64.7034L59.7547 52.4543L38.6641 64.8451L59.3654 52.7022L38.8036 64.7979L59.9756 52.3834L39.3092 64.6267L59.3944 52.8498L40.3611 64.0836L59.8245 52.6727L40.2855 64.2311L59.6966 52.8439L40.396 64.2075L59.6966 52.8852L41.1457 63.8474L59.8361 52.8852L41.2793 63.7766L59.0167 53.3752L40.5819 64.2016L59.8768 52.8852L41.1631 63.9065L59.2491 53.2984L41.7733 63.6467L59.3305 53.3516L42.4184 63.3929L59.0632 53.6349L42.6916 63.3339L59.3944 53.5405L42.6277 63.4696L59.1387 53.7884L42.8136 63.4401L58.8365 54.0422L43.389 63.1213L59.4525 53.6999L43.7842 62.9443L58.5517 54.2843L43.8772 62.9797L59.4293 53.8592L43.8307 63.1154L58.9411 54.2548L44.8826 62.6255L58.4471 54.6739L45.0686 62.6432L59.0922 54.42L45.5626 62.3657L59.0341 54.4673L45.6788 62.4248L58.7203 54.7801L45.8125 62.4248L58.8191 54.7978L46.8411 61.9643L58.296 55.2465L46.7075 62.0647L58.5692 55.1107L46.6319 62.2182L58.2321 55.4118L47.1375 61.9466L57.9066 55.6302L47.957 61.5865L58.1972 55.583L47.7303 61.8404L57.7613 55.9549L48.3871 61.5393L57.8601 55.9844L49.0263 61.2087L57.3487 56.3268L48.9624 61.2677L57.2964 56.3799L48.9101 61.3445L57.6974 56.191L49.5145 61.132L57.1744 56.6396L49.2414 61.3091L57.0465 56.7341L49.9272 60.9844L56.4479 57.1591L50.1364 60.8899L57.1046 56.8049L49.933 61.1143L56.1747 57.4543L50.6943 60.7069L55.9888 57.6019L51.1825 60.5003L55.6982 57.8498L51.1418 60.5535L56.012 57.6963L51.5428 60.4413L55.7679 57.962L52.3565 60.0281L55.0124 58.4696" stroke="#FF822D" stroke-width="0.3" stroke-linecap="round" stroke-linejoin="round"/>
<path d="M26.041 59.1129L28.3541 57.7552L26.4188 58.9122L27.7206 58.1507L25.7156 59.4258L28.8248 57.6017L26.3026 59.1011L28.2785 57.9441L26.32 59.1778L28.9643 57.6253L25.7795 59.5852L28.8074 57.8083L25.4366 59.839L28.8888 57.8142L25.5354 59.8567L28.8016 57.9441L25.239 60.0456L28.7493 57.9854L26.0178 59.6973L29.4002 57.7139L25.9771 59.8213L29.7082 57.6312L25.4831 60.1283L29.8186 57.584L25.8667 59.963L29.1794 58.0208L25.9016 60.0397L29.8593 57.7198L25.9306 60.1578L29.8477 57.8614L25.2855 60.6241L29.4118 58.2038L25.0472 60.8721L29.778 58.0976L25.7969 60.4943L30.2894 57.8614L25.4831 60.6891L30.1208 57.9677L25.4192 60.8603L29.7024 58.3455L24.9775 61.2085L30.5393 57.9441L25.7214 60.813L30.4172 58.0621L24.9717 61.2617L30.58 57.9736L25.8376 60.8839L30.6962 58.0326L25.7272 61.0019L30.1673 58.3986L25.6575 61.1731L30.9054 58.0976L25.2681 61.4093L30.4521 58.3691L25.2332 61.4388L30.0802 58.5934L25.6807 61.1849L30.5451 58.3337L25.053 61.6572L31.103 58.1094L25.5645 61.4801L30.5916 58.5285L25.8899 61.4211L30.7892 58.5462L25.4599 61.6867L31.196 58.3219L25.8318 61.61L31.411 58.3396L26.0643 61.5686L30.7195 58.8355L26.0294 61.6749L30.9577 58.7882L25.7098 61.9464L31.4575 58.5757L25.2158 62.2711L30.9984 58.8827L25.8492 62.0232L31.475 58.7233L25.611 62.2829L31.0042 59.1188L25.332 62.525L31.2541 59.048L25.3727 62.5072L31.411 58.9653L25.5703 62.4718L31.1263 59.2133L26.1921 62.2062L31.1495 59.2959L25.4599 62.702L31.8992 58.924L25.5528 62.6784L31.8469 58.9889L26.2851 62.3242L31.1553 59.4671L25.6749 62.7257L31.9922 59.0185L25.7214 62.8319L31.7714 59.2841L26.2561 62.5486L31.9632 59.2015L25.9771 62.7552L31.4459 59.5438L26.5525 62.4718L31.6668 59.473L26.4943 62.6489L31.7191 59.5852L25.8667 63.1094L31.597 59.7505L26.0701 63.0621L31.6028 59.8154L26.3665 63.0149L31.9457 59.7446L26.4014 63.0503L31.5738 60.0161L26.843 62.8437L32.0561 59.7859L26.3781 63.1684L32.1608 59.78L26.1689 63.4045L32.3351 59.7859L26.7733 63.1094L32.463 59.7741L26.0992 63.5226L31.7888 60.1873L26.3607 63.3868L32.0038 60.0751L27.1162 63.068L32.3467 59.9984L26.6919 63.3573L32.492 59.9571L26.5002 63.5698L32.5734 60.0102L26.4885 63.6229L32.4978 60.0987L27.2905 63.2688L32.771 60.0574L27.2324 63.3573L32.7187 60.1401L27.3254 63.3986L32.5908 60.3113L26.5176 63.8827L32.5908 60.3231L26.6338 63.8473L32.6141 60.3408L27.3661 63.5344L32.7477 60.3821L27.2324 63.7469L33.1604 60.2699L27.2615 63.7469L33.2069 60.2581L27.3893 63.6997L33.0616 60.3703L27.1627 63.9299L32.7303 60.6654L27.029 64.1424L32.585 60.8839L27.8601 63.7882L33.265 60.6182L27.5869 64.0539L32.6606 61.0787L27.5986 64.0952L33.1197 60.8544L27.8659 64.048L33.387 60.8071L27.401 64.3727L32.9453 61.12L27.4707 64.4494L33.4858 60.9193L27.802 64.3431L33.0964 61.2381L28.1797 64.2074L33.1952 61.2676L27.5114 64.6973L33.2592 61.3266L28.2902 64.3195L33.5033 61.2617L28.2088 64.4907L33.1429 61.5982L28.1274 64.5556L33.5962 61.3502L28.1681 64.6206L33.7415 61.3502L28.4355 64.5261L34.0379 61.244L28.4645 64.532L33.7474 61.4329L27.7555 64.9512L33.387 61.6513L28.1565 64.78L33.3754 61.7162L27.9356 64.9866L33.9566 61.4565L28.6272 64.7032L33.759 61.6926L27.9763 65.1637L33.666 61.8284L28.0809 65.1755L34.0496 61.6749L28.1216 65.2758L34.4099 61.5863L28.9469 64.9216L33.8694 62.035L28.2843 65.4352L33.9856 62.094L28.1274 65.5533L34.3866 61.8815L28.8132 65.2286L34.1542 62.094L28.4936 65.4352L34.3692 61.9878L28.5401 65.447L34.189 62.1353L28.7725 65.3821L34.7702 61.8638L28.6912 65.4943L34.0147 62.3715L29.0631 65.388L34.8283 62.0055L28.3599 65.8484L34.8458 62.0468L28.7493 65.6536L34.2995 62.3951L28.5459 65.8898L34.8923 62.1649L28.4878 65.9724L34.8516 62.2416L28.7842 65.9134L35.148 62.1826L28.912 65.9665L35.0317 62.3774L28.6737 66.12L34.4971 62.702L29.5339 65.6418L35.0666 62.401L29.3595 65.8012L34.8923 62.5545L28.9934 66.0846L34.8632 62.643L29.1329 66.12L35.3572 62.4718L29.7896 65.754L34.9678 62.7198L29.1794 66.1849L35.2584 62.6194L29.5978 66.0551L35.241 62.7493L29.2723 66.2676L35.1305 62.8319L29.7315 66.0137L34.7005 63.0976L29.0806 66.5096L34.8923 63.1035L29.7198 66.1495L35.2468 62.9087L29.127 66.5332L34.9097 63.1448L29.2433 66.5804L35.2526 63.0562L29.6501 66.3974L35.4386 63.0031L29.807 66.3502L34.8923 63.3691L29.4118 66.6395L35.8221 62.8791L29.8651 66.4624L35.2933 63.2806L30.0976 66.3856L35.6187 63.1507L30.3417 66.3561L35.9965 63.0385L29.8593 66.7634L35.5897 63.4045L30.0511 66.7162L36.1069 63.1625L29.6617 66.9641L36.1011 63.1861L30.3766 66.6631L35.7001 63.5403L29.9523 67.0409L35.9849 63.5049L29.8651 67.2121L36.0081 63.6111L30.4056 66.9701L36.1185 63.617L30.5451 66.976L35.7524 63.924L30.4986 67.0645L36.2057 63.7174L30.8183 66.9346L36.0546 63.865L30.7253 66.9996L35.6303 64.1247L30.394 67.2416L35.8628 64.0362L30.6032 67.2003L35.8686 64.1129L30.6555 67.2593L35.9849 64.1365L30.516 67.4777L36.043 64.2369L31.2716 67.1058L36.6416 63.9535L31.4634 67.0822L36.8682 63.9122L31.9864 66.9051L36.0488 64.5261L31.6784 67.1412L36.1592 64.5143L32.1085 66.9405L36.1534 64.5675L32.4688 66.7989L36.6125 64.3667L32.6199 66.7752L36.7636 64.349L33.1023 66.5686L36.8857 64.349L33.8171 66.2617L37.1646 64.3018L33.4393 66.5391L37.1995 64.3313L34.5145 66.0314L37.2169 64.4494L35.2584 65.7363L37.3448 64.5084L34.9329 66.0551L36.5544 65.1046L35.5199 65.7776L36.7113 65.081L36.1243 65.447L37.4494 64.6678L36.0255 65.5592L36.7694 65.1224" stroke="#FF6723" stroke-width="0.3" stroke-linecap="round" stroke-linejoin="round"/>
<path d="M42.4301 44.5737L43.761 43.7944L41.4363 45.2938L44.1446 43.7059L42.157 44.9692L44.6676 43.4934L42.0407 45.164L44.441 43.7531L41.0644 45.8605L44.8827 43.6173L41.4712 45.6362L44.871 43.641L41.2039 45.8251L45.336 43.3989L41.3201 45.8015L44.9524 43.6705L41.1051 46.0494L45.3767 43.5465L41.9245 45.6126L45.1558 43.7177L41.2329 46.1262L45.8358 43.4284L41.6339 45.9196L46.0392 43.334L41.5932 45.9491L45.8125 43.4757L41.6688 46.0435L45.8242 43.6055L40.9656 46.5866L46.2194 43.5052L41.0818 46.5394L46.324 43.4639L40.9365 46.6752L46.0218 43.6941L41.6862 46.2561L46.1264 43.6528L41.0586 46.6634L46.2135 43.641L41.7211 46.4095L46.2368 43.7649L41.5584 46.6339L46.3995 43.7944L41.384 46.8582L46.26 44.001L41.3375 46.9113L46.0043 44.1722L41.1516 47.053L46.4053 43.9715L41.6339 46.8877L46.725 43.9007L41.3608 47.0825L46.6727 43.9656L41.6688 47.0117L46.8761 43.9597L41.5526 47.177L46.9168 44.0306L41.2562 47.4013L46.5506 44.2962L41.0295 47.543L46.1729 44.5264L41.2387 47.4662L46.8296 44.1899L41.169 47.5548L47.126 44.0601L40.954 47.7791L47.1957 44.1191L40.9888 47.8971L46.8819 44.4379L41.8373 47.5312L47.1492 44.4143L41.3433 47.8735L46.8645 44.6327L41.9303 47.5371L46.8819 44.6327L41.448 47.9031L47.0853 44.5973L41.4363 47.9385L47.0039 44.674L42.0524 47.6787L47.5851 44.432L41.1748 48.3163L47.4747 44.6209L42.1512 47.7496L47.2655 44.7508L42.1395 47.7968L46.8993 45.0046L42.0582 47.8558L47.1027 44.8983L42.0582 47.9503L47.341 44.8511L42.2209 47.9857L47.4979 44.8924L41.4712 48.5229L47.4979 44.9869L41.9826 48.2336L47.1318 45.2112L42.1512 48.269L47.9106 44.8924L41.5526 48.6823L47.9048 44.9574L41.971 48.4816L48.1023 44.8865L42.2442 48.4107L47.6432 45.2466L41.6514 48.7708L47.3933 45.4001L41.756 48.7826L47.3061 45.53L41.8083 48.8948L47.5619 45.5241L41.7037 48.9892L47.835 45.3942L42.1744 48.7826L47.5328 45.6421L42.0001 48.9066L47.8931 45.4532L42.2732 48.818L47.8989 45.5182L42.2093 48.9774L48.0326 45.5595L42.1744 49.0247L48.2418 45.465L42.8369 48.6646L48.207 45.5123L41.9594 49.249L48.4511 45.4414L42.3604 49.0955L48.515 45.4886L42.8834 48.8889L48.5847 45.5418L42.8079 49.0365L48.1488 45.9019L42.3894 49.3198L48.0036 46.0258L42.8311 49.1073L48.0326 46.0554L42.6568 49.2549L48.3987 45.8901L42.3197 49.5264L47.8931 46.2561L42.7091 49.3611L48.5092 45.9609L42.5522 49.4851L48.3697 46.0731L42.6103 49.5323L48.5557 46.0435L43.2321 49.1722L48.7823 45.9196L42.5347 49.6327L48.0907 46.3741L42.7033 49.5618L48.7068 46.0376L43.3658 49.2549L48.1779 46.4332L43.1159 49.5146L48.7068 46.2384L43.2612 49.5205L48.6312 46.3682L42.9939 49.7507L48.6022 46.4627L43.3251 49.6327L48.422 46.6398L43.1392 49.7744L48.4743 46.6457L43.6448 49.5678L48.4452 46.7519L43.6564 49.5973L48.9392 46.4981L42.9706 50.0931L48.6603 46.7578L43.2321 50.0105L49.3984 46.3918L43.6796 49.8747L48.916 46.8051L43.1624 50.2053L48.8986 46.8405L43.6332 50.0518L48.8288 47.0058L43.9644 49.8924L49.0438 46.9172L43.2554 50.3765L49.4158 46.7637L43.1624 50.4768L49.596 46.7047L43.3135 50.4473L48.8986 47.1711L44.0632 50.1108L49.7877 46.7578L43.6796 50.4178L49.3402 47.0943L43.7959 50.4414L49.5146 47.0884L44.2259 50.2584L49.3054 47.2832L43.6332 50.7307L49.5611 47.2537L44.069 50.6126L50.2178 47.0058L43.9296 50.772L49.4739 47.5193L43.7087 50.9137L49.4739 47.5312L44.1213 50.7248L49.6308 47.4898L43.732 51.0081L49.5669 47.5843L44.2201 50.8487L49.9156 47.5075L44.0458 51.0731L50.1132 47.5134L44.0167 51.1793L49.8284 47.7673L44.7955 50.772L49.8865 47.785L44.1097 51.2443L49.811 47.9031L44.5572 51.1026L50.0958 47.8558L44.4352 51.2561L49.9214 48.0388L44.871 51.0317L50.1364 47.9444L44.6676 51.2443L50.1713 48.0152L45.1849 51.0495L50.427 47.9739L45.2604 51.1321L50.4968 48.0624L44.563 51.6575L50.4328 48.2159L44.7664 51.6221L50.613 48.1923L45.1558 51.5099L51.1186 48.0152L44.7664 51.7992L50.706 48.3163L45.1616 51.6457L51.1244 48.151L45.458 51.5453L50.9733 48.3104L44.9292 51.9822L50.5549 48.6823L44.9989 51.9822L50.7525 48.6055L45.3069 51.8759L50.7641 48.6764L45.5743 51.7814L51.0838 48.5524L45.1442 52.0648L51.4557 48.3635L45.6847 51.7755L51.5429 48.3399L45.2895 52.0825L50.6072 48.9656L45.6266 51.9467L50.7874 48.9184L45.1558 52.2537L51.1128 48.759L45.3011 52.2419L51.5313 48.5878L45.6498 52.1297L50.8862 49.0601L45.8358 52.0943L51.0954 49.0069L45.2604 52.5548L51.5952 48.8417L46.0915 52.2006L51.2058 49.2018L45.4755 52.6846L51.3104 49.2608L45.6556 52.6433L51.9729 48.942L45.9404 52.543L51.2872 49.4084L46.4053 52.3954L51.2465 49.5559L46.2019 52.6079L52.2228 49.0778L46.0683 52.8145L51.9613 49.3611L46.6959 52.5548L51.8974 49.5028L46.5797 52.6728L51.8741 49.5678L46.1147 52.9857L51.5661 49.7862L46.2833 53.0211L51.5661 49.9219L46.8122 52.7319L52.4088 49.4497L46.1845 53.1687L52.0717 49.7153L46.5506 52.9916L52.374 49.5796L46.9691 52.8794L52.3158 49.7448L46.3821 53.3281L52.6587 49.6445L46.26 53.5406L52.6297 49.8039L46.2891 53.6528L52.0776 50.2584L46.6087 53.5937L52.3275 50.2407L46.94 53.4107L52.2693 50.2879L47.2132 53.3281L52.4204 50.2761L47.3061 53.3576L52.7459 50.1699L46.9807 53.6232L52.4379 50.4237L47.5967 53.3989L53.1062 50.1699L46.7773 53.9184L52.7982 50.3883L47.6258 53.4402L52.6355 50.5064L47.4108 53.7118L52.5192 50.713L47.1841 53.942L52.9958 50.5359L47.4398 53.8712L52.9726 50.6244L46.9051 54.2844L52.6239 50.9314L47.1318 54.2254L53.4898 50.5005L47.4514 54.1368L53.205 50.7661L47.6142 54.184L53.4724 50.7484L47.6607 54.1959L53.176 50.9609L47.9687 54.1191L53.1178 51.0967L47.3236 54.5855L53.8966 50.7307L47.2713 54.6563L53.6932 50.8901L47.8001 54.4261L53.3736 51.1557L47.3933 54.6858L53.0655 51.3623L47.8118 54.5441L53.4956 51.2088L48.3058 54.2962L53.5305 51.2324L47.928 54.5323L53.2573 51.4095L47.4921 54.8452L53.2864 51.4509L47.8524 54.7567L53.5944 51.3859L48.4569 54.4674L53.4898 51.5158L47.6839 54.981L53.5072 51.563L48.2593 54.733L53.7571 51.5099L48.3464 54.7921L53.8966 51.5394L48.2709 54.8629L54.1581 51.4095L48.4394 54.857L53.7339 51.7519L48.329 54.9928L54.3848 51.4391L48.3232 55.0695L54.5127 51.4391L48.8346 54.8865L54.5301 51.5453L48.1256 55.3529L53.8094 52.0176L48.329 55.3352L54.408 51.7696L48.5092 55.2702L54.1581 51.9585L48.5557 55.3293L53.9257 52.177L48.6138 55.3411L54.5824 51.8405L48.9334 55.2761L54.5533 51.9822L48.701 55.4886L54.0129 52.3718L48.8114 55.4709L54.8904 51.9054L48.4278 55.7661L54.5185 52.1947L48.608 55.7897L54.8439 52.1356L48.7184 55.7779L54.2511 52.5312L48.8346 55.7602L54.9718 52.1592L48.9509 55.7366L54.2337 52.6374L49.3344 55.6421L54.472 52.6315L49.038 55.9078L54.7393 52.5666L48.9276 56.1203L55.1694 52.4603L49.0264 56.1144L54.7277 52.7732L49.0206 56.2265L54.594 52.9562L49.8924 55.7897L54.9079 52.8499L49.6541 56.0258L55.0648 52.8558L49.4972 56.197L55.4716 52.6905L49.8517 56.1203L55.1519 53.0152L49.3402 56.5276L55.7854 52.7437L50.1423 56.0849L55.5297 52.9267L49.317 56.6634L55.0531 53.2986L49.4507 56.7106L55.9017 52.9267L50.3689 56.2561L55.2566 53.393L49.7645 56.7106L55.6517 53.2572L50.4793 56.4036L55.2043 53.635L50.3805 56.5571L56.0353 53.2395L50.3224 56.6398L55.5762 53.5583L50.0144 56.9113L55.4018 53.7531L50.5375 56.6929L56.0063 53.4875L49.84 57.2419L56.477 53.3517L50.3747 57.0707L55.7447 53.9243L50.1423 57.2183L56.1806 53.6764L50.8978 56.8759L56.0121 53.8771L50.2992 57.3718L56.4886 53.7413L50.52 57.3659L55.8377 54.249L51.1186 57.1415L56.1341 54.2018L50.7176 57.4426L56.262 54.1899L51.2174 57.2478L55.9772 54.4556L50.52 57.6846L56.9013 53.942L50.4851 57.844L56.785 54.1486L51.2697 57.4367L56.5119 54.3611L50.6014 57.9208L56.2271 54.6209L51.4731 57.4249L56.3608 54.5559L51.2116 57.7023L57.1744 54.2077L50.7176 58.027L56.7269 54.5028L51.1826 57.7791L56.756 54.5087L51.0896 57.8499L56.5526 54.6445L51.2 57.9031L57.1337 54.4202L51.293 57.9621L57.4534 54.3493L51.1826 58.0742L56.7095 54.8334L51.723 57.8263L57.372 54.5146L51.2407 58.1628L56.8141 54.8924L51.5952 58.0034L56.6804 55.0223L51.3278 58.2513L57.1047 54.8629L51.6242 58.092L57.2035 54.8216L51.5487 58.2336L57.2093 54.916L51.8393 58.1923L56.8722 55.2407L51.2465 58.5583L57.3488 54.981L51.9904 58.1451L57.773 54.7507L52.1589 58.0565L57.5696 54.8806L51.229 58.6173L56.9826 55.2407L51.9381 58.2277L57.744 54.8216L52.2228 58.086L57.7323 54.8511L51.8683 58.3694L57.9183 54.8216L52.0892 58.2868L57.157 55.3116L51.7928 58.5406L57.5347 55.1758L52.3275 58.3399L57.2035 55.4827L52.0892 58.5819L57.5522 55.3765L52.1647 58.6646L58.1508 55.1581L52.3623 58.6705L57.6219 55.5831L52.6645 58.5937L57.8137 55.5713L52.5948 58.6409L58.2205 55.3411L52.7343 58.5878L57.9009 55.5536L52.3275 58.9361L57.7265 55.772L52.7691 58.7767L58.2031 55.589L52.31 59.0778L58.3484 55.5359L51.9264 59.3611L57.4592 56.1144L52.1357 59.308L57.773 56.0022L52.5948 59.125L57.3778 56.321L52.8912 59.001L57.9299 56.0435L53.0772 58.9892L57.4011 56.4568L52.3391 59.4792L56.8315 56.8464L52.2868 59.5737L57.5057 56.5158L52.8621 59.2903L56.6165 57.0884L52.7982 59.4438L57.1512 56.8936L52.3565 59.8098L56.6746 57.2773L52.9493 59.5087L56.663 57.3304L52.6122 59.7448L55.5646 58.0152L53.0772 59.5973L55.8958 57.9444L53.1702 59.6504L54.4894 58.8771" stroke="#FF6723" stroke-width="0.3" stroke-linecap="round" stroke-linejoin="round"/>
<path d="M22.3449 34.7572L24.2337 33.6533L22.6413 34.6923L23.7804 34.0252L22.7226 34.7277L23.7804 34.1079L23.1643 34.5683L23.577 34.3263L22.3333 35.0878L24.5185 33.8068L22.5541 35.0465L23.7804 34.3263L22.31 35.2L23.6118 34.4384L22.3914 35.1704L23.9257 34.2732L22.3158 35.3121L24.6056 33.9721L22.1124 35.5482L24.687 34.037L22.7866 35.2649L24.6928 34.1492L22.0659 35.7253L23.9722 34.6096L22.5599 35.5246L24.2627 34.527L22.7285 35.4715L24.4429 34.468L22.2345 35.8965L24.1872 34.7513L22.0485 36.1031L24.9485 34.403L21.9439 36.292L25.0648 34.4621L22.6413 35.991L24.8555 34.6923L22.6761 36.0441L25.1577 34.586L21.9904 36.5754L24.5882 35.0524L22.095 36.54L24.9776 34.8517L21.9729 36.6817L24.7044 35.0819L21.6126 36.9296L25.0357 34.9225L22.3623 36.5636L24.809 35.1291L22.4146 36.5813L24.873 35.1409L21.9148 36.9473L25.1345 35.0583L21.8276 37.0772L24.8788 35.2885L21.5603 37.2779L25.2101 35.135L21.4557 37.4314L25.0066 35.3475L21.6242 37.3841L24.7974 35.5246L21.508 37.5671L25.704 35.1055L22.0252 37.3546L25.1926 35.501L21.9613 37.4432L25.8435 35.1645L21.5719 37.8033L25.0066 35.7903L21.9671 37.6144L25.1403 35.7549L22.0078 37.6085L25.3437 35.6545L21.4789 37.9981L25.9714 35.3652L21.9206 37.88L25.8203 35.5896L21.2465 38.3523L25.2682 35.9969L21.63 38.2106L25.8958 35.7135L22.0717 37.9922L25.3321 36.0795L21.9148 38.2224L25.861 35.9083L21.6475 38.5116L25.489 36.2566L21.8741 38.4349L25.9481 36.0441L21.4848 38.7832L25.6692 36.3275L21.5603 38.8304L25.9539 36.2566L21.2407 39.1433L26.6514 35.9733L20.828 39.5034L26.1806 36.3629L21.0024 39.5329L25.9423 36.6344L21.1942 39.5152L26.7385 36.2625L21.2581 39.5152L26.6397 36.357L21.1302 39.7041L26.5002 36.5577L21.0605 39.7572L26.0295 36.841L20.8397 39.9461L26.9826 36.3452L20.5781 40.1763L26.3898 36.7702L21.0954 39.9402L26.6862 36.6639L20.9094 40.135L26.4421 36.8883L21.1942 40.0819L26.7618 36.8174L21.1942 40.1645L26.663 36.9591L21.2755 40.2531L26.7618 37.0358L21.6882 40.1409L27.1337 36.9473L21.6765 40.1881L26.7327 37.2248L21.6707 40.3239L27.0001 37.1952L21.7114 40.3357L26.7734 37.3664L21.0779 40.7194L26.6862 37.4314L21.1244 40.808L26.7443 37.5081L21.3104 40.7312L27.5405 37.0772L21.4848 40.7549L27.4185 37.2779L21.2 40.9733L27.1977 37.455L21.4383 40.8788L27.3197 37.4314L22.0078 40.6663L27.5347 37.4255L21.5719 40.9497L27.2325 37.6321L21.9729 40.7667L27.4824 37.5376L21.4266 41.1031L27.6045 37.4786L22.0078 40.8375L27.1802 37.8033L22.2228 40.7312L27.5522 37.6026L21.7637 41.0677L27.8311 37.5081L22.3914 40.7844L28.0171 37.4845L21.8509 41.1504L27.1918 38.0158L21.5894 41.3393L27.7381 37.7324L22.2403 41.0559L27.9241 37.7206L21.6823 41.475L27.8428 37.8623L22.1473 41.3216L28.2147 37.7678L22.1822 41.4042L27.744 38.1456L22.496 41.3275L27.5754 38.3464L22.6471 41.292L27.9532 38.1811L22.1182 41.6285L27.8486 38.2696L22.403 41.5695L27.6626 38.488L22.4204 41.6876L27.8718 38.488L22.1589 41.8942L27.8486 38.5589L22.7052 41.6167L28.4414 38.2519L22.2461 41.9119L28.5053 38.2401L22.5134 41.8529L28.4007 38.3995L22.6238 41.8469L28.4355 38.4349L22.4553 42.0299L28.5576 38.4526L22.9028 41.8824L28.3193 38.7065L23.0713 41.7938L28.0927 38.8481L22.4553 42.1834L28.6215 38.5707L23.1353 41.8588L28.4588 38.736L22.8214 42.0772L28.6273 38.671L22.6471 42.2129L28.2496 38.9249L23.2166 42.0004L28.5402 38.8776L22.6064 42.4491L29.0225 38.6887L22.8098 42.3723L28.8482 38.8304L22.6936 42.5317L28.947 38.8658L23.5886 42.148L28.5576 39.2318L22.9028 42.5789L29.0981 38.9485L23.6235 42.2307L28.6913 39.2613L23.1411 42.6439L29.4584 38.9426L23.6002 42.4904L29.0923 39.2673L23.0772 42.8328L29.0516 39.3263L23.8675 42.4255L29.5281 39.102L23.8559 42.455L28.976 39.4503L23.699 42.6793L28.8075 39.6805L23.1876 43.0807L29.8129 39.1964L23.7397 42.7619L29.6037 39.3263L23.577 42.939L28.9528 39.7867L23.978 42.7678L29.3073 39.6392L24.1175 42.7619L29.1562 39.8103L23.5537 43.122L29.3596 39.7159L23.7629 43.0984L29.8304 39.5388L23.5014 43.2578L29.935 39.4857L23.7048 43.1752L29.9815 39.4916L23.5653 43.3523L29.7316 39.7336L24.2569 42.9922L29.8943 39.6864L24.0651 43.187L29.9698 39.7277L23.6467 43.5766L29.7606 39.9933L23.9082 43.5057L29.4468 40.259L23.9431 43.5707L29.842 40.1114L23.8327 43.736L29.4933 40.4184L24.379 43.5589L29.7664 40.4007L24.1407 43.7832L30.2604 40.1941L24.4662 43.6179L29.6909 40.5541L24.809 43.4821L30.5161 40.135L24.3383 43.8954L30.3476 40.3711L24.1814 44.0016L30.0628 40.5541L24.5475 43.854L30.1791 40.5541L24.7684 43.8068L30.0105 40.7312L24.6405 43.9485L30.3418 40.6073L24.8032 43.978L30.5452 40.6073L25.1345 43.8658L30.3999 40.7785L24.3732 44.3381L30.2488 40.8906L25.4018 43.8481L31.0857 40.5128L24.687 44.3381L30.5394 40.9024L25.5064 43.978L30.4522 41.0795L25.3495 44.1905L31.2019 40.7608L25.4018 44.1964L30.5626 41.1681L24.9369 44.5093L30.3534 41.3334L25.7215 44.1728L30.9288 41.1209L25.675 44.22L30.7312 41.2566L25.1229 44.5978L30.9578 41.174L25.7854 44.2377L31.1438 41.0972L25.4425 44.468L30.923 41.2507L25.4483 44.5565L31.1089 41.2389L25.367 44.7159L30.7544 41.5577L25.5878 44.6687L30.6789 41.6817L25.7912 44.6096L30.7718 41.6876L26.0179 44.6096L31.1264 41.6167L25.4541 45.0052L31.6087 41.3924L25.4716 45.0819L31.2542 41.6935L25.3786 45.2118L31.1903 41.7997L25.5994 45.1055L31.0159 41.9296L26.2794 44.7749L31.0973 41.9473L26.3724 44.8044L31.6669 41.6994L26.3956 44.8162L31.2717 41.9532L25.8958 45.1586L31.3763 41.9473L25.6866 45.318L31.1496 42.1185L25.6634 45.383L31.9981 41.6699L26.4363 45.0229L31.6552 41.965L26.0992 45.3121L31.3065 42.2543L26.3782 45.2295L32.1085 41.8706L26.169 45.4774L31.9981 42.0595L26.355 45.4007L31.539 42.3605L26.0295 45.625L31.4286 42.4609L26.5351 45.4302L32.0272 42.207L26.1632 45.7076L32.3178 42.1008L26.7502 45.3711L31.9574 42.3192L26.4886 45.6014L32.5037 42.0713L26.9303 45.4066L31.7598 42.573L26.5758 45.6427L31.8238 42.5671L26.076 45.9674L32.6374 42.1185L26.2387 45.9142L32.0272 42.5199L26.8548 45.6427L32.3352 42.4314L27.1686 45.6014L32.3236 42.5789L27.2325 45.6899L31.9749 42.9095L27.093 45.7844L32.0562 42.8741L26.9536 45.9083L32.7711 42.4963L26.878 46.0736L33.0035 42.4845L26.5061 46.3924L32.6607 42.7856L26.7618 46.292L32.6723 42.8269L27.0291 46.233L32.4921 43.0276L27.064 46.3098L32.7304 42.9863L27.2732 46.2212L32.5619 43.122L27.5173 46.115L32.957 42.9213L27.1337 46.4042L32.62 43.187L27.494 46.2153L32.4514 43.3109L27.6103 46.174L33.1314 42.9331L27.3429 46.3511L33.1314 42.9567L26.9536 46.5931L33.3348 42.8505L26.8199 46.7584L32.5328 43.4054L27.1221 46.6758L32.649 43.4349L27.279 46.723L33.0791 43.3227L27.3197 46.8174L33.05 43.4585L27.0698 47.0122L33.0558 43.4998L27.7614 46.6699L33.021 43.5884L27.9416 46.6935L33.329 43.5353L27.8486 46.8647L33.6951 43.4349L27.9706 46.8942L33.143 43.8599L27.5754 47.1716L33.4743 43.7124L28.2903 46.7643L33.2244 43.8717L27.4301 47.3428L33.6196 43.7124L28.0171 47.1185L33.5847 43.854L28.052 47.1185L33.3871 43.9898L28.1798 47.1126L33.6835 43.8835L28.2612 47.1775L34.0497 43.7832L27.7207 47.5789L33.3464 44.2791L27.8369 47.5376L33.6719 44.1138L27.7556 47.7265L34.3693 43.8481L28.6215 47.3192L34.3577 43.9544L28.5692 47.3664L34.0613 44.1433L28.7378 47.3782L34.0206 44.2791L28.668 47.5376L34.1194 44.3381L28.7436 47.6085L34.4507 44.2613L28.2031 47.9686L34.1194 44.4975L29.0051 47.6085L33.7939 44.7985L28.5285 47.9567L33.9334 44.7867L28.6041 47.9745L34.2647 44.6569L28.8191 47.8977L34.7296 44.4325L28.9993 47.8505L34.038 44.893L28.6506 48.0748L34.1078 44.8753L28.3484 48.3464L34.1194 44.9638L28.9818 48.0158L34.5204 44.769L28.546 48.3641L34.5495 44.8458L28.9644 48.1752L34.5669 44.8871L28.8889 48.2401L34.4855 44.9579L29.04 48.1811L35.1016 44.6273L28.6738 48.4172L34.2821 45.1291L28.5866 48.553L34.4216 45.1291L29.0342 48.3464L34.6657 45.0465L28.8947 48.5412L34.6424 45.1704L29.1039 48.4349L35.0493 44.9461L28.9993 48.5884L34.6599 45.2708L29.1155 48.553L35.3515 44.893L28.8075 48.7832L34.5727 45.4007L29.4061 48.4821L34.8168 45.3121L29.2841 48.6415L35.1539 45.2L28.9818 48.9072L34.9621 45.4007L29.3422 48.7596L34.6657 45.6368L29.7083 48.671L35.3108 45.383L29.8768 48.6061L35.3398 45.4007L29.6618 48.7419L35.3573 45.4007L29.133 49.1728L34.7122 45.9024L29.5456 49.0252L34.9447 45.8611L29.3596 49.161L34.8633 45.932L29.6676 49.0429L35.5549 45.5896L30.15 48.8304L35.4677 45.7135L29.8594 49.1315L35.4503 45.8552L30.3883 48.919L35.9036 45.684L29.5921 49.4857L35.4561 46.05L29.6269 49.5329L35.5374 46.0677L29.7257 49.4857L35.7641 45.9438L30.4871 49.1669L35.2178 46.3924L30.458 49.2377L35.2643 46.416L29.8362 49.6273L35.0435 46.5754L30.3825 49.3322L35.0783 46.5813L30.6731 49.2495L35.2352 46.5754L30.0047 49.7041L35.2817 46.6108L29.935 49.8458L35.6014 46.5223L30.3418 49.6214L35.2004 46.7761L30.5045 49.5624L35.4793 46.6462L30.336 49.6805L36.0489 46.3334L30.2081 49.8517L35.5491 46.723L30.5103 49.7218L35.1713 46.9886L30.5684 49.7572L35.8513 46.658L30.2895 49.952L36.0837 46.5577L30.7777 49.6923L35.5723 46.8824L30.5917 49.9048L35.4735 47.0418L30.9462 49.834L35.4154 47.2129L30.6672 50.0111L35.6595 47.0831L30.6033 50.0583L35.9385 46.9296L30.8706 49.9697L36.0547 46.9296L30.8648 50.0465L35.2585 47.4668L31.0915 49.9284L36.0489 47.024L31.3356 49.9284L35.4445 47.5199L30.6556 50.3534L35.2817 47.638L31.3763 49.9815L36.0082 47.2661L31.231 50.0996L35.8048 47.4196L31.2193 50.1645L35.1597 47.8564L31.7657 49.9579L35.6537 47.6793L31.3298 50.2531L35.0725 48.0571L31.8005 50.017L35.0086 48.1338L31.9051 49.9638L35.0551 48.1161L31.231 50.4302L35.4212 47.9686L31.5041 50.3475L35.2585 48.1456L31.6552 50.3889L35.7815 47.9686L31.725 50.3711L35.0202 48.4349L32.4979 49.9874L34.9447 48.553L31.754 50.4656L34.9098 48.6179L32.5619 50.0465L35.5316 48.305L32.341 50.2354L34.7529 48.8186L32.0214 50.4656L35.3166 48.5353L32.0388 50.4774L35.4735 48.4644L32.6025 50.2767L34.8923 48.9367L32.6374 50.2708L34.2356 49.3322" stroke="#FF6723" stroke-width="0.3" stroke-linecap="round" stroke-linejoin="round"/>
</svg>
