<svg width="81" height="80" viewBox="0 0 81 80" fill="none" xmlns="http://www.w3.org/2000/svg">
<path d="M18.2209 64.7945C20.2487 60.0172 24.983 56.6665 30.5 56.6665H50.5C56.0169 56.6665 60.7512 60.0172 62.779 64.7945M53.8333 31.6665C53.8333 39.0303 47.8638 44.9998 40.5 44.9998C33.1362 44.9998 27.1666 39.0303 27.1666 31.6665C27.1666 24.3027 33.1362 18.3332 40.5 18.3332C47.8638 18.3332 53.8333 24.3027 53.8333 31.6665ZM73.8333 39.9998C73.8333 58.4093 58.9095 73.3332 40.5 73.3332C22.0905 73.3332 7.16663 58.4093 7.16663 39.9998C7.16663 21.5903 22.0905 6.6665 40.5 6.6665C58.9095 6.6665 73.8333 21.5903 73.8333 39.9998Z" stroke="#472C1B" stroke-width="2" stroke-linecap="round" stroke-linejoin="round"/>
</svg>
